<svg xmlns="http://www.w3.org/2000/svg" width="178.604" height="186.571" viewBox="0 0 178.604 186.571"><g transform="translate(10.223 2.317)"><path d="M108.05,168.734l-1.04.114A23.516,23.516,0,0,1,84.846,158.84a22.945,22.945,0,0,1-1.664-2.906,24.691,24.691,0,0,1,1.388-23.261c2.542-4.066,6.353-7.591,7.248-12.28,1.154-6.1-3.005-11.745-6.915-16.518s-8.059-10.43-6.873-16.528c.738-3.816,3.53-6.993,6.759-9.213,8.532-5.87,20.251-5.8,29.485-1.336s16.118,12.764,20.651,21.946c6.322,12.863,8.319,28.2,3.681,41.89S122.244,165.916,108.05,168.734Z" transform="translate(27.235 -54.822)" fill="#f0f0f0"/><path d="M285.255,55.59c7.934-10.955,19.721-18.868,33.436-18l-.764-.036a13.726,13.726,0,0,1,5.657.733l.135.026h-.088a24.031,24.031,0,0,1,13.034,36.867c-2.995,4.3-7.435,7.716-9.249,12.634-2.043,5.537-.307,11.781-1.492,17.563-2.215,10.851-15.041,17.324-25.845,14.89s-19.039-11.818-22.788-22.242C272.158,83.733,276.369,67.866,285.255,55.59Z" transform="translate(-275.067 -37.505)" fill="#f0f0f0"/><ellipse cx="18.265" cy="18.265" rx="18.265" ry="18.265" transform="translate(24.215 96.661)" fill="#f0f0f0"/></g><g transform="translate(0 0)"><path d="M205.276,103.36a17.677,17.677,0,0,0,9.712,2.771,32.569,32.569,0,0,1,3.265-.036,4.95,4.95,0,0,1,2.984,1.159,2.719,2.719,0,0,1,.77,2.969c-.614,1.4-2.6,1.96-2.9,3.463a2.916,2.916,0,0,0,1.5,2.74,16.239,16.239,0,0,1,2.735,1.841,3.759,3.759,0,0,1-1.866,6.27c-.775.182-1.726.187-2.147.863a2.444,2.444,0,0,0-.114,1.627,5.781,5.781,0,0,1-.442,3.421,3.177,3.177,0,0,1-2.792,1.8c-.458,0-.9-.156-1.362-.146a1.128,1.128,0,0,0-1.1.66,2.376,2.376,0,0,0,.042.936c.166,1.534-1.362,2.735-2.844,3.172a10.237,10.237,0,0,1-8.755-1.789,16.7,16.7,0,0,1-5.407-7.372,50.05,50.05,0,0,1-2.423-8.922" transform="translate(-106.254 -66.803)" fill="#171f2e"/><path d="M219.659,243.02a6.405,6.405,0,0,1,1.461-2.178,19.946,19.946,0,0,1,15.551-5.833,27.7,27.7,0,0,1,15.6,6.4c2.366,1.919,5.558,5.615,6.39,8.547-3.473.837-8.662-.328-11.958-1.757s-6.52-3.156-10.071-3.52c-4.118-.421-8.163,1.04-12.218,1.867a7.829,7.829,0,0,1-2.48.2,2.953,2.953,0,0,1-2.111-1.185A2.9,2.9,0,0,1,219.659,243.02Z" transform="translate(-153.683 -129.988)" fill="#1d428a"/><g transform="translate(65.757 104.985)" opacity="0.3"><path d="M219.659,243.02a6.405,6.405,0,0,1,1.461-2.178,19.946,19.946,0,0,1,15.551-5.833,27.7,27.7,0,0,1,15.6,6.4c2.366,1.919,5.558,5.615,6.39,8.547-3.473.837-8.662-.328-11.958-1.757s-6.52-3.156-10.071-3.52c-4.118-.421-8.163,1.04-12.218,1.867a7.829,7.829,0,0,1-2.48.2,2.953,2.953,0,0,1-2.111-1.185A2.9,2.9,0,0,1,219.659,243.02Z" transform="translate(-219.44 -234.973)"/></g><path d="M299.352,328.159l-9.915-6.421s-9.878,7.918-11.807,6.91L289.4,309l15.863,9.359Z" transform="translate(-230.543 -165.527)" fill="#6c6c6c"/><path d="M301.078,321.724a.936.936,0,0,0-.582-1.107.9.9,0,0,0-1.1.572.988.988,0,0,0,.624,1.165.936.936,0,0,0,1.081-.718" transform="translate(-237.686 -171.087)" fill="#fff"/><g transform="translate(47.072 143.473)" opacity="0.6"><path d="M316.927,309l1.56,1.009L306.6,328.466s-.9.65-1.461.182Z" transform="translate(-305.14 -309)" fill="#cedbf5"/></g><path d="M307.335,331.963c-.094-.057.151-.567.125-1.222s-.281-1.149-.192-1.217.561.411.577,1.206S307.408,332.041,307.335,331.963Z" transform="translate(-248.524 -175.377)" fill="#151515"/><path d="M312.549,335.225c-.1-.031,0-.52-.229-1.118s-.588-.92-.52-1.014.64.172.889.884S312.643,335.277,312.549,335.225Z" transform="translate(-255.828 -177.085)" fill="#151515"/><path d="M315.921,336.594c.036-.1.593.057.972.619s.317,1.133.213,1.128-.218-.452-.52-.91S315.874,336.7,315.921,336.594Z" transform="translate(-262.371 -178.761)" fill="#151515"/><path d="M301.258,334.592c-.068-.094.333-.458.619-1.04s.369-1.092.484-1.092.208.608-.14,1.274S301.3,334.685,301.258,334.592Z" transform="translate(-240.024 -176.79)" fill="#151515"/><path d="M194.222,240.877c.406,0,13.741-.3,20.942,4.461l5.719,3.213-.151,5.771s1.222,2.038.951,3.26a48.044,48.044,0,0,0,.036,6.385s2.137.135,2.407,3.806a10.143,10.143,0,0,1,4.263,3.4c1.3,2.173,14.62,26.625,15.431,30.566s1.362,10.866-1.627,13.175-9.681,1.492-9.681,1.492-.951,2.854-6.8,2.99-14.8-6.655-14.8-6.655l-26.9-18.338L190.4,280.77l9.395,5.745-10.05-11.683s-4.622-7.877-3.26-16.164C187.489,252.518,194.222,240.877,194.222,240.877Z" transform="translate(-121.071 -132.821)" fill="#151515"/><g transform="translate(65.02 108.379)"><path d="M229.8,248.83h4.549a46.356,46.356,0,0,1,4.918.265,27.2,27.2,0,0,1,5.875,1.227,40.612,40.612,0,0,1,9.65,5.106l2.735,1.892.743.52a1.142,1.142,0,0,0,.27.161,2.5,2.5,0,0,0-.234-.208l-.717-.551c-.629-.478-1.56-1.159-2.688-1.97a38.453,38.453,0,0,0-9.671-5.2,26.662,26.662,0,0,0-5.937-1.222,48.194,48.194,0,0,0-4.944-.2c-1.4,0-2.542.052-3.328.094l-.9.052A1.2,1.2,0,0,0,229.8,248.83Z" transform="translate(-223.972 -244.931)" fill="#6c6c6c"/><path d="M232.812,256.981a1.559,1.559,0,0,1,.421.78.925.925,0,0,1-.281.837.959.959,0,0,1-1.643-.655.931.931,0,0,1,.369-.806,1.508,1.508,0,0,1,.847-.27.446.446,0,0,0-.255-.078,1.118,1.118,0,0,0-.7.2,1.1,1.1,0,0,0-.52.967,1.2,1.2,0,0,0,2.08.827,1.128,1.128,0,0,0,.3-1.04,1.175,1.175,0,0,0-.374-.629C232.91,256.986,232.817,256.965,232.812,256.981Z" transform="translate(-199.536 -248.84)" fill="#6c6c6c"/><path d="M238.97,255.063c.026.026.213-.114.478-.385a2.449,2.449,0,0,0,.65-2.787c-.12-.364-.229-.572-.26-.561a1.656,1.656,0,0,0,.073.608,3.446,3.446,0,0,1,.047,1.388,3.53,3.53,0,0,1-.655,1.227C239.085,254.85,238.944,255.037,238.97,255.063Z" transform="translate(-210.484 -246.22)" fill="#6c6c6c"/><path d="M241.175,253.987c0,.026.208-.088.452-.343a3.317,3.317,0,0,0,.707-3.114c-.094,0,0,.863-.286,1.835A7.648,7.648,0,0,1,241.175,253.987Z" transform="translate(-213.817 -245.836)" fill="#6c6c6c"/><path d="M268.306,245.525c.042,0,.057-.244.094-.629a5.113,5.113,0,0,1,.328-1.43,4.05,4.05,0,0,1,.811-1.211c.26-.281.426-.457.4-.489s-.234.094-.52.348a3.332,3.332,0,0,0-.925,1.248,3.842,3.842,0,0,0-.27,1.529A1.367,1.367,0,0,0,268.306,245.525Z" transform="translate(-255.344 -241.626)" fill="#6c6c6c"/><path d="M272.766,245.4c.042,0,.047-.244.042-.624a5,5,0,0,1,.12-1.435,6.16,6.16,0,0,1,.676-1.279c.2-.322.312-.52.281-.556s-.2.151-.437.447a4.384,4.384,0,0,0-.78,1.31,3.593,3.593,0,0,0-.047,1.529A1.623,1.623,0,0,0,272.766,245.4Z" transform="translate(-261.551 -241.501)" fill="#6c6c6c"/><path d="M251.838,308.489a2.6,2.6,0,0,0-.244-.608c-.182-.39-.463-.957-.832-1.679-.738-1.451-1.825-3.535-3.187-6.1-2.724-5.137-6.53-12.213-10.768-20.007l-3.12-5.693a25.268,25.268,0,0,1-.79-22.221c.328-.743.613-1.305.811-1.685l.229-.432a.967.967,0,0,0,.068-.151.852.852,0,0,0-.094.14l-.25.416c-.213.369-.52.925-.863,1.664a24.925,24.925,0,0,0-1.5,16.762,25.318,25.318,0,0,0,2.2,5.636c1,1.835,2.033,3.738,3.088,5.688l10.83,19.97,3.265,6.062.879,1.653.218.437a.948.948,0,0,0,.062.151Z" transform="translate(-217.627 -245.538)" fill="#6c6c6c"/><path d="M231.76,328.74a2.286,2.286,0,0,0,.291.208l.863.52,3.187,2.007c2.688,1.664,6.39,3.977,10.44,6.6s7.679,5.028,10.279,6.785l3.12,2.08.858.551a2.014,2.014,0,0,0,.307.182,1.557,1.557,0,0,0-.276-.224l-.827-.6-3.068-2.147c-2.6-1.794-6.239-4.248-10.268-6.873s-7.773-4.913-10.487-6.53c-1.357-.811-2.464-1.456-3.229-1.893l-.889-.52A2.025,2.025,0,0,0,231.76,328.74Z" transform="translate(-227.554 -283.383)" fill="#6c6c6c"/><path d="M284.07,333.893a2.831,2.831,0,0,0,.25-.52l.65-1.477c.562-1.243,1.362-2.948,2.262-4.825s1.679-3.525,2.293-4.814l.681-1.466a2.6,2.6,0,0,0,.218-.551,2.323,2.323,0,0,0-.312.52c-.187.338-.447.822-.759,1.43-.624,1.211-1.471,2.9-2.366,4.783s-1.674,3.6-2.194,4.866c-.26.629-.452,1.149-.572,1.513A2.7,2.7,0,0,0,284.07,333.893Z" transform="translate(-284.07 -279.302)" fill="#6c6c6c"/><path d="M251.214,346c.047-.057-4.549-4.123-10.274-9.083s-10.4-8.932-10.45-8.875,4.549,4.139,10.274,9.078S251.162,346.055,251.214,346Z" transform="translate(-217.003 -283.047)" fill="#6c6c6c"/><path d="M225.353,371.865a6.506,6.506,0,0,1-1.107-1.232c-.556-.863-1.237-2.132-2.007-3.509s-1.419-2.662-1.9-3.582a11,11,0,0,0-.811-1.471,9.424,9.424,0,0,0,.639,1.56c.437.946,1.071,2.236,1.83,3.639a37.421,37.421,0,0,0,2.08,3.489,4.247,4.247,0,0,0,.863.9A1.164,1.164,0,0,0,225.353,371.865Z" transform="translate(-185.444 -299.384)" fill="#6c6c6c"/><path d="M230.723,373.586c.042,0-.255-.588-.582-1.56a20.4,20.4,0,0,1-.842-3.92,14.408,14.408,0,0,1,0-3.993,4.232,4.232,0,0,1,.348-1.144,2.266,2.266,0,0,0,.229-.38,1.488,1.488,0,0,0-.317.328,3.535,3.535,0,0,0-.447,1.159,12.749,12.749,0,0,0-.1,4.061,16.73,16.73,0,0,0,.936,3.957,8.319,8.319,0,0,0,.52,1.118A1.622,1.622,0,0,0,230.723,373.586Z" transform="translate(-195.686 -299.634)" fill="#6c6c6c"/><path d="M224.553,365.68a4.679,4.679,0,0,0-1.04-.333,16.489,16.489,0,0,1-2.4-.853,24.834,24.834,0,0,1-3.047-1.918,3.463,3.463,0,0,0,.8.738,9.455,9.455,0,0,0,2.178,1.4,11.625,11.625,0,0,0,2.464.8,3.894,3.894,0,0,0,1.04.166Z" transform="translate(-183.885 -299.625)" fill="#6c6c6c"/><path d="M202.97,295.89a.522.522,0,0,0,.073.109l.229.307c.2.27.494.671.842,1.2a26.96,26.96,0,0,1,2.464,4.794,62.543,62.543,0,0,1,2.376,7.643,78.282,78.282,0,0,0,2.865,9.411c1.3,3.244,3,6.125,4.071,8.943a21.962,21.962,0,0,1,1.617,7.773,13.521,13.521,0,0,1-.343,3.031,13.149,13.149,0,0,1-.743,2.189,12.879,12.879,0,0,1-.671,1.305c-.073.135-.135.244-.187.333a.745.745,0,0,0-.057.12.52.52,0,0,0,.083-.1l.208-.317a11.723,11.723,0,0,0,.723-1.289,12.671,12.671,0,0,0,.79-2.2,13.6,13.6,0,0,0,.39-3.073,21.7,21.7,0,0,0-1.56-7.861c-1.066-2.844-2.714-5.75-4.05-8.958a73.928,73.928,0,0,1-2.87-9.359,60.541,60.541,0,0,0-2.444-7.653,25.254,25.254,0,0,0-2.553-4.778c-.364-.52-.671-.92-.889-1.175l-.25-.291A.517.517,0,0,1,202.97,295.89Z" transform="translate(-169.18 -267.612)" fill="#6c6c6c"/><path d="M230.115,264.33a5.121,5.121,0,0,0,.27.634,7.349,7.349,0,0,1,.52,1.788,8.6,8.6,0,0,1-.094,2.745c-.161,1.04-.593,2.08-.884,3.3a5.6,5.6,0,0,0-.151,1.8,10.6,10.6,0,0,0,.265,1.648,26,26,0,0,0,.806,2.688c.265.754.52,1.352.665,1.768a3.116,3.116,0,0,0,.286.629,3.785,3.785,0,0,0-.187-.665c-.156-.473-.348-1.076-.582-1.794s-.52-1.659-.744-2.683a7.009,7.009,0,0,1-.094-3.327c.281-1.159.717-2.256.863-3.317a8.32,8.32,0,0,0,.042-2.818,6.322,6.322,0,0,0-.608-1.8,3.968,3.968,0,0,0-.255-.447A.518.518,0,0,0,230.115,264.33Z" transform="translate(-197.209 -252.461)" fill="#6c6c6c"/><path d="M236.161,278.549a6.588,6.588,0,0,1-1.31-2.215,8.319,8.319,0,0,1-.406-2.756,19.51,19.51,0,0,1,.426-3.421,33.151,33.151,0,0,0,.577-3.437,13.419,13.419,0,0,0-.057-2.86,7.826,7.826,0,0,0-.458-1.872,3.586,3.586,0,0,0-.218-.473c-.062-.1-.094-.156-.1-.156s.088.239.224.666a9.15,9.15,0,0,1,.369,1.861,14.863,14.863,0,0,1,0,2.808c-.1,1.04-.359,2.2-.593,3.411a18.317,18.317,0,0,0-.411,3.473,8.033,8.033,0,0,0,.478,2.818,5.366,5.366,0,0,0,.967,1.674,3.95,3.95,0,0,0,.374.369C236.1,278.517,236.155,278.554,236.161,278.549Z" transform="translate(-203.878 -251.035)" fill="#6c6c6c"/><path d="M230.39,286.526a3.338,3.338,0,0,0,.629.114c.406.052.993.146,1.711.27a36.1,36.1,0,0,1,5.522,1.414,36.626,36.626,0,0,1,5.225,2.282c.645.348,1.159.634,1.513.842a2.7,2.7,0,0,0,.567.3,2.936,2.936,0,0,0-.52-.385c-.338-.234-.842-.551-1.477-.92a30.484,30.484,0,0,0-10.8-3.723c-.728-.1-1.321-.161-1.731-.182A2.6,2.6,0,0,0,230.39,286.526Z" transform="translate(-211.293 -263.11)" fill="#6c6c6c"/><path d="M238.87,275.59c0,.052.769.042,1.981.229a14.679,14.679,0,0,1,8.313,4.367c.842.889,1.269,1.529,1.31,1.5a1.9,1.9,0,0,0-.27-.468,9.731,9.731,0,0,0-.9-1.159,12.807,12.807,0,0,0-1.56-1.513,15.118,15.118,0,0,0-2.236-1.466,15.306,15.306,0,0,0-2.485-1.009,12.793,12.793,0,0,0-2.137-.437,9.728,9.728,0,0,0-1.471-.083A2.346,2.346,0,0,0,238.87,275.59Z" transform="translate(-220.621 -257.846)" fill="#6c6c6c"/><path d="M236.18,298.51a2.786,2.786,0,0,0,.582.224c.385.125.931.312,1.612.551a50.1,50.1,0,0,1,5.163,2.178,48.742,48.742,0,0,1,4.866,2.766c.6.39,1.087.712,1.419.941a2.84,2.84,0,0,0,.52.328,2.659,2.659,0,0,0-.473-.411c-.312-.255-.78-.6-1.373-1.04a37.758,37.758,0,0,0-4.856-2.854,38.89,38.89,0,0,0-5.2-2.116c-.686-.213-1.248-.374-1.638-.468A2.537,2.537,0,0,0,236.18,298.51Z" transform="translate(-219.09 -268.87)" fill="#6c6c6c"/><path d="M278.73,270.42a2.385,2.385,0,0,0,.52-.172c.322-.125.8-.3,1.409-.52a26.428,26.428,0,0,1,5.2-1.139l-.13-.12c-.062,2.241-.047,4.9.151,7.731a63.661,63.661,0,0,0,1.1,8.22v-.057a39.584,39.584,0,0,1-1.731,4.617c-.244.52-.468.946-.619,1.227a3.941,3.941,0,0,0-.244.421,2.42,2.42,0,0,0,.3-.39,11.963,11.963,0,0,0,.681-1.2,34.9,34.9,0,0,0,1.825-4.606v-.057a69.867,69.867,0,0,1-1.04-8.194c-.2-2.823-.224-5.47-.192-7.705v-.135h-.135a24.4,24.4,0,0,0-5.2,1.237c-.608.224-1.071.426-1.388.567A3.192,3.192,0,0,0,278.73,270.42Z" transform="translate(-278.059 -254.386)" fill="#6c6c6c"/><path d="M281.361,274.944a6.612,6.612,0,0,0,1.092-.3c.665-.2,1.6-.458,2.631-.7,2.08-.489,3.775-.8,3.764-.879a4.554,4.554,0,0,0-1.133.1c-.7.1-1.648.265-2.693.52A13.025,13.025,0,0,0,281.361,274.944Z" transform="translate(-281.085 -256.654)" fill="#6c6c6c"/><path d="M269.03,260.025c0,.036.634-.146,1.648-.385a28.473,28.473,0,0,1,4.014-.64,31.2,31.2,0,0,1,4.066-.052,15.094,15.094,0,0,0,1.7.062,1.562,1.562,0,0,0-.447-.1c-.291-.047-.712-.1-1.232-.151a23.946,23.946,0,0,0-4.1-.026,22.019,22.019,0,0,0-4.04.723,11.771,11.771,0,0,0-1.18.385A1.458,1.458,0,0,0,269.03,260.025Z" transform="translate(-266.279 -249.737)" fill="#6c6c6c"/><path d="M243.919,261.177a3.783,3.783,0,0,0,.691.213c.447.12,1.1.265,1.924.411a26.347,26.347,0,0,0,6.473.322,8.04,8.04,0,0,0,3.483-.873,3.042,3.042,0,0,0,1.087-1.175,2.23,2.23,0,0,0,.177-1.393,7.239,7.239,0,0,0-.577-1.887,2.2,2.2,0,0,0-.369-.624s.1.234.27.66a8.456,8.456,0,0,1,.489,1.877,2.079,2.079,0,0,1-.2,1.253,2.756,2.756,0,0,1-1.04,1.04,7.991,7.991,0,0,1-3.374.816,29.152,29.152,0,0,1-6.426-.244c-.816-.114-1.477-.234-1.929-.322A3.827,3.827,0,0,0,243.919,261.177Z" transform="translate(-230.568 -248.544)" fill="#6c6c6c"/></g><path d="M232.924,82.818c2.485-5.386,8.636-4.326,11.579-2.9a13,13,0,0,1,6.5,6.889c.863,2.08,1.56,4.451,3.3,5.719a24.712,24.712,0,0,0,2.47,1.284A3.208,3.208,0,0,1,258.5,96c.26,1.794-1.56,3.036-3.057,3.759a2.9,2.9,0,0,1,.816,3.12,8.028,8.028,0,0,1-1.778,2.86,44.062,44.062,0,0,1-9.021,7.606c-2.839,1.768-4.679,1.976-7.726.707-1.237-.52-2.392-1.362-3.712-1.513-1.534-.172-3,.614-4.518.931s-3.431-.12-3.925-1.716a11.778,11.778,0,0,1-.208-1.929c-.078-.639-.4-1.336-.972-1.482a2.608,2.608,0,0,0-1.393.317c-1.1.364-2.75,8.506-3.8,8.012,0,0-1.529-13.8,1.414-21.873.941-2.6,2.948-8.069,4.549-10.206,2.2-2.932,7.487-2.282,7.752-1.763" transform="translate(-153.228 -54.996)" fill="#171f2e"/><path d="M248.5,87.971c3.915-1.367,9.2,1.638,10.4,5.6,1.336,4.4,2.787,9.837,3.042,13.3.52,6.962-4.435,9.026-4.435,9.026l2.012,10.882L242.549,121.3l-5.922-25.642-.551-2.152Z" transform="translate(-165.65 -59.254)" fill="#fbc0a5"/><path d="M245.308,109.008c-.057.151-.863-.068-1.747.281s-1.362,1.04-1.5.977-.042-.26.161-.577a2.412,2.412,0,0,1,1.149-.915,2.293,2.293,0,0,1,1.445-.094C245.167,108.811,245.308,108.941,245.308,109.008Z" transform="translate(-152.062 -69.322)" fill="#171f2e"/><path d="M262.385,113.066c-.1.12-.806-.328-1.752-.26s-1.612.588-1.726.478.042-.265.333-.52a2.433,2.433,0,0,1,1.367-.52,2.35,2.35,0,0,1,1.409.348C262.328,112.806,262.432,113.009,262.385,113.066Z" transform="translate(-177.921 -71.066)" fill="#171f2e"/><path d="M249.281,114.285a6.166,6.166,0,0,1,1.44-.624c.229-.083.442-.182.442-.354a1.2,1.2,0,0,0-.322-.66l-1.118-1.638a33.62,33.62,0,0,1-2.678-4.341,32.117,32.117,0,0,1,3.021,4.113c.38.582.743,1.128,1.092,1.659a1.383,1.383,0,0,1,.343.9.624.624,0,0,1-.307.437,2.1,2.1,0,0,1-.39.151A6.151,6.151,0,0,1,249.281,114.285Z" transform="translate(-160.875 -68.391)" fill="#171f2e"/><path d="M253.86,141.774a18.233,18.233,0,0,1-9.78-.244s3.291,4.191,10.1,1.944Z" transform="translate(-162.012 -85.128)" fill="#faaa88"/><path d="M250.288,127.272C250.376,127.157,250.246,127.412,250.288,127.272Z" transform="translate(-161.378 -78.268)" fill="#eb996e"/><path d="M250.306,125.49a1.726,1.726,0,0,1,1.04-.9,1.924,1.924,0,0,1,1.835.3,1.191,1.191,0,0,1,.161,1.04c-.328.421-.359.775-.816,1.04a2.4,2.4,0,0,1-2-.229A1.1,1.1,0,0,1,250.306,125.49Z" transform="translate(-164.417 -76.939)" fill="#c3250a"/><path d="M249.551,123.779c.151-.042.39.962,1.414,1.471s2.08.151,2.116.291c0,.057-.192.25-.645.369a2.563,2.563,0,0,1-1.747-.182,2.241,2.241,0,0,1-1.123-1.253C249.426,124.065,249.483,123.789,249.551,123.779Z" transform="translate(-163.724 -76.605)" fill="#171f2e"/><path d="M265.7,104.189c.052.265-.723.52-1.508,1.113s-1.321,1.2-1.56,1.04c-.1-.073-.1-.348.057-.717a2.86,2.86,0,0,1,.951-1.144,2.7,2.7,0,0,1,1.373-.52C265.428,103.981,265.677,104.064,265.7,104.189Z" transform="translate(-183.152 -67.091)" fill="#171f2e"/><path d="M246.62,101.421c-.2.2-.915-.1-1.789-.192s-1.638,0-1.789-.25c-.062-.12.073-.322.421-.52a2.73,2.73,0,0,1,1.492-.213,2.683,2.683,0,0,1,1.388.567C246.635,101.094,246.713,101.322,246.62,101.421Z" transform="translate(-153.946 -65.296)" fill="#171f2e"/><path d="M262.258,93.326a2.678,2.678,0,0,1,1.3-1.159A86.826,86.826,0,0,1,274.018,87.3l1.477.837a7.331,7.331,0,0,1-3.587,7.32c-1.009.562-2.319,1.092-2.449,2.241s1.113,2,1.815,2.969a3.743,3.743,0,0,1,.12,4.159c-.452.7-1.139,1.232-1.56,1.955a3.728,3.728,0,0,0-.14,3.208,6.4,6.4,0,0,0,2.08,2.984,6.359,6.359,0,0,1-6.806-2.865,10.092,10.092,0,0,1-.957-4.523,58.028,58.028,0,0,0-1.679-10.476A2.756,2.756,0,0,1,262.258,93.326Z" transform="translate(-192.788 -59.093)" fill="#171f2e"/><path d="M237.13,86.346a14.376,14.376,0,0,0,3.239,3.12,4.9,4.9,0,0,0,4.31.608c-.348-.385-.7-.769-1.04-1.159a21.644,21.644,0,0,0,8.272,3.421c-1.861-2.262-3.78-4.57-6.322-6.031s-5.875-1.908-8.355-.354" transform="translate(-156.133 -57.978)" fill="#171f2e"/><path d="M264.7,112.9l7.924,6.156c-.91.993-.556,3.52.338,4.523s2.08,1.861,2.428,3.161c.385,1.419-.369,2.891-.39,4.362-.031,2.08,1.367,3.868,2.449,5.646s1.861,4.159.655,5.859c-1.357,1.913-4.43,1.638-6.286.208s-2.917-3.639-4.295-5.532-3.53-3.343-5.865-3.12A44.842,44.842,0,0,1,264.7,112.9Z" transform="translate(-195.576 -71.383)" fill="#171f2e"/><path d="M271.517,120.3c.047-.088-.421-.426-1.222-1.071a15.867,15.867,0,0,1-2.995-3.036,9.961,9.961,0,0,1-1.336-2.542,8.017,8.017,0,0,1-.468-3.182,7.154,7.154,0,0,1,1.087-3.317,11.035,11.035,0,0,1,2.636-2.839,31.978,31.978,0,0,1,6.9-3.593,24.894,24.894,0,0,0,5.813-3.192A10.6,10.6,0,0,0,284.9,94.12c.484-.962.561-1.56.489-1.56a11.334,11.334,0,0,0-.936,1.3,12.265,12.265,0,0,1-3.078,2.912,27.69,27.69,0,0,1-5.724,2.771c-1.133.452-2.345.92-3.582,1.492a18.92,18.92,0,0,0-3.7,2.2,12.067,12.067,0,0,0-2.938,3.218,8.267,8.267,0,0,0-1.2,3.946,8.933,8.933,0,0,0,.665,3.639,10.3,10.3,0,0,0,1.633,2.73,12.789,12.789,0,0,0,3.452,2.886C270.92,120.189,271.486,120.37,271.517,120.3Z" transform="translate(-203.717 -61.618)" fill="#171f2e"/><path d="M267.527,98.814a3.361,3.361,0,0,0,.692-.224c.437-.161,1.04-.406,1.835-.728a23.3,23.3,0,0,0,5.662-3.223,11.475,11.475,0,0,0,3.759-5.282,7.466,7.466,0,0,0,.369-1.95,4.828,4.828,0,0,0,0-.52.7.7,0,0,0,0-.187,12.406,12.406,0,0,1-.52,2.6,11.959,11.959,0,0,1-3.754,5.132A25.86,25.86,0,0,1,270,97.691l-1.8.8A4.052,4.052,0,0,0,267.527,98.814Z" transform="translate(-199.876 -58.805)" fill="#455a64"/><path d="M266.58,108.62a9.088,9.088,0,0,1-.213-.894,4.424,4.424,0,0,1,.421-2.428,6.921,6.921,0,0,1,2.4-2.766c1.139-.827,2.553-1.482,3.967-2.329a14.256,14.256,0,0,0,3.546-2.984,14.643,14.643,0,0,0,2.08-3.177,12.878,12.878,0,0,0,.868-2.4c.083-.291.114-.52.146-.676a.7.7,0,0,0,.031-.239,8.292,8.292,0,0,0-.276.889,15.077,15.077,0,0,1-.941,2.34,14.922,14.922,0,0,1-2.08,3.12A14.293,14.293,0,0,1,273.037,100c-1.393.832-2.818,1.5-3.972,2.355a7,7,0,0,0-2.433,2.891,4.373,4.373,0,0,0-.348,2.522,2.853,2.853,0,0,0,.2.665C266.533,108.548,266.569,108.626,266.58,108.62Z" transform="translate(-199.179 -60.74)" fill="#455a64"/><path d="M237.263,99.574a.147.147,0,0,0-.047-.083,2.124,2.124,0,0,0-.172-.229,2.345,2.345,0,0,0-.884-.655,5.272,5.272,0,0,0-1.716-.3c-.671-.036-1.44-.088-2.288-.088a12.391,12.391,0,0,1-2.73-.255,6.723,6.723,0,0,1-2.74-1.44,12.056,12.056,0,0,1-2.236-2.652,35.44,35.44,0,0,1-1.783-3.307,27.261,27.261,0,0,0-1.872-3.3,10.113,10.113,0,0,0-2.454-2.558,10.253,10.253,0,0,0-5.641-1.841,9.655,9.655,0,0,0-3.951.7l-.582.255-.4.229a2.342,2.342,0,0,0-.328.2,1.866,1.866,0,0,0,.348-.156l.416-.2.582-.229a9.967,9.967,0,0,1,3.91-.6,10.206,10.206,0,0,1,5.5,1.851,9.878,9.878,0,0,1,2.381,2.506,26.916,26.916,0,0,1,1.835,3.249,35.577,35.577,0,0,0,1.8,3.333,12.114,12.114,0,0,0,2.3,2.693,6.9,6.9,0,0,0,2.849,1.471,12.307,12.307,0,0,0,2.782.229c.847,0,1.607,0,2.282.047a5.2,5.2,0,0,1,1.679.244,2.345,2.345,0,0,1,.884.593A3.253,3.253,0,0,0,237.263,99.574Z" transform="translate(-126.048 -56.966)" fill="#455a64"/><path d="M189.836,81.687c3.12-7.877,7.279-15.6,7.851-21.467l6.213.25c-.13,2.272-.946,21.182-5.35,28.658s-19.107,24.956-19.107,24.956l-5.173-13.3S186.712,89.569,189.836,81.687Z" transform="translate(-75.44 -46.093)" fill="#fbc0a5"/><path d="M176.82,36.7h2.719s-.265,1.6-1.5,1.69-.993-.192-.993-.192l.276.255,1.695.333s-.083,1.321-1.2,1.529l-1.648-1.529Z" transform="translate(-52.067 -34.801)" fill="#fbc0a5"/><path d="M175.53,34.707a10.652,10.652,0,0,0,.276,1.924l2.485,2.048.634-3.016a.925.925,0,0,1,.853-.738l1.128-.073s-.437-1.56.983-1.43c0,0,.78-.213,1.409,2.4.686,2.854,3.639,9.561,3.385,11.8l-6.3.255c.068-2.08-1.648-4.3-2.5-5.256a2.251,2.251,0,0,1-.52-1,3.15,3.15,0,0,0-.707-1.383c-.78-.863-2.418-2.418-2.418-2.418V33.07S175.29,32.732,175.53,34.707Zm5.054,4.586,1.295.588-.218-1.321-1.076-.1Z" transform="translate(-58.222 -33.048)" fill="#fbc0a5"/><path d="M179.77,40.234a2.424,2.424,0,0,0-.062-.556c-.062-.359-.151-.868-.27-1.5L179,35.96a8.964,8.964,0,0,1-.213-1.295c0-.421.156-.9.608-.931a1.124,1.124,0,0,1,1,.65,3.122,3.122,0,0,1,.25.6l.2.619.676,2.152c.2.614.39,1.1.52,1.435a2,2,0,0,0,.255.52,2.184,2.184,0,0,0-.156-.52c-.109-.343-.27-.837-.447-1.451s-.39-1.373-.619-2.173c-.068-.208-.13-.416-.2-.629a3.121,3.121,0,0,0-.265-.655,2.033,2.033,0,0,0-.489-.572,1.04,1.04,0,0,0-.785-.213,1.165,1.165,0,0,0-.4.14.9.9,0,0,0-.281.317,1.56,1.56,0,0,0-.156.749,8.674,8.674,0,0,0,.234,1.336l.52,2.21c.14.624.26,1.133.354,1.482A2.016,2.016,0,0,0,179.77,40.234Z" transform="translate(-56.046 -33.261)" fill="#a26a51"/><path d="M184.88,42.574a10.476,10.476,0,0,0,.078-1.529c0-.208.031-.406.047-.588a.556.556,0,0,1,.12-.38c.177-.13.39-.13.38-.177s-.047-.036-.13-.047a.582.582,0,0,0-.364.068.671.671,0,0,0-.25.52,4.237,4.237,0,0,0-.073.608A2.927,2.927,0,0,0,184.88,42.574Z" transform="translate(-62.446 -36.313)" fill="#a26a51"/><path d="M183.26,42.856a3.519,3.519,0,0,0,.52.52,6.7,6.7,0,0,0,1.456.983,5.074,5.074,0,0,0,1.731.411,1.913,1.913,0,0,0,.733,0,2.215,2.215,0,0,0-.707-.172,6.7,6.7,0,0,1-1.643-.468,9.749,9.749,0,0,1-1.477-.884C183.52,42.976,183.286,42.825,183.26,42.856Z" transform="translate(-63.914 -37.755)" fill="#a26a51"/><path d="M338.26,146.435s-7-.208-11.189-1.456-20.277-5.074-20.277-5.074l-25.814-4.3-.52,6.676s23.984,7.014,28.642,8.61,25.949,8.9,29.973,7.976l2.5-5.132Z" transform="translate(-268.322 -82.281)" fill="#fbc0a5"/><path d="M395.938,119.7a10.376,10.376,0,0,1,2.511.858,1.4,1.4,0,0,1-.042-1.726l2.87,1.409a29.641,29.641,0,0,0,2.4,2.178,32.531,32.531,0,0,1,3.639,3.957l1.716,1.6-1.066,6.317a5.262,5.262,0,0,1-2.215-.291,9.211,9.211,0,0,1-2.189-2.08l-2.449-.208a1.409,1.409,0,0,1-.78-.307,2.048,2.048,0,0,1-.608-1.674c-1.56-.884-.65-2.007-.65-2.007a1.934,1.934,0,0,1-1.258-.691,1.17,1.17,0,0,1,.078-1.373c.291-.52,2.537-.359,2.537-.359l.12-.66s-3.431-2.724-4.2-3.317S395.543,119.787,395.938,119.7Z" transform="translate(-395.69 -74.23)" fill="#fbc0a5"/><path d="M404,122a3.639,3.639,0,0,0,1.04,1.258,13,13,0,0,1,1.253,1.227,5.2,5.2,0,0,1,.92,1.893,10.274,10.274,0,0,0,.77,2.08,7.154,7.154,0,0,0,1.04,1.466,6.709,6.709,0,0,0,.9.806,1.29,1.29,0,0,0,.38.224c.031-.036-.489-.4-1.139-1.159a7.623,7.623,0,0,1-.962-1.451,11.115,11.115,0,0,1-.738-2.017,5.2,5.2,0,0,0-.983-1.976,11.1,11.1,0,0,0-1.321-1.211A13.418,13.418,0,0,1,404,122Z" transform="translate(-401.28 -75.752)" fill="#a26a51"/><path d="M404.75,138.107a3.733,3.733,0,0,0,1.144.52,5.756,5.756,0,0,0,1.362.281,5.52,5.52,0,0,0,.827,0,1.8,1.8,0,0,0,.879-.3,1.04,1.04,0,0,0,.437-.853,1.289,1.289,0,0,0-.458-.759,1.559,1.559,0,0,0-.676-.38c-.229-.062-.437-.109-.629-.146a3.567,3.567,0,0,0-1.258-.146c0,.031.468.125,1.217.328l.6.177a1.352,1.352,0,0,1,.572.348,1.118,1.118,0,0,1,.364.593.754.754,0,0,1-.333.619,2.646,2.646,0,0,1-1.529.281,6.346,6.346,0,0,1-1.321-.218C405.208,138.257,404.766,138.065,404.75,138.107Z" transform="translate(-400.769 -82.625)" fill="#a26a51"/><path d="M408.653,133.741a2.132,2.132,0,0,0,.884.265,5.2,5.2,0,0,0,1,.073,1.513,1.513,0,0,0,1.2-.458,1.191,1.191,0,0,0,.052-1.289,1.716,1.716,0,0,0-.764-.707,1.882,1.882,0,0,0-.894-.255c0,.042.328.146.8.421a1.644,1.644,0,0,1,.634.655.957.957,0,0,1-.036,1,1.352,1.352,0,0,1-1,.38,7.383,7.383,0,0,1-.972,0A6.065,6.065,0,0,0,408.653,133.741Z" transform="translate(-405.353 -80.25)" fill="#a26a51"/><path d="M405.468,142.288a2.323,2.323,0,0,0,.723.224,6.057,6.057,0,0,0,1.82.218.7.7,0,0,0,.556-.234.806.806,0,0,0,.161-.52,1.04,1.04,0,0,0-.437-.769c-.458-.276-.79-.1-.77-.083a1.44,1.44,0,0,1,.655.239.858.858,0,0,1,.3.624.582.582,0,0,1-.114.359.442.442,0,0,1-.369.135,8.978,8.978,0,0,1-1.768-.135A2.007,2.007,0,0,0,405.468,142.288Z" transform="translate(-400.474 -84.898)" fill="#a26a51"/><path d="M239.01,196.745a2.081,2.081,0,0,0,.489.281,8.7,8.7,0,0,0,1.43.52,10.835,10.835,0,0,0,5.033.25,10.586,10.586,0,0,0,4.581-2.08,8.894,8.894,0,0,0,1.118-1.04,2.236,2.236,0,0,0,.343-.447c-.042-.036-.551.582-1.56,1.341a11.2,11.2,0,0,1-4.518,1.981A11.381,11.381,0,0,1,241,197.39C239.754,197.073,239.041,196.709,239.01,196.745Z" transform="translate(-157.202 -110.427)" fill="#1d428a"/><path d="M248.554,149.531S232.1,144.27,231.49,144.1s-15.124,1.128-15.124,1.128.613,9.613-3.026,12.728h0l10.674,3.847,3.364,9.26s1.877,3.775.385,7.315c-2.823,6.7-7.721,17.277-7,18.488.078.125.52-3.639,7.482-5.636a22.927,22.927,0,0,1,9.411.094c14.922,3.005,20.682,9.878,22.357,11.079,0,0-3.073-24.109-1.622-27.873s2.99-6.239,1.794-9.572-2.99-8.719-2.99-8.719l5.88-6.655-8.215-13.658-7.518,6.239Z" transform="translate(-154.929 -82.44)" fill="#1d428a"/><path d="M233.846,196.692a2.214,2.214,0,0,0,.567,0,8.836,8.836,0,0,0,1.534-.2,9.493,9.493,0,0,0,4.482-2.355,8.911,8.911,0,0,0,2.532-4.378,8.094,8.094,0,0,0,.208-1.56,1.985,1.985,0,0,0-.031-.562,17.982,17.982,0,0,1-.364,2.048,9.26,9.26,0,0,1-2.532,4.232,9.91,9.91,0,0,1-4.341,2.36A10.753,10.753,0,0,1,233.846,196.692Z" transform="translate(-145.69 -107.265)" fill="#263238"/><path d="M223.323,165.85a5.511,5.511,0,0,0-1.144,2.834,5.589,5.589,0,0,0,.27,3.047,10.225,10.225,0,0,1,.873-5.88Z" transform="translate(-119.72 -96.804)" fill="#263238"/><path d="M283.13,171.33c0,.042.338.276.837.759a7.061,7.061,0,0,1,1.534,2.189,6.759,6.759,0,0,1,.582,2.6,5.01,5.01,0,0,0,0,1.128,2.814,2.814,0,0,0,.213-1.128,6.063,6.063,0,0,0-.52-2.719,6.271,6.271,0,0,0-1.648-2.225,2.911,2.911,0,0,0-1-.6Z" transform="translate(-214.44 -99.434)" fill="#263238"/><g transform="translate(85.255 84.27)" opacity="0.3"><path d="M241.006,199.929a7.549,7.549,0,0,0,4.118-2.329,8.516,8.516,0,0,0,1.783-2.47c.374,1.633-1.9,4.529-4.113,5.594a7.976,7.976,0,0,1-7.133-.2A26.723,26.723,0,0,0,241.006,199.929Z" transform="translate(-235.662 -195.13)"/></g><path d="M221.02,225.792c0,.031.432-.3,1.284-.681a9.785,9.785,0,0,1,3.842-.8,14.257,14.257,0,0,1,5.719,1.159,37,37,0,0,1,6.239,3.577,66.175,66.175,0,0,0,11.5,6.379c1.56.66,2.828,1.133,3.717,1.44.442.161.79.27,1.04.343a1.8,1.8,0,0,0,.364.1,1.724,1.724,0,0,0-.348-.151l-1.009-.39c-.879-.338-2.142-.832-3.676-1.518a70.326,70.326,0,0,1-11.438-6.426,35.967,35.967,0,0,0-6.3-3.587,14.252,14.252,0,0,0-5.818-1.118,9.515,9.515,0,0,0-3.884.9A5.9,5.9,0,0,0,221.02,225.792Z" transform="translate(-150.567 -124.775)" fill="#fff"/><path d="M222.54,208.94a9.7,9.7,0,0,1,.988-.769,6.925,6.925,0,0,1,3.208-1.009,11,11,0,0,1,4.918.9,58.918,58.918,0,0,1,5.568,2.776,53.93,53.93,0,0,0,5.631,2.714,21.369,21.369,0,0,0,4.939,1.321,14.124,14.124,0,0,0,3.442.057,9,9,0,0,0,.925-.151,1.443,1.443,0,0,0,.317-.083c0-.026-.447.062-1.253.13a15.6,15.6,0,0,1-3.405-.14,22.223,22.223,0,0,1-4.872-1.362,58.154,58.154,0,0,1-5.594-2.7,56.847,56.847,0,0,0-5.6-2.771,11.074,11.074,0,0,0-5.028-.863,6.759,6.759,0,0,0-3.25,1.113,3.64,3.64,0,0,0-.931.837Z" transform="translate(-149.114 -116.544)" fill="#fff"/><path d="M218.189,198.157a2.964,2.964,0,0,0,.333.27,3.432,3.432,0,0,0,.426.27,5.493,5.493,0,0,0,.588.312,8.638,8.638,0,0,0,1.638.577,10.082,10.082,0,0,0,2.111.27,10.358,10.358,0,0,0,2.121-.224,8.6,8.6,0,0,0,1.653-.52,5.875,5.875,0,0,0,.6-.291,3.031,3.031,0,0,0,.432-.26c.229-.151.348-.244.338-.26s-.52.286-1.44.634a10.188,10.188,0,0,1-1.627.463,11.189,11.189,0,0,1-2.08.182,10.841,10.841,0,0,1-2.054-.244,9.621,9.621,0,0,1-1.617-.52C218.719,198.458,218.22,198.115,218.189,198.157Z" transform="translate(-122.801 -112.312)" fill="#fff"/><path d="M235.6,194.221a1.041,1.041,0,0,0,.2.177,4.514,4.514,0,0,0,.655.411,7.175,7.175,0,0,0,2.724.785,12.391,12.391,0,0,0,4.185-.385c1.56-.374,3.177-.983,4.918-1.477a22.424,22.424,0,0,1,9.182-.593,23.048,23.048,0,0,1,2.761.567c.64.172.993.281,1,.26s-.078-.047-.244-.109-.406-.156-.728-.25a19.235,19.235,0,0,0-2.756-.655,21.628,21.628,0,0,0-9.286.52c-1.757.52-3.379,1.113-4.9,1.492a12.541,12.541,0,0,1-4.113.437,7.565,7.565,0,0,1-2.693-.686C235.906,194.429,235.615,194.2,235.6,194.221Z" transform="translate(-164.653 -109.681)" fill="#fff"/><path d="M222.4,177.977a1.558,1.558,0,0,0,.333.052c.218,0,.52.062.962.094a18.378,18.378,0,0,0,3.53-.255c1.477-.239,3.2-.676,5.106-1.191a38.537,38.537,0,0,1,6.239-1.3,16.463,16.463,0,0,1,1.669-.052c.276,0,.546,0,.816.026l.8.094a14.681,14.681,0,0,1,2.969.744c1.851.655,3.468,1.409,4.887,1.887a13.118,13.118,0,0,0,3.452.759,5.372,5.372,0,0,0,.962,0,1.424,1.424,0,0,0,.338-.031,2.188,2.188,0,0,0-.338,0,7.333,7.333,0,0,1-.951-.057,13.94,13.94,0,0,1-3.4-.837c-1.4-.494-3-1.263-4.866-1.939a14.925,14.925,0,0,0-3.01-.775l-.816-.1h-.832a16.867,16.867,0,0,0-1.695.052,37.73,37.73,0,0,0-6.291,1.326c-1.9.52-3.608.988-5.074,1.248a19.759,19.759,0,0,1-3.494.333l-.957-.036A1.424,1.424,0,0,0,222.4,177.977Z" transform="translate(-151.022 -101.241)" fill="#fff"/><path d="M292.8,153.81c-.047.026.484.785.983,2.163a11.125,11.125,0,0,1,.52,5.62,11.365,11.365,0,0,1-2.35,5.132c-.925,1.139-1.669,1.69-1.633,1.731a2.751,2.751,0,0,0,.52-.374,10.014,10.014,0,0,0,1.253-1.237,10.991,10.991,0,0,0,2.475-5.2,10.814,10.814,0,0,0-.593-5.719,9.88,9.88,0,0,0-.785-1.56A2.891,2.891,0,0,0,292.8,153.81Z" transform="translate(-226.586 -91.023)" fill="#fff"/><path d="M221.45,152.749a1.373,1.373,0,0,0,.458.1,11.558,11.558,0,0,0,1.284.14,6.758,6.758,0,0,0,1.919-.151,4.19,4.19,0,0,0,2.08-1.17c.6-.593,1.04-1.237,1.523-1.773a5.848,5.848,0,0,1,1.4-1.217,3.64,3.64,0,0,1,1.627-.478,1.04,1.04,0,0,0-.473-.052,2.886,2.886,0,0,0-1.248.364,5.475,5.475,0,0,0-1.5,1.222c-.484.52-.946,1.175-1.523,1.742a4.123,4.123,0,0,1-1.929,1.123,7.18,7.18,0,0,1-1.851.2A9.386,9.386,0,0,0,221.45,152.749Z" transform="translate(-127.814 -88.304)" fill="#fff"/></g></svg>