<?xml version="1.0" encoding="utf-8"?>
<!-- Generator: Adobe Illustrator 25.0.1, SVG Export Plug-In . SVG Version: 6.00 Build 0)  -->
<svg version="1.1" id="Capa_1" xmlns="http://www.w3.org/2000/svg" xmlns:xlink="http://www.w3.org/1999/xlink" x="0px" y="0px"
	 viewBox="0 0 200.3 200" style="enable-background:new 0 0 200.3 200;" xml:space="preserve">
<style type="text/css">
	.st0{fill:#FFFFFF;}
	.st1{fill:#1D428A;}
	.st2{fill:#BECD2E;}
</style>
<g>
	<g>
		<g>
			<circle class="st0" cx="100.2" cy="100" r="98.6"/>
		</g>
	</g>
	<g>
		<g>
			<g>
				<path class="st1" d="M180.7,63.1c-14-30.5-44.8-51.7-80.6-51.7S33.6,32.6,19.6,63.1H180.7z"/>
				<path class="st1" d="M19.6,136.9c14,30.5,44.8,51.7,80.6,51.7s66.6-21.2,80.6-51.7H19.6z"/>
				<path class="st1" d="M14.4,77.8c-1.2,4.8-2.1,9.8-2.5,14.8h176.5c-0.4-5.1-1.2-10-2.5-14.8H14.4z"/>
				<path class="st1" d="M186,122.2c1.2-4.8,2.1-9.8,2.5-14.8H11.9c0.4,5.1,1.2,10,2.5,14.8H186z"/>
			</g>
			<g>
				<polygon class="st2" points="32.5,156.7 100.2,11.4 168,156.7 				"/>
			</g>
		</g>
	</g>
</g>
</svg>
