<svg xmlns="http://www.w3.org/2000/svg" width="34.025" height="31.595" viewBox="0 0 34.025 31.595">
  <g id="Grupo_8960" data-name="Grupo 8960" transform="translate(53.025 -55) rotate(90)">
    <g id="Grupo_2352" data-name="Grupo 2352" transform="translate(55 19)">
      <path id="icons8-money-box-50" d="M13.367,0A6.082,6.082,0,0,0,7.291,6.076a4.129,4.129,0,0,0,.057.494A16,16,0,0,1,9.76,5.715a3.621,3.621,0,0,1,7.025-.854c.551.009,1.082.019,1.623.057.2-.294.446-.56.674-.845A6.072,6.072,0,0,0,13.367,0Zm12.1,2.43a1.111,1.111,0,0,0-.247.038A7.742,7.742,0,0,0,21.76,4.633a10.42,10.42,0,0,0-1.851,2.924,23.429,23.429,0,0,0-3.2-.266c-3.779,0-7.263.6-9.921,2.3a9.178,9.178,0,0,0-2.991,3.1,3.593,3.593,0,0,1-.532-.275,1.625,1.625,0,0,1-.835-1.481,1.456,1.456,0,0,1,.3-.826.983.983,0,0,1,.911-.389,1.215,1.215,0,0,0,1.063-.6,1.2,1.2,0,0,0,0-1.234,1.215,1.215,0,0,0-1.063-.6A3.625,3.625,0,0,0,.854,8.563,3.728,3.728,0,0,0,0,10.937,4.26,4.26,0,0,0,1.9,14.43a5.1,5.1,0,0,0,.968.484,11.459,11.459,0,0,0-.437,3.161c0,3.313,2.013,6.152,4.861,8.127V30.38A1.211,1.211,0,0,0,8.506,31.6h4.861a1.211,1.211,0,0,0,1.215-1.215V28.937a17.636,17.636,0,0,0,2.278.228,19.026,19.026,0,0,0,2.582-.266V30.38A1.224,1.224,0,0,0,20.658,31.6h4.861a1.211,1.211,0,0,0,1.215-1.215V26.127a11.715,11.715,0,0,0,3.7-3.646c0-.009,0-.009.009-.009a1.534,1.534,0,0,1,.351-.342,1.312,1.312,0,0,1,.8-.256H32.81a1.211,1.211,0,0,0,1.215-1.215V15.8a1.211,1.211,0,0,0-1.215-1.215H31.6a1.3,1.3,0,0,1-.646-.152c-.114-.076-.142-.256-.038.047a9.49,9.49,0,0,0-4.13-4.7l-.047-6.142A1.216,1.216,0,0,0,25.472,2.43ZM24.323,5.8l.028,3.731.665-.3a1.207,1.207,0,0,0-.076,2.165,7.07,7.07,0,0,1,3.693,3.921,2.132,2.132,0,0,0,1.035,1.168,3.58,3.58,0,0,0,1.927.532v2.43a3.831,3.831,0,0,0-2.165.674,3.311,3.311,0,0,0-1.1,1.158A9.62,9.62,0,0,1,24.9,24.636a1.2,1.2,0,0,0-.6,1.035v3.494h-2.43V27.551a1.2,1.2,0,0,0-.446-.949,1.23,1.23,0,0,0-1.016-.247,16.745,16.745,0,0,1-3.551.38,15.684,15.684,0,0,1-3.247-.342,1.261,1.261,0,0,0-1.016.256,1.207,1.207,0,0,0-.446.94v1.576H9.722V25.728a1.218,1.218,0,0,0-.589-1.044c-2.687-1.642-4.272-4.025-4.272-6.608,0-3.256,1.187-5.136,3.228-6.437s5.108-1.918,8.62-1.918a22.149,22.149,0,0,1,3.608.3,1.219,1.219,0,0,0,1.358-.854,7.7,7.7,0,0,1,1.813-2.829A5.428,5.428,0,0,1,24.323,5.8Zm1.2,8.782A1.215,1.215,0,1,0,26.734,15.8,1.218,1.218,0,0,0,25.519,14.582Z" transform="translate(0 34.026) rotate(-90)" fill="#5b9faa"/>
    </g>
  </g>
</svg>
