<svg id="Grupo_9273" data-name="Grupo 9273" xmlns="http://www.w3.org/2000/svg" xmlns:xlink="http://www.w3.org/1999/xlink" width="75.851" height="19.255" viewBox="0 0 75.851 19.255">
  <defs>
    <clipPath id="clip-path">
      <rect id="Rect치ngulo_4204" data-name="Rect치ngulo 4204" width="75.851" height="19.255" fill="none"/>
    </clipPath>
  </defs>
  <g id="Grupo_9273-2" data-name="Grupo 9273" clip-path="url(#clip-path)">
    <path id="Trazado_11086" data-name="Trazado 11086" d="M88.278,18.481h2.164V30.227H88.278v-.99a3.247,3.247,0,0,1-2.719,1.225,3.82,3.82,0,0,1-2.895-1.283,4.725,4.725,0,0,1,0-6.292A3.819,3.819,0,0,1,85.559,21.6a3.248,3.248,0,0,1,2.719,1.225Zm-3.985,9.254a2.263,2.263,0,0,0,1.67.663,2.234,2.234,0,0,0,1.661-.663,2.543,2.543,0,0,0,0-3.406,2.235,2.235,0,0,0-1.661-.663,2.264,2.264,0,0,0-1.67.663,2.519,2.519,0,0,0,0,3.406" transform="translate(-63.89 -14.494)" fill="#fff"/>
    <path id="Trazado_11087" data-name="Trazado 11087" d="M131.635,19.672a1.347,1.347,0,0,1-1.326-1.326,1.3,1.3,0,0,1,.394-.94,1.26,1.26,0,0,1,.931-.4,1.279,1.279,0,0,1,.948.4,1.3,1.3,0,0,1,.394.94,1.274,1.274,0,0,1-.394.931,1.292,1.292,0,0,1-.948.394m-1.074,1.007h2.165v8.39h-2.165Z" transform="translate(-102.196 -13.336)" fill="#fff"/>
    <path id="Trazado_11088" data-name="Trazado 11088" d="M154.573,32.948a3.038,3.038,0,0,1,2.273.923,3.5,3.5,0,0,1,.9,2.55v5.151H155.58V36.69a1.719,1.719,0,0,0-.453-1.284,1.65,1.65,0,0,0-1.208-.445,1.782,1.782,0,0,0-1.342.52,2.163,2.163,0,0,0-.5,1.56v4.531h-2.165v-8.39h2.165v.94a2.8,2.8,0,0,1,2.5-1.174" transform="translate(-117.567 -25.84)" fill="#fff"/>
    <path id="Trazado_11089" data-name="Trazado 11089" d="M194.25,38.267a2.15,2.15,0,0,0,2.366,1.577,2.214,2.214,0,0,0,1.879-.839l1.745,1.007a4.161,4.161,0,0,1-3.658,1.8,4.513,4.513,0,0,1-3.339-1.258,4.427,4.427,0,0,1,3.171-7.6,4,4,0,0,1,3.045,1.275,4.428,4.428,0,0,1,1.2,3.154,5.074,5.074,0,0,1-.084.89H194.25m-.034-1.678H198.5a2.029,2.029,0,0,0-.764-1.275,2.19,2.19,0,0,0-1.317-.419,2.275,2.275,0,0,0-1.443.445,2.123,2.123,0,0,0-.755,1.25" transform="translate(-150.566 -25.84)" fill="#fff"/>
    <rect id="Rect치ngulo_4203" data-name="Rect치ngulo 4203" width="2.165" height="12.249" transform="translate(51.436 3.484)" fill="#fff"/>
    <path id="Trazado_11090" data-name="Trazado 11090" d="M259.257,41.808a4.43,4.43,0,1,1,0-8.86,4.35,4.35,0,0,1,2.231.587,3.911,3.911,0,0,1,1.527,1.577L261.153,36.2a1.9,1.9,0,0,0-.763-.822,2.221,2.221,0,0,0-1.149-.3,2.17,2.17,0,0,0-1.611.646,2.441,2.441,0,0,0,0,3.289,2.169,2.169,0,0,0,1.611.646,2.3,2.3,0,0,0,1.166-.294,1.846,1.846,0,0,0,.763-.814l1.879,1.074a4.2,4.2,0,0,1-1.561,1.586,4.3,4.3,0,0,1-2.231.6" transform="translate(-199.85 -25.84)" fill="#fff"/>
    <path id="Trazado_11091" data-name="Trazado 11091" d="M302.388,40.524a4.477,4.477,0,1,1,1.292-3.146,4.306,4.306,0,0,1-1.292,3.146m-4.774-1.485a2.181,2.181,0,0,0,1.619.654,2.21,2.21,0,0,0,1.628-.654,2.436,2.436,0,0,0,0-3.322,2.21,2.21,0,0,0-1.628-.654,2.181,2.181,0,0,0-1.619.654,2.459,2.459,0,0,0,0,3.322" transform="translate(-231.203 -25.84)" fill="#fff"/>
    <path id="Trazado_11092" data-name="Trazado 11092" d="M340.792,63.147a1.419,1.419,0,1,1,.419-1.007,1.376,1.376,0,0,1-.419,1.007" transform="translate(-265.361 -47.615)" fill="#fff"/>
    <path id="Trazado_11093" data-name="Trazado 11093" d="M7.952,19.255a7.968,7.968,0,0,1-5.509-2.2A7.856,7.856,0,0,1,7.869,3.516V5.682a5.683,5.683,0,0,0-3.934,9.8,5.81,5.81,0,0,0,4.017,1.6,5.632,5.632,0,0,0,5.625-5.625v-9.3h-1.7a.926.926,0,0,0-.926.927l.009,8.3a3.1,3.1,0,0,1-.973,2.251A3.086,3.086,0,0,1,5.623,9.277,3.1,3.1,0,0,1,7.872,8.3v2.167a.92.92,0,0,0-.918.98.929.929,0,0,0,.857.857.92.92,0,0,0,.98-.918L8.782,3.1A3.093,3.093,0,0,1,11.875,0h3.869V11.463a7.8,7.8,0,0,1-7.792,7.792" transform="translate(0 0)" fill="#fff"/>
  </g>
</svg>
