<svg xmlns="http://www.w3.org/2000/svg" width="49.196" height="15.888" viewBox="0 0 49.196 15.888">
  <path id="Trazado_3136" data-name="Trazado 3136" d="M750.939,729.161,744.5,744.528h-4.2l-3.17-12.263a1.684,1.684,0,0,0-.945-1.35,16.639,16.639,0,0,0-3.922-1.307l.094-.447h6.764a1.852,1.852,0,0,1,1.833,1.567l1.674,8.892,4.137-10.459h4.176Zm16.465,10.35c.017-4.056-5.608-4.279-5.57-6.091.012-.551.537-1.138,1.686-1.287a7.5,7.5,0,0,1,3.919.688l.7-3.259a10.678,10.678,0,0,0-3.718-.681c-3.929,0-6.694,2.089-6.718,5.08-.025,2.212,1.974,3.447,3.48,4.182,1.549.753,2.069,1.237,2.063,1.91-.011,1.031-1.236,1.486-2.38,1.5a8.325,8.325,0,0,1-4.082-.97l-.721,3.367a12.057,12.057,0,0,0,4.421.817c4.176,0,6.908-2.063,6.921-5.258m10.376,5.017h3.677l-3.209-15.367h-3.393a1.809,1.809,0,0,0-1.692,1.127l-5.965,14.24h4.174l.829-2.3h5.1Zm-4.435-5.445,2.092-5.77,1.2,5.77Zm-16.725-9.922-3.287,15.367h-3.975l3.288-15.367Z" transform="translate(-732.26 -728.88)" fill="#fff"/>
</svg>
