<svg xmlns="http://www.w3.org/2000/svg" width="30.943" height="29.001" viewBox="0 0 30.943 29.001">
  <path id="icons8-merchant_account" d="M13.409,0,1.108,6.148A2.055,2.055,0,0,0,0,8.022v2.413H2.063V22.812H0v2.063H12.377v1.031A3.11,3.11,0,0,0,15.472,29H27.849a3.11,3.11,0,0,0,3.094-3.094V17.655a3.11,3.11,0,0,0-3.094-3.094H24.754V10.435h2.063V8.022a2.055,2.055,0,0,0-1.108-1.874Zm0,2.3L24.742,7.973a.09.09,0,0,1,.012.048v.351H2.063V8.022a.111.111,0,0,1,.012-.052Zm0,1.942A1.031,1.031,0,1,0,14.44,5.278,1.031,1.031,0,0,0,13.409,4.247ZM4.126,10.435H6.189V22.812H4.126Zm4.126,0H18.566v4.126H15.472a3.11,3.11,0,0,0-3.094,3.094v5.157H8.251Zm12.377,0h2.063v4.126H20.629Zm-5.157,6.189H27.849a1.018,1.018,0,0,1,1.031,1.031v8.251a1.018,1.018,0,0,1-1.031,1.031H15.472a1.018,1.018,0,0,1-1.031-1.031V17.655A1.018,1.018,0,0,1,15.472,16.624Zm7.22,2.063V20.75h4.126V18.687ZM16.5,22.812v2.063h2.063V22.812Zm4.126,0v2.063h2.063V22.812Zm4.126,0v2.063h2.063V22.812Z" fill="#1d428a"/>
</svg>
