<svg xmlns="http://www.w3.org/2000/svg" width="35.074" height="30" viewBox="0 0 35.074 30">
  <path id="icons8-love_for_money" d="M22.187,2.025c-2.623,0-3.65,1.7-3.65,3.8,0,4.284,8.769,10.227,8.769,10.227s8.769-5.845,8.769-10.227c0-2.1-1.027-3.8-3.65-3.8A5.178,5.178,0,0,0,27.306,6.7,5.237,5.237,0,0,0,22.187,2.025ZM4.758,11.983A3.763,3.763,0,0,0,1,15.741V28.267a3.763,3.763,0,0,0,3.758,3.758H32.316a3.763,3.763,0,0,0,3.758-3.758V15.741a3.733,3.733,0,0,0-1.218-2.755c-.591.626-1.2,1.22-1.81,1.766a1.229,1.229,0,0,1,.524.988V27.015a2.524,2.524,0,0,0-2.505,2.505H6.011a2.524,2.524,0,0,0-2.505-2.505V16.994a2.524,2.524,0,0,0,2.505-2.505H21.292a26.956,26.956,0,0,1-2.417-2.505Zm13.779,5.011A5.011,5.011,0,1,0,23.548,22,5.03,5.03,0,0,0,18.537,16.994ZM8.516,19.5A2.505,2.505,0,1,0,11.021,22,2.505,2.505,0,0,0,8.516,19.5Zm10.021,0A2.505,2.505,0,1,1,16.032,22,2.487,2.487,0,0,1,18.537,19.5Zm10.021,0A2.505,2.505,0,1,0,31.064,22,2.505,2.505,0,0,0,28.558,19.5Z" transform="translate(-1 -2.025)" fill="#b7b7b7"/>
</svg>
