<svg xmlns="http://www.w3.org/2000/svg" width="148.143" height="170.188" viewBox="0 0 148.143 170.188">
  <g id="Grupo_4952" data-name="Grupo 4952" transform="translate(-88 -461.168)">
    <g id="Grupo_4950" data-name="Grupo 4950" transform="translate(96.133 461.168)">
      <g id="freepik--Shield--inject-182" transform="translate(0)">
        <path id="Trazado_2106" data-name="Trazado 2106" d="M378.839,104.075l-23.35-8.385L332.4,103.965c-2.949,1.388-5.537,2.228-5.537,4.973v13.695a51.773,51.773,0,0,0,7.585,27.272,47.467,47.467,0,0,0,21.272,18.785c9.413-3.067,16.472-11.256,20.825-18.252a52.609,52.609,0,0,0,3.319-6.373,51.491,51.491,0,0,0,4.3-20.9V110.851C384.165,106.929,382.079,105.016,378.839,104.075Z" transform="translate(-326.859 -95.659)" fill="#fff"/>
        <g id="Grupo_2984" data-name="Grupo 2984" transform="translate(0 0.063)">
          <path id="Trazado_2107" data-name="Trazado 2107" d="M355.716,160.751a37.648,37.648,0,0,1-16.824-14.981,40.959,40.959,0,0,1-6.035-21.566v-9.568c0-2.181,1.318-4.22,3.922-5.436l18.715-7V95.749l-23.1,8.242c-2.423,1.059-5.537,2.228-5.537,4.973v13.7a51.771,51.771,0,0,0,7.585,27.272,47.467,47.467,0,0,0,21.272,18.785Z" transform="translate(-326.859 -95.749)" fill="#151515"/>
        </g>
        <g id="Grupo_2985" data-name="Grupo 2985" transform="translate(28.622)">
          <path id="Trazado_2108" data-name="Trazado 2108" d="M380.714,168.639a28.349,28.349,0,0,0,4.588-1.961,41.338,41.338,0,0,0,9.742-7.64,52.207,52.207,0,0,0,6.754-9.075,49.8,49.8,0,0,0,7.365-27.539v-11.3c0-5.632-2.9-6.047-5.333-7.107l-23.351-8.384v6.455l18.934,7.115c2.6,1.216,3.922,3.255,3.922,5.428v9.608a40.932,40.932,0,0,1-6.032,21.555,36.866,36.866,0,0,1-16.6,14.9Z" transform="translate(-380.479 -95.631)" fill="#151515"/>
        </g>
        <path id="Trazado_2109" data-name="Trazado 2109" d="M378.991,141v-1.851a6.063,6.063,0,0,0-12.126,0v1.883a3.388,3.388,0,0,0-2.886,3.349v10.9a3.388,3.388,0,0,0,3.389,3.388h11.357a3.388,3.388,0,0,0,3.388-3.388h0v-10.9A3.389,3.389,0,0,0,378.991,141Zm-4.416,11.561H371.61l.462-2.141a1.8,1.8,0,1,1,1.961,0C374.237,151.222,374.574,152.564,374.574,152.564Zm3.137-11.577h-9.54v-1.836a4.761,4.761,0,0,1,9.513,0Z" transform="translate(-344.164 -113.096)" fill="#151515" style="isolation: isolate"/>
        <path id="Trazado_2110" data-name="Trazado 2110" d="M344.71,136.9a7.073,7.073,0,0,1-.353-1.9,32.244,32.244,0,0,1-.188-4.651,25.334,25.334,0,0,1,.164-2.557,5.485,5.485,0,0,1,.522-2.063,2.3,2.3,0,0,1,1.02-1.028c.321-.149.518-.141.518-.117a2.61,2.61,0,0,0-1.279,1.268,5.751,5.751,0,0,0-.408,1.968c-.063.785-.11,1.641-.133,2.541-.055,1.8,0,3.431.071,4.612A12.281,12.281,0,0,1,344.71,136.9Z" transform="translate(-334.922 -109.122)" fill="#fff"/>
        <path id="Trazado_2111" data-name="Trazado 2111" d="M345.631,156.616c-.11,0-.211-.556-.224-1.255s.07-1.263.18-1.263.212.557.224,1.255S345.749,156.616,345.631,156.616Z" transform="translate(-335.505 -122.888)" fill="#fff"/>
      </g>
    </g>
    <g id="Grupo_4951" data-name="Grupo 4951" transform="translate(88 509.802)">
      <g id="Grupo_4912" data-name="Grupo 4912" transform="translate(0 0)">
        <g id="Grupo_3932" data-name="Grupo 3932" transform="translate(3.32 11.54)">
          <g id="Grupo_4902" data-name="Grupo 4902" transform="translate(0 0)">
            <path id="Trazado_3108" data-name="Trazado 3108" d="M1177.965,313.48l-3.7.013a39.2,39.2,0,0,0,1.032,8.642q.493,2.115,1.185,4.169c.462,1.367.992,2.707,1.571,4.022a58.688,58.688,0,0,0,9.212,14.4,61.735,61.735,0,0,0,12.777,11.333c1.2.785,2.443,1.525,3.729,2.2a33.465,33.465,0,0,0,4,1.8,22.168,22.168,0,0,0,4.368,1.17,14.052,14.052,0,0,0,2.37.174,10.643,10.643,0,0,0,2.5-.319.926.926,0,0,0,.442-.277,1.176,1.176,0,0,0,.248-.512,2.158,2.158,0,0,0-.187-1.329,3.872,3.872,0,0,0-.746-1.112c-.253-.256-.492-.4-.69-.344a8.563,8.563,0,0,1-3.379.067,18.533,18.533,0,0,1-3.638-.982,35.8,35.8,0,0,1-6.99-3.633,58.119,58.119,0,0,1-12-10.649,55.031,55.031,0,0,1-8.633-13.485A38.5,38.5,0,0,1,1177.965,313.48Z" transform="translate(-1173.665 -312.873)" fill="#fff"/>
            <path id="Trazado_4903" data-name="Trazado 4903" d="M1214.214,361.868a14.722,14.722,0,0,1-2.312-.183,22.828,22.828,0,0,1-4.487-1.2,34.314,34.314,0,0,1-4.07-1.833c-1.242-.653-2.512-1.4-3.774-2.229a62.369,62.369,0,0,1-12.9-11.446,59.275,59.275,0,0,1-9.3-14.549c-.612-1.388-1.147-2.76-1.592-4.075-.468-1.387-.872-2.81-1.2-4.225a39.784,39.784,0,0,1-1.044-8.774l-.005-.607,4.9-.017.01.6a37.717,37.717,0,0,0,3.418,15.113,54.345,54.345,0,0,0,8.54,13.338,57.514,57.514,0,0,0,11.877,10.543,35.222,35.222,0,0,0,6.871,3.573,17.962,17.962,0,0,0,3.518.949,7.955,7.955,0,0,0,3.151-.06c.573-.17,1.083.34,1.25.509a4.49,4.49,0,0,1,.87,1.292,2.751,2.751,0,0,1,.23,1.681,1.792,1.792,0,0,1-.38.794,1.55,1.55,0,0,1-.739.469,11.255,11.255,0,0,1-2.657.342Zm-39.477-47.919a38.587,38.587,0,0,0,1.007,7.906c.322,1.38.714,2.76,1.17,4.113.435,1.284.955,2.621,1.551,3.972a58.01,58.01,0,0,0,9.115,14.252,61.149,61.149,0,0,0,12.655,11.226c1.226.8,2.461,1.532,3.674,2.169a33.117,33.117,0,0,0,3.931,1.772,21.651,21.651,0,0,0,4.251,1.139,13.4,13.4,0,0,0,2.269.167,10,10,0,0,0,2.357-.3.321.321,0,0,0,.137-.092.55.55,0,0,0,.108-.233,1.544,1.544,0,0,0-.138-.938,3.319,3.319,0,0,0-.641-.96,1.088,1.088,0,0,0-.189-.16,9.157,9.157,0,0,1-3.552.059,19.03,19.03,0,0,1-3.747-1.013,36.446,36.446,0,0,1-7.11-3.7,58.693,58.693,0,0,1-12.121-10.758,55.549,55.549,0,0,1-8.726-13.628,38.886,38.886,0,0,1-3.512-15Zm41.363,44.006-.04.008a.19.19,0,0,0,.04-.012Z" transform="translate(-1173.52 -312.727)" fill="#161615"/>
          </g>
          <g id="Grupo_4903" data-name="Grupo 4903" transform="translate(1.444 8.047)">
            <path id="Trazado_3112" data-name="Trazado 3112" d="M1178.267,323.755a7.509,7.509,0,0,1-2.641.544c.036.149.075.291.108.437a8.587,8.587,0,0,0,2.83-.662,4.889,4.889,0,0,0,.721-.373c-.046-.167-.081-.336-.119-.5A2.535,2.535,0,0,1,1178.267,323.755Z" transform="translate(-1175.372 -322.807)" fill="#161615"/>
            <path id="Trazado_4904" data-name="Trazado 4904" d="M1175.517,324.854l-.206-.844.249-.006a7.282,7.282,0,0,0,2.571-.53h.007a2.315,2.315,0,0,0,.829-.513l.257-.248.1.448c.03.133.059.267.095.4l.039.145-.127.079a5.192,5.192,0,0,1-.751.389,8.792,8.792,0,0,1-2.9.677Zm.3-.456.008.033a8.415,8.415,0,0,0,2.6-.635,4.977,4.977,0,0,0,.568-.283c0-.013-.008-.028-.01-.042a2.66,2.66,0,0,1-.7.378,7.651,7.651,0,0,1-2.458.549Z" transform="translate(-1175.311 -322.713)" fill="#161615"/>
          </g>
          <g id="Grupo_4904" data-name="Grupo 4904" transform="translate(4.034 15.151)">
            <path id="Trazado_3116" data-name="Trazado 3116" d="M1181.386,332.722a7.663,7.663,0,0,1-2.511,1.03l.184.413a8.783,8.783,0,0,0,2.685-1.181,5.426,5.426,0,0,0,.62-.479l-.213-.481a2.537,2.537,0,0,1-.765.7Z" transform="translate(-1178.592 -331.625)" fill="#161615"/>
            <path id="Trazado_4905" data-name="Trazado 4905" d="M1178.88,334.306l-.354-.8.243-.051a7.461,7.461,0,0,0,2.444-1l.007,0a2.312,2.312,0,0,0,.7-.641l.2-.284.417.935-.11.1a5.547,5.547,0,0,1-.643.5,8.933,8.933,0,0,1-2.748,1.208Zm.214-.509.014.033a8.517,8.517,0,0,0,2.461-1.111,5.145,5.145,0,0,0,.486-.364l-.021-.048a2.693,2.693,0,0,1-.609.489,7.837,7.837,0,0,1-2.335,1Z" transform="translate(-1178.525 -331.528)" fill="#161615"/>
          </g>
          <g id="Grupo_4905" data-name="Grupo 4905" transform="translate(7.828 21.831)">
            <path id="Trazado_3120" data-name="Trazado 3120" d="M1185.938,341.111a7.71,7.71,0,0,1-2.331,1.417l.24.384a8.877,8.877,0,0,0,2.495-1.6,5.066,5.066,0,0,0,.522-.55l-.28-.448A2.611,2.611,0,0,1,1185.938,341.111Z" transform="translate(-1183.306 -339.913)" fill="#161615"/>
            <path id="Trazado_4906" data-name="Trazado 4906" d="M1183.7,343.071l-.463-.737.229-.088a7.478,7.478,0,0,0,2.27-1.384l.006,0a2.374,2.374,0,0,0,.592-.732l.164-.311.543.87-.09.111a5.543,5.543,0,0,1-.539.572,9.111,9.111,0,0,1-2.552,1.634Zm.137-.539.021.033a8.676,8.676,0,0,0,2.281-1.492,4.885,4.885,0,0,0,.406-.419l-.029-.047a2.815,2.815,0,0,1-.515.561,7.907,7.907,0,0,1-2.165,1.364Z" transform="translate(-1183.233 -339.816)" fill="#161615"/>
          </g>
          <g id="Grupo_4906" data-name="Grupo 4906" transform="translate(12.57 27.999)">
            <path id="Trazado_3124" data-name="Trazado 3124" d="M1191.623,348.829a7.874,7.874,0,0,1-2.119,1.741l.293.347a9.078,9.078,0,0,0,2.273-1.947,5.039,5.039,0,0,0,.421-.589c-.117-.136-.229-.274-.341-.412A2.736,2.736,0,0,1,1191.623,348.829Z" transform="translate(-1189.193 -347.567)" fill="#161615"/>
            <path id="Trazado_4907" data-name="Trazado 4907" d="M1189.679,351.08l-.562-.663.213-.119a7.639,7.639,0,0,0,2.064-1.7l0,0a2.51,2.51,0,0,0,.489-.8l.124-.328.22.273c.111.136.224.273.337.407l.1.111-.075.124a5.162,5.162,0,0,1-.438.614,9.22,9.22,0,0,1-2.324,1.991Zm.059-.554.026.031a8.843,8.843,0,0,0,2.076-1.814,4.913,4.913,0,0,0,.326-.443c-.013-.017-.028-.033-.04-.05a2.871,2.871,0,0,1-.427.614A8.028,8.028,0,0,1,1189.738,350.526Z" transform="translate(-1189.117 -347.47)" fill="#161615"/>
          </g>
          <g id="Grupo_4907" data-name="Grupo 4907" transform="translate(18.105 33.576)">
            <path id="Trazado_3128" data-name="Trazado 3128" d="M1198.663,354.864a2.668,2.668,0,0,1-.4.9,7.939,7.939,0,0,1-1.884,2.014l.334.314a9.143,9.143,0,0,0,2.014-2.252,5.008,5.008,0,0,0,.33-.614Z" transform="translate(-1196.061 -354.482)" fill="#161615"/>
            <path id="Trazado_4908" data-name="Trazado 4908" d="M1196.622,358.276l-.637-.6.192-.144a7.712,7.712,0,0,0,1.835-1.965,2.452,2.452,0,0,0,.378-.841l.08-.339.752.708-.059.131a5.437,5.437,0,0,1-.342.638,9.321,9.321,0,0,1-2.062,2.3Zm-.013-.565.034.031a8.936,8.936,0,0,0,1.836-2.088,4.786,4.786,0,0,0,.254-.459l-.048-.047a2.872,2.872,0,0,1-.339.65,8.123,8.123,0,0,1-1.737,1.912Z" transform="translate(-1195.985 -354.39)" fill="#161615"/>
          </g>
          <g id="Grupo_4908" data-name="Grupo 4908" transform="translate(24.363 38.439)">
            <path id="Trazado_3132" data-name="Trazado 3132" d="M1205.99,360.877a2.709,2.709,0,0,1-.271.935,8.09,8.09,0,0,1-1.585,2.279l.38.27a9.351,9.351,0,0,0,1.686-2.536,4.92,4.92,0,0,0,.234-.63Z" transform="translate(-1203.824 -360.513)" fill="#161615"/>
            <path id="Trazado_4909" data-name="Trazado 4909" d="M1204.465,364.541l-.715-.51.167-.169a7.892,7.892,0,0,0,1.545-2.222,2.527,2.527,0,0,0,.252-.871l.036-.344.842.6-.04.139a5.274,5.274,0,0,1-.243.654,9.547,9.547,0,0,1-1.724,2.595Zm-.1-.565.042.03a9.141,9.141,0,0,0,1.533-2.355,4.7,4.7,0,0,0,.18-.468l-.06-.043a2.843,2.843,0,0,1-.238.671,8.272,8.272,0,0,1-1.457,2.164Z" transform="translate(-1203.75 -360.425)" fill="#161615"/>
          </g>
          <g id="Grupo_4909" data-name="Grupo 4909" transform="translate(31.411 42.352)">
            <path id="Trazado_3136" data-name="Trazado 3136" d="M1214.1,365.687a2.9,2.9,0,0,1-.1.95,8.206,8.206,0,0,1-1.135,2.551l.432.2a9.486,9.486,0,0,0,1.18-2.844,5.13,5.13,0,0,0,.109-.632Z" transform="translate(-1212.569 -365.359)" fill="#161615"/>
            <path id="Trazado_4910" data-name="Trazado 4910" d="M1213.3,369.569l-.808-.377.13-.2a7.971,7.971,0,0,0,1.108-2.49,2.658,2.658,0,0,0,.092-.888l-.02-.339.925.432-.016.143a5.48,5.48,0,0,1-.113.656,9.637,9.637,0,0,1-1.2,2.9Zm-.214-.544.06.028a9.3,9.3,0,0,0,1.062-2.632c.035-.149.064-.308.087-.465l-.066-.03a3.13,3.13,0,0,1-.108.686,8.381,8.381,0,0,1-1.036,2.412Z" transform="translate(-1212.497 -365.28)" fill="#161615"/>
          </g>
          <g id="Grupo_4910" data-name="Grupo 4910" transform="translate(39.452 44.557)">
            <path id="Trazado_3140" data-name="Trazado 3140" d="M1222.858,368.314a3.527,3.527,0,0,1,.22.9,8.345,8.345,0,0,1-.1,2.807c.175.008.346.024.522.024a9.748,9.748,0,0,0-.039-3.107q-.058-.331-.122-.6C1223.183,368.333,1223.022,368.333,1222.858,368.314Z" transform="translate(-1222.549 -368.074)" fill="#161615"/>
            <path id="Trazado_4911" data-name="Trazado 4911" d="M1223.606,372.194h-.174c-.127,0-.25-.008-.373-.014l-.4-.022.048-.23a8.111,8.111,0,0,0,.094-2.74,3.305,3.305,0,0,0-.208-.859l-.122-.312.333.039c.1.011.19.016.282.02.065,0,.131.007.2.011l.149.011.035.142c.044.182.086.385.124.611a9.907,9.907,0,0,1,.041,3.171Zm-.457-.413a.737.737,0,0,1,.108.005,9.534,9.534,0,0,0-.063-2.866c-.027-.158-.057-.3-.086-.44h-.036a3.74,3.74,0,0,1,.132.66A8.555,8.555,0,0,1,1223.149,371.781Z" transform="translate(-1222.475 -368.016)" fill="#161615"/>
          </g>
        </g>
        <g id="Grupo_3952" data-name="Grupo 3952" transform="translate(0 0)">
          <path id="Trazado_3218" data-name="Trazado 3218" d="M1178.306,304.4c.71.494-.01,1.8-.872,2.937s-1.953,2.261-2.416,1.949c-.89-.6.2-2.163.773-3.033C1176.8,304.719,1177.776,304.035,1178.306,304.4Z" transform="translate(-1170.425 -299.552)" fill="#191919"/>
          <path id="Trazado_3219" data-name="Trazado 3219" d="M1170.893,304.433c.529-.64,1.691.38,2.69,1.508s1.952,2.5,1.617,2.914c-.646.8-2.019-.649-2.788-1.425C1171.057,306.063,1170.5,304.911,1170.893,304.433Z" transform="translate(-1169.666 -299.539)" fill="#191919"/>
          <path id="Trazado_3220" data-name="Trazado 3220" d="M1173.279,302.09c.66-.488,1.586.771,2.326,2.1s1.383,2.867.965,3.188c-.812.618-1.85-1.108-2.441-2.038C1173.087,303.692,1172.789,302.453,1173.279,302.09Z" transform="translate(-1170.109 -299.101)" fill="#191919"/>
          <g id="Grupo_3951" data-name="Grupo 3951">
            <path id="Trazado_3217" data-name="Trazado 3217" d="M1176.031,298.412c.82-.094,1.1,1.441,1.186,2.941s-.018,3.141-.543,3.207c-1.014.13-1.193-1.861-1.314-2.948C1175.142,299.691,1175.423,298.477,1176.031,298.412Z" transform="translate(-1170.543 -298.408)" fill="#191919"/>
            <g id="Grupo_4911" data-name="Grupo 4911" transform="translate(0 3.997)">
              <ellipse id="Elipse_243" data-name="Elipse 243" cx="4.032" cy="4.351" rx="4.032" ry="4.351" transform="translate(0 3.338) rotate(-24.454)" fill="#fff"/>
              <path id="Trazado_4912" data-name="Trazado 4912" d="M1175.334,313.932a4.42,4.42,0,0,1-1.712-.351,4.9,4.9,0,0,1-2.56-2.516,4.608,4.608,0,0,1,2.069-6.165h0a4.608,4.608,0,0,1,6.005,2.492,4.9,4.9,0,0,1,.214,3.58,4.263,4.263,0,0,1-2.284,2.581A4.18,4.18,0,0,1,1175.334,313.932Zm-1.869-8.3a3.8,3.8,0,0,0-1.669,5.1,4.1,4.1,0,0,0,2.137,2.107,3.424,3.424,0,0,0,4.653-2.116,4.1,4.1,0,0,0-.183-3,3.8,3.8,0,0,0-4.938-2.088Z" transform="translate(-1169.628 -303.599)" fill="#161615"/>
            </g>
          </g>
        </g>
      </g>
      <g id="Grupo_4918" data-name="Grupo 4918" transform="translate(43.112 97.164)">
        <g id="Grupo_4913" data-name="Grupo 4913" transform="translate(0 0)">
          <rect id="Rectángulo_2411" data-name="Rectángulo 2411" width="67.07" height="23.182" rx="11.591" transform="translate(0.603 0.603)" fill="#161615"/>
          <path id="Trazado_4913" data-name="Trazado 4913" d="M1278.98,443.366h-43.888a12.195,12.195,0,0,1,0-24.39h43.888a12.195,12.195,0,0,1,0,24.39Zm-43.888-23.181a10.986,10.986,0,0,0,0,21.973h43.888a10.986,10.986,0,0,0,0-21.973Z" transform="translate(-1222.897 -418.976)" fill="#161615"/>
        </g>
        <g id="Grupo_4914" data-name="Grupo 4914" transform="translate(38.935 0)">
          <rect id="Rectángulo_2412" data-name="Rectángulo 2412" width="42.678" height="23.182" rx="11.591" transform="translate(0.604 0.603)" fill="#fff"/>
          <path id="Trazado_4914" data-name="Trazado 4914" d="M1302.9,443.366h-19.5a12.195,12.195,0,0,1,0-24.39h19.5a12.195,12.195,0,1,1,0,24.39Zm-19.5-23.181a10.986,10.986,0,1,0,0,21.973h19.5a10.986,10.986,0,1,0,0-21.973Z" transform="translate(-1271.211 -418.976)" fill="#161615"/>
        </g>
        <g id="Grupo_4915" data-name="Grupo 4915" transform="translate(46.563 5.56)">
          <rect id="Rectángulo_2413" data-name="Rectángulo 2413" width="27.417" height="12.058" rx="6.029" transform="translate(0.607 0.605)" fill="#fff"/>
          <path id="Trazado_4915" data-name="Trazado 4915" d="M1303.1,439.143h-16.212a6.216,6.216,0,0,1-6.208-6.208v-.85a6.216,6.216,0,0,1,6.208-6.208h16.21a6.216,6.216,0,0,1,6.208,6.208v.85A6.216,6.216,0,0,1,1303.1,439.143Zm-16.212-12.055a5.006,5.006,0,0,0-5,5v.85a5,5,0,0,0,5,5h16.21a5,5,0,0,0,5-5v-.85a5.005,5.005,0,0,0-5-5Z" transform="translate(-1280.676 -425.876)" fill="#161615"/>
        </g>
        <g id="Grupo_4916" data-name="Grupo 4916" transform="translate(46.567 5.78)">
          <circle id="Elipse_348" data-name="Elipse 348" cx="5.811" cy="5.811" r="5.811" transform="translate(0.603 0.603)" fill="#fff"/>
          <path id="Trazado_4916" data-name="Trazado 4916" d="M1287.1,438.978a6.414,6.414,0,1,1,6.415-6.414A6.415,6.415,0,0,1,1287.1,438.978Zm0-11.622a5.206,5.206,0,1,0,5.207,5.207,5.206,5.206,0,0,0-5.207-5.207Z" transform="translate(-1280.681 -426.149)" fill="#161615"/>
        </g>
        <g id="Grupo_4917" data-name="Grupo 4917" transform="translate(62.378 5.78)">
          <circle id="Elipse_349" data-name="Elipse 349" cx="5.811" cy="5.811" r="5.811" transform="translate(0.601 0.603)" fill="#fff"/>
          <path id="Trazado_4917" data-name="Trazado 4917" d="M1306.715,438.978a6.414,6.414,0,1,1,6.414-6.414,6.414,6.414,0,0,1-6.414,6.414Zm0-11.622a5.206,5.206,0,1,0,5.207,5.206,5.205,5.205,0,0,0-5.207-5.206Z" transform="translate(-1300.3 -426.149)" fill="#161615"/>
        </g>
      </g>
      <g id="Grupo_4941" data-name="Grupo 4941" transform="translate(22.018 6.466)">
        <g id="Grupo_4919" data-name="Grupo 4919" transform="translate(51.674 0.012)">
          <path id="Trazado_4918" data-name="Trazado 4918" d="M1323.469,397.812H1299.84a11.149,11.149,0,0,0,9.655-16.722l-39.456-68.347a11.006,11.006,0,0,0-9.174-5.553l23.9.081a10.89,10.89,0,0,1,9.034,5.5l39.381,68.21a11.223,11.223,0,0,1-9.713,16.835Z" transform="translate(-1260.847 -306.59)" fill="#d9eef3"/>
          <path id="Trazado_4919" data-name="Trazado 4919" d="M1323.468,398.273H1299.84v-1.209a10.545,10.545,0,0,0,9.131-15.812L1269.515,312.9a10.46,10.46,0,0,0-8.672-5.25l.027-1.208,23.9.08a11.573,11.573,0,0,1,9.556,5.8l39.381,68.21a11.828,11.828,0,0,1-10.242,17.742Zm-18.4-1.209h18.4a10.619,10.619,0,0,0,9.2-15.928l-39.381-68.21a10.225,10.225,0,0,0-8.538-5.2l-19.079-.063a11.721,11.721,0,0,1,4.9,4.63l39.456,68.347a11.793,11.793,0,0,1-4.946,16.42Z" transform="translate(-1260.843 -306.446)" fill="#161615"/>
        </g>
        <g id="Grupo_4920" data-name="Grupo 4920" transform="translate(0 0)">
          <path id="Trazado_4920" data-name="Trazado 4920" d="M1287.54,397.809h-78.92a11.149,11.149,0,0,1-9.654-16.722l39.456-68.347a11.166,11.166,0,0,1,19.318,0l39.456,68.347a11.149,11.149,0,0,1-9.655,16.722Z" transform="translate(-1196.869 -306.575)" fill="#fff"/>
          <path id="Trazado_4921" data-name="Trazado 4921" d="M1287.4,398.27h-78.921a11.753,11.753,0,0,1-10.178-17.628l39.456-68.347a11.771,11.771,0,0,1,20.362,0l39.456,68.347a11.754,11.754,0,0,1-10.178,17.628Zm-39.508-90.633a10.351,10.351,0,0,0-9.089,5.261l-39.456,68.347a10.546,10.546,0,0,0,9.132,15.812H1287.4a10.545,10.545,0,0,0,9.131-15.812L1257.071,312.9a10.461,10.461,0,0,0-8.672-5.25Q1248.142,307.637,1247.888,307.636Z" transform="translate(-1196.723 -306.431)" fill="#161615"/>
        </g>
        <g id="Grupo_4921" data-name="Grupo 4921" transform="translate(2.228 73.904)">
          <line id="Línea_47" data-name="Línea 47" x2="98.227" transform="translate(0 0.604)" fill="#fff"/>
          <rect id="Rectángulo_2414" data-name="Rectángulo 2414" width="98.227" height="1.209" fill="#161615"/>
        </g>
        <rect id="Rectángulo_2415" data-name="Rectángulo 2415" width="40.135" height="1.209" transform="translate(31.274 23.596)" fill="#161615"/>
        <rect id="Rectángulo_2416" data-name="Rectángulo 2416" width="23.566" height="1.209" transform="translate(71.408 23.688)" fill="#161615"/>
        <rect id="Rectángulo_2417" data-name="Rectángulo 2417" width="23.566" height="1.209" transform="translate(100.394 73.904)" fill="#161615"/>
        <g id="Grupo_4924" data-name="Grupo 4924" transform="translate(22.792 74.336)">
          <g id="Grupo_4922" data-name="Grupo 4922">
            <line id="Línea_48" data-name="Línea 48" y1="16.671" transform="translate(0.605)" fill="#fff"/>
            <rect id="Rectángulo_2418" data-name="Rectángulo 2418" width="1.209" height="16.671" fill="#161615"/>
          </g>
          <g id="Grupo_4923" data-name="Grupo 4923" transform="translate(55.889)">
            <line id="Línea_49" data-name="Línea 49" y1="16.671" transform="translate(0.604)" fill="#fff"/>
            <rect id="Rectángulo_2419" data-name="Rectángulo 2419" width="1.209" height="16.671" fill="#161615"/>
          </g>
        </g>
        <g id="Grupo_4925" data-name="Grupo 4925" transform="translate(66.583 78.738)">
          <circle id="Elipse_350" data-name="Elipse 350" cx="4.005" cy="4.005" r="4.005" transform="translate(0.605 0.605)" fill="#fff"/>
          <path id="Trazado_4922" data-name="Trazado 4922" d="M1283.952,413.351a4.609,4.609,0,1,1,4.609-4.608A4.609,4.609,0,0,1,1283.952,413.351Zm0-8.008a3.4,3.4,0,1,0,3.4,3.4,3.4,3.4,0,0,0-3.4-3.4Z" transform="translate(-1279.343 -404.134)" fill="#161615"/>
        </g>
        <g id="Grupo_4926" data-name="Grupo 4926" transform="translate(59.938 80.333)">
          <circle id="Elipse_351" data-name="Elipse 351" cx="2.411" cy="2.411" r="2.411" transform="translate(0.605 0.603)" fill="#fff"/>
          <path id="Trazado_4923" data-name="Trazado 4923" d="M1274.113,412.145a3.016,3.016,0,1,1,3.015-3.015A3.016,3.016,0,0,1,1274.113,412.145Zm0-4.822a1.806,1.806,0,1,0,1.807,1.807,1.807,1.807,0,0,0-1.807-1.807Z" transform="translate(-1271.097 -406.114)" fill="#161615"/>
        </g>
        <g id="Grupo_4929" data-name="Grupo 4929" transform="translate(20.763 36.062)">
          <g id="Grupo_4927" data-name="Grupo 4927" transform="translate(0.001)">
            <rect id="Rectángulo_2420" data-name="Rectángulo 2420" width="59.626" height="31.141" rx="15.571" transform="translate(0.605 0.605)" fill="#161615"/>
            <path id="Trazado_4924" data-name="Trazado 4924" d="M1267.148,383.529h-28.486a16.175,16.175,0,1,1,0-32.35h28.486a16.175,16.175,0,1,1,0,32.35Zm-28.486-31.141a14.966,14.966,0,1,0,0,29.932h28.486a14.966,14.966,0,1,0,0-29.932Z" transform="translate(-1222.487 -351.179)" fill="#161615"/>
          </g>
          <g id="Grupo_4928" data-name="Grupo 4928" transform="translate(0)">
            <path id="Trazado_4925" data-name="Trazado 4925" d="M1242.573,383.071h-3.765a15.571,15.571,0,1,1,0-31.142h3.765a15.571,15.571,0,1,0,0,31.142Z" transform="translate(-1222.632 -351.325)" fill="#d9eef3"/>
            <path id="Trazado_4926" data-name="Trazado 4926" d="M1242.427,383.529h-3.765a16.175,16.175,0,0,1,0-32.35h3.765v1.209a14.966,14.966,0,1,0,0,29.932Zm-6.862-30.819a14.969,14.969,0,0,0-.009,29.286,16.194,16.194,0,0,1,.009-29.286Z" transform="translate(-1222.487 -351.179)" fill="#161615"/>
          </g>
          <ellipse id="Elipse_331" data-name="Elipse 331" cx="3.509" cy="8.51" rx="3.509" ry="8.51" transform="translate(17.403 8.292)" fill="#fff"/>
          <ellipse id="Elipse_332" data-name="Elipse 332" cx="3.509" cy="8.51" rx="3.509" ry="8.51" transform="translate(37.088 8.292)" fill="#fff"/>
        </g>
        <g id="Grupo_4940" data-name="Grupo 4940" transform="translate(95.341 50.286)">
          <g id="Grupo_3948" data-name="Grupo 3948" transform="translate(3.754 0)">
            <g id="Grupo_4930" data-name="Grupo 4930" transform="translate(0)">
              <path id="Trazado_3177" data-name="Trazado 3177" d="M1323.422,390.259l-1.005,3.469a28.077,28.077,0,0,0,2.921.671c.493.1,1,.149,1.508.213.513.039,1.024.091,1.55.093a14.709,14.709,0,0,0,3.174-.258,11.128,11.128,0,0,0,3.14-1.119,9.6,9.6,0,0,0,2.674-2.158,10.021,10.021,0,0,0,1-1.4c.136-.249.278-.5.4-.753a7.852,7.852,0,0,0,.333-.777,11.986,11.986,0,0,0,.727-3.216,14.022,14.022,0,0,0-.107-3.207,15.639,15.639,0,0,0-2.154-5.918,13.812,13.812,0,0,0-4.5-4.537,12.207,12.207,0,0,0-3-1.319,12.337,12.337,0,0,0-3.235-.469,14.291,14.291,0,0,0-3.19.331,17.3,17.3,0,0,0-2.975.958c-.392.17-.362,1.041.067,1.939s1.024,1.525,1.334,1.389a13.738,13.738,0,0,1,2.347-.759,10.674,10.674,0,0,1,2.367-.248,8.562,8.562,0,0,1,4.4,1.259,10.2,10.2,0,0,1,3.309,3.357,12.047,12.047,0,0,1,1.651,4.537,10.471,10.471,0,0,1,.082,2.379,8.33,8.33,0,0,1-.5,2.23,6.011,6.011,0,0,1-2.76,3.207,7.546,7.546,0,0,1-2.12.746,11.133,11.133,0,0,1-2.4.189c-.411,0-.831-.043-1.247-.075-.421-.058-.84-.1-1.263-.182A24.653,24.653,0,0,1,1323.422,390.259Z" transform="translate(-1319.826 -368.973)" fill="#fff"/>
              <path id="Trazado_4927" data-name="Trazado 4927" d="M1328.647,395.175c-.136,0-.272,0-.408,0-.413,0-.83-.036-1.247-.069l-.693-.07c-.41-.051-.82-.1-1.219-.18a28.852,28.852,0,0,1-2.969-.685l-.582-.168,1.343-4.632.579.168a24.121,24.121,0,0,0,2.468.571c.3.06.582.1.864.13l.672.07c.292.023.6.048.863.045a10.544,10.544,0,0,0,2.291-.179,6.967,6.967,0,0,0,1.951-.687,5.4,5.4,0,0,0,2.478-2.883,7.736,7.736,0,0,0,.467-2.072,9.81,9.81,0,0,0-.075-2.238,11.36,11.36,0,0,0-1.566-4.309,9.644,9.644,0,0,0-3.115-3.159,7.951,7.951,0,0,0-4.087-1.167,10.21,10.21,0,0,0-2.233.233,13.1,13.1,0,0,0-2.238.725c-.8.354-1.62-.64-2.117-1.685a2.981,2.981,0,0,1-.3-2.163,1.006,1.006,0,0,1,.541-.6,18.042,18.042,0,0,1,3.084-.993,14.43,14.43,0,0,1,3.328-.347,12.988,12.988,0,0,1,3.395.492,12.8,12.8,0,0,1,3.151,1.385,14.477,14.477,0,0,1,4.7,4.737,16.155,16.155,0,0,1,2.238,6.145,14.656,14.656,0,0,1,.11,3.344,12.524,12.524,0,0,1-.764,3.382,8.034,8.034,0,0,1-.351.82c-.1.207-.21.412-.323.617l-.09.165a10.53,10.53,0,0,1-1.077,1.5,10.187,10.187,0,0,1-2.842,2.294,11.746,11.746,0,0,1-3.316,1.18A15.436,15.436,0,0,1,1328.647,395.175Zm-5.618-2.014c.752.2,1.514.366,2.273.5.385.075.765.121,1.144.168l.644.066c.387.031.773.063,1.167.066a14.341,14.341,0,0,0,3.058-.248,10.494,10.494,0,0,0,2.97-1.057,8.946,8.946,0,0,0,2.5-2.019,9.354,9.354,0,0,0,.942-1.312l.082-.149c.1-.182.2-.366.289-.552a6.527,6.527,0,0,0,.307-.715,11.369,11.369,0,0,0,.7-3.072,13.466,13.466,0,0,0-.1-3.066,14.94,14.94,0,0,0-2.071-5.69,13.262,13.262,0,0,0-4.3-4.34,11.544,11.544,0,0,0-2.848-1.251,11.714,11.714,0,0,0-3.074-.448,12.967,12.967,0,0,0-3.054.318,16.628,16.628,0,0,0-2.77.882,2.245,2.245,0,0,0,.276,1.168,3.206,3.206,0,0,0,.708,1.027,14.209,14.209,0,0,1,2.294-.727,12.063,12.063,0,0,1,2.505-.263,9.169,9.169,0,0,1,4.714,1.348,10.882,10.882,0,0,1,3.51,3.557,12.583,12.583,0,0,1,1.733,4.762,11.121,11.121,0,0,1,.088,2.516,8.932,8.932,0,0,1-.538,2.393,6.6,6.6,0,0,1-3.04,3.527,8.112,8.112,0,0,1-2.3.81,11.824,11.824,0,0,1-2.53.2c-.3-.006-.623-.023-.948-.049l-.723-.075c-.313-.039-.627-.075-.942-.142-.659-.116-1.33-.263-1.995-.438Zm-1.317-19.663h-.007Z" transform="translate(-1319.688 -368.83)" fill="#161615"/>
            </g>
            <g id="Grupo_4931" data-name="Grupo 4931" transform="translate(5.736 21.782)">
              <path id="Trazado_3179" data-name="Trazado 3179" d="M1327.439,397.016a10.158,10.158,0,0,1-.472,2.584c.106.019.209.033.313.048a11.909,11.909,0,0,0,.435-2.795,7.014,7.014,0,0,0-.011-.791c-.109-.011-.219-.037-.329-.055A3.325,3.325,0,0,1,1327.439,397.016Z" transform="translate(-1326.835 -395.887)" fill="#161615"/>
              <path id="Trazado_4928" data-name="Trazado 4928" d="M1327.319,399.731l-.135-.019c-.088-.013-.177-.026-.268-.042l-.114-.02.035-.11a10.085,10.085,0,0,0,.468-2.558h0a3.146,3.146,0,0,0-.063-.979l-.032-.145.26.043c.074.013.141.027.211.034l.083.008.007.084a7.549,7.549,0,0,1,.011.8,11.989,11.989,0,0,1-.439,2.818Zm-.254-.241.109.016a11.87,11.87,0,0,0,.408-2.685c.009-.23.007-.465-.006-.7-.035,0-.074-.011-.108-.019a3.414,3.414,0,0,1,.039.895,10.26,10.26,0,0,1-.443,2.492Z" transform="translate(-1326.803 -395.858)" fill="#161615"/>
            </g>
            <g id="Grupo_4932" data-name="Grupo 4932" transform="translate(10.749 21.78)">
              <path id="Trazado_3183" data-name="Trazado 3183" d="M1333.613,396.974a10.06,10.06,0,0,1,.478,2.6l.337-.075a11.912,11.912,0,0,0-.627-2.787c-.093-.268-.186-.5-.277-.711a2.349,2.349,0,0,1-.3.061A3.962,3.962,0,0,1,1333.613,396.974Z" transform="translate(-1333.062 -395.885)" fill="#161615"/>
              <path id="Trazado_4929" data-name="Trazado 4929" d="M1333.958,399.673l-.007-.121a9.922,9.922,0,0,0-.473-2.575h0a3.827,3.827,0,0,0-.38-.889l-.075-.13.149-.022a2.2,2.2,0,0,0,.289-.059l.084-.022.035.079c.1.224.19.462.279.718a11.98,11.98,0,0,1,.632,2.81l.01.089Zm-.287-2.76a10.136,10.136,0,0,1,.474,2.505l.134-.031a11.75,11.75,0,0,0-.613-2.675c-.075-.224-.157-.431-.24-.627l-.084.019a4.048,4.048,0,0,1,.329.812Z" transform="translate(-1333.023 -395.856)" fill="#161615"/>
            </g>
            <g id="Grupo_4933" data-name="Grupo 4933" transform="translate(14.411 19.781)">
              <path id="Trazado_3187" data-name="Trazado 3187" d="M1338.6,394.255a10.091,10.091,0,0,1,1.931,1.831l.241-.274a11.861,11.861,0,0,0-2.183-1.879c-.224-.154-.433-.288-.619-.4a2.54,2.54,0,0,1-.19.21A4.876,4.876,0,0,1,1338.6,394.255Z" transform="translate(-1337.609 -393.407)" fill="#161615"/>
              <path id="Trazado_4930" data-name="Trazado 4930" d="M1340.486,396.212l-.074-.093a10.015,10.015,0,0,0-1.912-1.812h0a4.9,4.9,0,0,0-.8-.5l-.128-.063.1-.1a2.036,2.036,0,0,0,.181-.2l.054-.068.074.044c.19.11.4.245.626.4a12.015,12.015,0,0,1,2.2,1.892l.061.066Zm-1.864-2.069a10.221,10.221,0,0,1,1.873,1.756l.1-.118a11.839,11.839,0,0,0-2.1-1.8c-.194-.133-.373-.251-.542-.351l-.045.052a4.966,4.966,0,0,1,.711.454Z" transform="translate(-1337.568 -393.376)" fill="#161615"/>
            </g>
            <g id="Grupo_4934" data-name="Grupo 4934" transform="translate(16.215 15.973)">
              <path id="Trazado_3191" data-name="Trazado 3191" d="M1340.915,389.047a10.671,10.671,0,0,1,2.65.387l.04-.344a12.566,12.566,0,0,0-2.892-.313c-.263,0-.5.01-.711.026a2.9,2.9,0,0,1-.043.306A4.314,4.314,0,0,1,1340.915,389.047Z" transform="translate(-1339.835 -388.675)" fill="#161615"/>
              <path id="Trazado_4931" data-name="Trazado 4931" d="M1343.622,389.538l-.114-.031a10.682,10.682,0,0,0-2.624-.383h0a4.234,4.234,0,0,0-.935.06l-.143.025.028-.144a2.8,2.8,0,0,0,.041-.293l.008-.086.086-.007c.256-.02.536-.028.82-.028a12.668,12.668,0,0,1,2.812.318l.088.02Zm-2.733-.617a10.825,10.825,0,0,1,2.56.36l.016-.137a12.753,12.753,0,0,0-2.781-.292c-.216,0-.424.007-.62.021,0,.029-.008.059-.013.089a4.42,4.42,0,0,1,.838-.04Z" transform="translate(-1339.806 -388.65)" fill="#161615"/>
            </g>
            <g id="Grupo_4935" data-name="Grupo 4935" transform="translate(15.827 10.297)">
              <path id="Trazado_3195" data-name="Trazado 3195" d="M1340.395,382.828a11.091,11.091,0,0,1,2.58-.758l-.1-.319a12.754,12.754,0,0,0-2.794.911c-.229.1-.432.207-.612.307l.1.312A4.028,4.028,0,0,1,1340.395,382.828Z" transform="translate(-1339.353 -381.635)" fill="#161615"/>
              <path id="Trazado_4932" data-name="Trazado 4932" d="M1339.484,383.416l-.16-.522.075-.04c.2-.107.4-.211.619-.309a12.878,12.878,0,0,1,2.815-.918l.09-.019.155.517-.113.019a11.013,11.013,0,0,0-2.556.751h0a4,4,0,0,0-.8.441Zm.081-.427.031.1a4.272,4.272,0,0,1,.731-.384,11.17,11.17,0,0,1,2.49-.746l-.037-.122a12.793,12.793,0,0,0-2.686.885C1339.914,382.81,1339.734,382.9,1339.565,382.989Z" transform="translate(-1339.324 -381.607)" fill="#161615"/>
            </g>
            <g id="Grupo_4936" data-name="Grupo 4936" transform="translate(13.681 5.039)">
              <path id="Trazado_3199" data-name="Trazado 3199" d="M1337.031,377.943a4.151,4.151,0,0,1,.584-.719,11.238,11.238,0,0,1,2.1-1.705l-.218-.268a13.278,13.278,0,0,0-2.238,1.944c-.162.176-.307.342-.43.5Z" transform="translate(-1336.694 -375.114)" fill="#161615"/>
              <path id="Trazado_4933" data-name="Trazado 4933" d="M1337,378.079l-.343-.421.051-.063c.123-.157.27-.327.433-.5a13.511,13.511,0,0,1,2.258-1.959l.074-.052.349.427-.1.06a11.073,11.073,0,0,0-2.081,1.691,4.042,4.042,0,0,0-.572.7Zm-.084-.422.067.082a4.218,4.218,0,0,1,.522-.621,11.293,11.293,0,0,1,2.021-1.658l-.088-.107a13.282,13.282,0,0,0-2.149,1.877c-.139.153-.263.3-.373.43Z" transform="translate(-1336.661 -375.081)" fill="#161615"/>
            </g>
            <g id="Grupo_4937" data-name="Grupo 4937" transform="translate(10.214 1.41)">
              <path id="Trazado_3203" data-name="Trazado 3203" d="M1332.792,374.261a4.553,4.553,0,0,1,.2-.885,11.313,11.313,0,0,1,1.1-2.49l-.328-.149a13.525,13.525,0,0,0-1.1,2.786c-.06.224-.113.424-.149.608Z" transform="translate(-1332.39 -370.609)" fill="#161615"/>
              <path id="Trazado_4934" data-name="Trazado 4934" d="M1332.846,374.378l-.486-.217.017-.079c.038-.181.087-.369.149-.614a13.7,13.7,0,0,1,1.114-2.806l.044-.083.516.23-.057.1a11.3,11.3,0,0,0-1.088,2.469,4.528,4.528,0,0,0-.2.87Zm-.256-.333.091.04a4.666,4.666,0,0,1,.187-.771,11.441,11.441,0,0,1,1.049-2.412l-.139-.062a13.406,13.406,0,0,0-1.053,2.681C1332.669,373.727,1332.625,373.891,1332.591,374.044Z" transform="translate(-1332.36 -370.579)" fill="#161615"/>
            </g>
            <g id="Grupo_4938" data-name="Grupo 4938" transform="translate(5.426 0.541)">
              <path id="Trazado_3207" data-name="Trazado 3207" d="M1327.38,373.218a4.809,4.809,0,0,1-.249-.863,11.6,11.6,0,0,1-.238-2.729,3.448,3.448,0,0,0-.351.031,13.616,13.616,0,0,0,.361,3c.05.213.1.4.153.574Z" transform="translate(-1326.442 -369.525)" fill="#161615"/>
              <path id="Trazado_4935" data-name="Trazado 4935" d="M1326.96,373.314l-.023-.075c-.05-.158-.1-.342-.155-.581a13.811,13.811,0,0,1-.363-3.024v-.091l.159-.018c.1-.01.194-.022.291-.024h.106v.107a11.425,11.425,0,0,0,.236,2.7,4.542,4.542,0,0,0,.242.847l.052.131Zm-.34-3.591a13.607,13.607,0,0,0,.358,2.89c.046.2.088.357.128.492l.107,0a4.977,4.977,0,0,1-.2-.752,11.722,11.722,0,0,1-.242-2.64Z" transform="translate(-1326.418 -369.501)" fill="#161615"/>
            </g>
          </g>
          <path id="Trazado_3211" data-name="Trazado 3211" d="M1315.042,399.088c-.181.8,1.314,1.251,2.795,1.5s3.123.323,3.246-.193c.242-1-1.72-1.386-2.786-1.629C1316.411,398.342,1315.179,398.488,1315.042,399.088Z" transform="translate(-1315.027 -374.593)" fill="#191919"/>
          <path id="Trazado_3214" data-name="Trazado 3214" d="M1317.8,404.176c.412.761,1.791.183,3.016-.547s2.457-1.7,2.2-2.191c-.5-.95-2.169-.036-3.1.441C1318.278,402.721,1317.493,403.61,1317.8,404.176Z" transform="translate(-1315.553 -375.079)" fill="#191919"/>
          <path id="Trazado_3215" data-name="Trazado 3215" d="M1320.744,390.609c-.82.127-.537,1.649-.074,3.083s1.152,2.953,1.681,2.878c1.022-.145.472-2.067.2-3.125C1322.061,391.581,1321.355,390.514,1320.744,390.609Z" transform="translate(-1316.036 -373.056)" fill="#191919"/>
          <path id="Trazado_3216" data-name="Trazado 3216" d="M1315.894,402.244c.236.787,1.732.334,3.118-.282s2.825-1.466,2.681-1.974c-.28-.982-2.145-.224-3.176.169C1316.7,400.844,1315.721,401.658,1315.894,402.244Z" transform="translate(-1315.192 -374.784)" fill="#191919"/>
          <g id="Grupo_4939" data-name="Grupo 4939" transform="translate(0.719 18.555)">
            <ellipse id="Elipse_244" data-name="Elipse 244" cx="4.034" cy="4.353" rx="4.034" ry="4.353" transform="translate(0 6.938) rotate(-59.323)" fill="#fff"/>
            <path id="Trazado_4936" data-name="Trazado 4936" d="M1322.269,402.361a4.964,4.964,0,0,1-2.536-.709,4.9,4.9,0,0,1-2.226-2.818,4.262,4.262,0,0,1,.4-3.423h0a4.767,4.767,0,0,1,8.18,4.853,4.264,4.264,0,0,1-2.814,1.991A4.8,4.8,0,0,1,1322.269,402.361Zm-3.674-6.538h0a3.467,3.467,0,0,0-.319,2.784,4.2,4.2,0,0,0,4.824,2.861,3.472,3.472,0,0,0,2.291-1.614,3.964,3.964,0,0,0-6.8-4.028Z" transform="translate(-1316.191 -392.148)" fill="#161615"/>
          </g>
        </g>
      </g>
      <path id="Trazado_4937" data-name="Trazado 4937" d="M1305.148,429.447h-81.314a11.636,11.636,0,0,1,11.444-9.727H1293.7A11.645,11.645,0,0,1,1305.148,429.447Z" transform="translate(-1179.966 -321.956)" fill="#161615" opacity="0.4"/>
    </g>
  </g>
</svg>
