<svg id="Grupo_4756" data-name="Grupo 4756" xmlns="http://www.w3.org/2000/svg" xmlns:xlink="http://www.w3.org/1999/xlink" width="193.936" height="185.149" viewBox="0 0 193.936 185.149">
  <defs>
    <clipPath id="clip-path">
      <path id="Trazado_4648" data-name="Trazado 4648" d="M109.441,378.145c-26.661.87-49.553-25.211-32.457-55.927l-5.8-3.188c-15.069,19.415-12.75,62.3,33.9,68.679Z" transform="translate(-62.907 -319.03)" fill="none"/>
    </clipPath>
    <clipPath id="clip-path-2">
      <path id="Trazado_4670" data-name="Trazado 4670" d="M183.835,380.126c21.8,1.792,38.078,25.088,24.068,56.036l5.8,3.188c15.069-19.415,12.75-62.3-33.9-68.679a5.658,5.658,0,0,0,4.041,9.455Z" transform="translate(-178.333 -370.671)" fill="none"/>
    </clipPath>
  </defs>
  <g id="Grupo_4731" data-name="Grupo 4731" transform="translate(34.609 148.158)">
    <g id="Grupo_4726" data-name="Grupo 4726">
      <rect id="Rectángulo_2360" data-name="Rectángulo 2360" width="101.721" height="35.159" rx="14.383" transform="translate(0.916 0.916)" fill="#161615"/>
      <path id="Trazado_4628" data-name="Trazado 4628" d="M175.56,461.886H109a18.5,18.5,0,1,1,0-36.991H175.56a18.5,18.5,0,1,1,0,36.991ZM109,426.728a16.662,16.662,0,1,0,0,33.324H175.56a16.662,16.662,0,1,0,0-33.324Z" transform="translate(-90.502 -424.895)" fill="#161615"/>
    </g>
    <g id="Grupo_4727" data-name="Grupo 4727" transform="translate(59.052)">
      <rect id="Rectángulo_2361" data-name="Rectángulo 2361" width="64.727" height="35.159" rx="14.383" transform="translate(0.917 0.916)" fill="#fff"/>
      <path id="Trazado_4629" data-name="Trazado 4629" d="M186.883,461.886h-29.57a18.5,18.5,0,1,1,0-36.991h29.57a18.5,18.5,0,0,1,0,36.991Zm-29.57-35.158a16.662,16.662,0,1,0,0,33.324h29.57a16.662,16.662,0,0,0,0-33.324Z" transform="translate(-138.817 -424.895)" fill="#161615"/>
    </g>
    <g id="Grupo_4728" data-name="Grupo 4728" transform="translate(70.626 8.435)">
      <rect id="Rectángulo_2362" data-name="Rectángulo 2362" width="41.582" height="18.287" rx="6.954" transform="translate(0.916 0.917)" fill="#fff"/>
      <path id="Trazado_4630" data-name="Trazado 4630" d="M182.286,451.916H157.7a9.426,9.426,0,0,1-9.415-9.415v-1.289A9.427,9.427,0,0,1,157.7,431.8h24.585a9.427,9.427,0,0,1,9.415,9.416V442.5A9.426,9.426,0,0,1,182.286,451.916ZM157.7,433.629a7.59,7.59,0,0,0-7.582,7.583V442.5a7.589,7.589,0,0,0,7.582,7.582h24.585a7.59,7.59,0,0,0,7.582-7.582v-1.289a7.591,7.591,0,0,0-7.582-7.583Z" transform="translate(-148.286 -431.796)" fill="#161615"/>
    </g>
    <g id="Grupo_4729" data-name="Grupo 4729" transform="translate(70.626 8.765)">
      <circle id="Elipse_315" data-name="Elipse 315" cx="8.813" cy="8.813" r="8.813" transform="translate(0.916 0.917)" fill="#fff"/>
      <path id="Trazado_4631" data-name="Trazado 4631" d="M158.015,451.525a9.73,9.73,0,1,1,9.73-9.729A9.739,9.739,0,0,1,158.015,451.525Zm0-17.626a7.9,7.9,0,1,0,7.9,7.9A7.906,7.906,0,0,0,158.015,433.9Z" transform="translate(-148.286 -432.066)" fill="#161615"/>
    </g>
    <g id="Grupo_4730" data-name="Grupo 4730" transform="translate(94.6 8.765)">
      <circle id="Elipse_316" data-name="Elipse 316" cx="8.813" cy="8.813" r="8.813" transform="translate(0.916 0.917)" fill="#fff"/>
      <path id="Trazado_4632" data-name="Trazado 4632" d="M177.63,451.525a9.73,9.73,0,1,1,9.73-9.729A9.74,9.74,0,0,1,177.63,451.525Zm0-17.626a7.9,7.9,0,1,0,7.9,7.9A7.906,7.906,0,0,0,177.63,433.9Z" transform="translate(-167.901 -432.066)" fill="#161615"/>
    </g>
  </g>
  <g id="Grupo_4755" data-name="Grupo 4755">
    <g id="Grupo_4737" data-name="Grupo 4737">
      <path id="Trazado_4633" data-name="Trazado 4633" d="M68.763,315.589c-2.176-3.431-2.977-9.236-.719-9.549,2.277-.315.207,5.082,2.552,8.2Z" transform="translate(-61.184 -303.154)" fill="#161615"/>
      <path id="Trazado_4634" data-name="Trazado 4634" d="M71.494,314.691c-1.6-4.543-.939-11.63,1.566-10.972,2.277.6-1.032,5.785.832,10.033Z" transform="translate(-60.31 -303.676)" fill="#161615"/>
      <path id="Trazado_4635" data-name="Trazado 4635" d="M73.548,313.912c1.016-4.708,5.274-10.4,7.072-8.534,1.706,1.769-3.9,4.391-4.537,8.987Z" transform="translate(-59.66 -303.379)" fill="#161615"/>
      <path id="Trazado_4636" data-name="Trazado 4636" d="M78.356,316.3c2.755.452,4.234-1.729,5.721-.33s-3.4,3.679-6.009,3.208Z" transform="translate(-58.656 -301.05)" fill="#161615"/>
      <g id="Grupo_4732" data-name="Grupo 4732" transform="translate(0 17.584)">
        <path id="Trazado_4637" data-name="Trazado 4637" d="M109.441,378.145c-26.661.87-49.553-25.211-32.457-55.927l-5.8-3.188c-15.069,19.415-12.75,62.3,33.9,68.679Z" transform="translate(-62.025 -317.848)" fill="#fff"/>
        <path id="Trazado_4638" data-name="Trazado 4638" d="M105.807,388.923l-.676-.092c-19.6-2.678-33.73-12.34-39.8-27.2-5.69-13.94-3.514-31.6,5.292-42.946l.479-.618,7.289,4.01-.447.805c-7.373,13.244-7.743,26.59-1.041,37.575,6.661,10.921,19.183,17.443,32.666,16.989l1.475-.048ZM71.6,320.429c-8.028,10.869-9.922,27.4-4.571,40.506,4.07,9.975,13.913,22.53,37.673,25.984l3.464-7.621c-13.586-.038-26.065-6.8-32.827-17.89-6.923-11.35-6.715-25.03.562-38.613Z" transform="translate(-62.186 -318.063)" fill="#161615"/>
      </g>
      <g id="Grupo_4733" data-name="Grupo 4733" transform="translate(5.937 7.009)">
        <circle id="Elipse_317" data-name="Elipse 317" cx="7.15" cy="7.15" r="7.15" transform="translate(0.917 0.917)" fill="#fff"/>
        <path id="Trazado_4639" data-name="Trazado 4639" d="M75.11,325.543a8.066,8.066,0,1,1,8.066-8.066A8.076,8.076,0,0,1,75.11,325.543Zm0-14.3a6.233,6.233,0,1,0,6.232,6.233A6.241,6.241,0,0,0,75.11,311.244Z" transform="translate(-67.043 -309.411)" fill="#161615"/>
      </g>
      <g id="Grupo_4736" data-name="Grupo 4736" transform="translate(0.882 18.766)">
        <g id="Grupo_4735" data-name="Grupo 4735" clip-path="url(#clip-path)">
          <g id="Grupo_4734" data-name="Grupo 4734" transform="translate(-2.677 0.251)">
            <path id="Trazado_4640" data-name="Trazado 4640" d="M76,326.419a12.912,12.912,0,0,1-8.014-2.766,6.08,6.08,0,0,1-2.5-4.373l1.833-.045a4.318,4.318,0,0,0,1.828,3,11.18,11.18,0,0,0,8.488,2.216l.306,1.806A11.689,11.689,0,0,1,76,326.419Z" transform="translate(-59.657 -319.235)" fill="#161615"/>
            <path id="Trazado_4641" data-name="Trazado 4641" d="M65.956,328.074a5.281,5.281,0,0,1-2.495-3.567l1.822-.193a4.313,4.313,0,0,0,2.063,2.842,11.169,11.169,0,0,0,8.633,1.52l.451,1.776a6.583,6.583,0,0,1-3.063-.1A11.961,11.961,0,0,1,65.956,328.074Z" transform="translate(-60.107 -318.106)" fill="#161615"/>
            <path id="Trazado_4642" data-name="Trazado 4642" d="M64.07,334.184a4.5,4.5,0,0,1-2.47-2.713l1.786-.409a4.3,4.3,0,0,0,2.387,2.574,11.161,11.161,0,0,0,8.748.48l.658,1.709a7.021,7.021,0,0,1-4.239.033A11.008,11.008,0,0,1,64.07,334.184Z" transform="translate(-60.521 -316.607)" fill="#161615"/>
            <path id="Trazado_4643" data-name="Trazado 4643" d="M63.088,341.538a3.7,3.7,0,0,1-2.371-1.818l1.687-.71a4.3,4.3,0,0,0,2.8,2.125,11.155,11.155,0,0,0,8.7-1.033l.942,1.569a7.994,7.994,0,0,1-5.382.772A10.025,10.025,0,0,1,63.088,341.538Z" transform="translate(-60.717 -314.84)" fill="#161615"/>
            <path id="Trazado_4644" data-name="Trazado 4644" d="M63.826,350.3a2.911,2.911,0,0,1-2.111-.929l1.47-1.091a4.3,4.3,0,0,0,3.219,1.4,11.159,11.159,0,0,0,8.2-3.07l1.287,1.3a9.139,9.139,0,0,1-6.209,2.365A9.037,9.037,0,0,1,63.826,350.3Z" transform="translate(-60.495 -313.151)" fill="#161615"/>
            <path id="Trazado_4645" data-name="Trazado 4645" d="M67.231,359.918a2.137,2.137,0,0,1-1.612-.215l1.085-1.475a4.287,4.287,0,0,0,3.489.394,11.155,11.155,0,0,0,6.942-5.341l1.613.864a10.366,10.366,0,0,1-6.237,4.78A8.053,8.053,0,0,1,67.231,359.918Z" transform="translate(-59.628 -311.669)" fill="#161615"/>
            <path id="Trazado_4646" data-name="Trazado 4646" d="M74.145,368.8a1.4,1.4,0,0,1-.944.106l.592-1.733a4.287,4.287,0,0,0,3.45-.675,11.161,11.161,0,0,0,5.016-7.186l1.8.34a11.633,11.633,0,0,1-5.22,7.423A7.1,7.1,0,0,1,74.145,368.8Z" transform="translate(-57.943 -310.329)" fill="#161615"/>
            <path id="Trazado_4647" data-name="Trazado 4647" d="M85.178,376.3q-.152,0-.3-.011l.133-1.828a4.284,4.284,0,0,0,3.169-1.527,11.166,11.166,0,0,0,3.037-8.227l1.828-.127a12.913,12.913,0,0,1-3.571,9.653A6.274,6.274,0,0,1,85.178,376.3Z" transform="translate(-55.348 -309.157)" fill="#161615"/>
          </g>
        </g>
      </g>
    </g>
    <g id="Grupo_4738" data-name="Grupo 4738" transform="translate(80.99 10.614)">
      <path id="Trazado_4649" data-name="Trazado 4649" d="M223.422,450.551H187.586a16.909,16.909,0,0,0,14.642-25.361L142.388,321.531a16.691,16.691,0,0,0-13.909-8.421l36.252.122a16.517,16.517,0,0,1,13.7,8.336l59.731,103.45A17.023,17.023,0,0,1,223.422,450.551Z" transform="translate(-128.442 -312.193)" fill="#d9eef3"/>
      <path id="Trazado_4650" data-name="Trazado 4650" d="M223.429,451.634H187.593V449.8a15.992,15.992,0,0,0,13.849-23.986L141.6,322.156a15.868,15.868,0,0,0-13.153-7.964l.04-1.832,36.252.122a17.553,17.553,0,0,1,14.492,8.794l59.731,103.45a17.939,17.939,0,0,1-15.535,26.908Zm-27.9-1.833h27.9a16.106,16.106,0,0,0,13.947-24.158l-59.731-103.45a15.509,15.509,0,0,0-12.95-7.879l-28.935-.1a17.771,17.771,0,0,1,7.429,7.022L203.03,424.9a17.887,17.887,0,0,1-7.5,24.9Z" transform="translate(-128.449 -312.36)" fill="#161615"/>
    </g>
    <g id="Grupo_4739" data-name="Grupo 4739" transform="translate(2.59 10.595)">
      <path id="Trazado_4651" data-name="Trazado 4651" d="M201.681,450.554H81.988a16.909,16.909,0,0,1-14.642-25.361l59.841-103.658a16.935,16.935,0,0,1,29.3,0l59.841,103.658A16.909,16.909,0,0,1,201.681,450.554Z" transform="translate(-64.137 -312.178)" fill="#fff"/>
      <path id="Trazado_4652" data-name="Trazado 4652" d="M201.848,451.637H82.155A17.826,17.826,0,0,1,66.719,424.9L126.56,321.243a17.852,17.852,0,0,1,30.885,0L217.285,424.9a17.827,17.827,0,0,1-15.437,26.736ZM141.931,314.18a15.7,15.7,0,0,0-13.783,7.98L68.307,425.818A15.992,15.992,0,0,0,82.155,449.8H201.848A15.992,15.992,0,0,0,215.7,425.818L155.857,322.16A15.868,15.868,0,0,0,142.7,314.2C142.445,314.186,142.187,314.18,141.931,314.18Z" transform="translate(-64.304 -312.345)" fill="#161615"/>
    </g>
    <g id="Grupo_4740" data-name="Grupo 4740" transform="translate(5.997 122.688)">
      <line id="Línea_32" data-name="Línea 32" x2="148.975" transform="translate(0 0.917)" fill="#fff"/>
      <rect id="Rectángulo_2363" data-name="Rectángulo 2363" width="148.975" height="1.833" fill="#161615"/>
    </g>
    <rect id="Rectángulo_2364" data-name="Rectángulo 2364" width="60.87" height="1.833" transform="translate(50.049 46.39)" fill="#161615"/>
    <rect id="Rectángulo_2365" data-name="Rectángulo 2365" width="35.741" height="1.833" transform="translate(110.919 46.528)" fill="#161615"/>
    <rect id="Rectángulo_2366" data-name="Rectángulo 2366" width="35.742" height="1.833" transform="translate(154.88 122.688)" fill="#161615"/>
    <g id="Grupo_4743" data-name="Grupo 4743" transform="translate(37.185 123.344)">
      <g id="Grupo_4741" data-name="Grupo 4741">
        <line id="Línea_33" data-name="Línea 33" y1="25.284" transform="translate(0.917)" fill="#fff"/>
        <rect id="Rectángulo_2367" data-name="Rectángulo 2367" width="1.833" height="25.284" transform="translate(0 0)" fill="#161615"/>
      </g>
      <g id="Grupo_4742" data-name="Grupo 4742" transform="translate(84.765)">
        <line id="Línea_34" data-name="Línea 34" y1="25.284" transform="translate(0.917)" fill="#fff"/>
        <rect id="Rectángulo_2368" data-name="Rectángulo 2368" width="1.833" height="25.284" transform="translate(0 0)" fill="#161615"/>
      </g>
    </g>
    <g id="Grupo_4744" data-name="Grupo 4744" transform="translate(103.602 130.02)">
      <circle id="Elipse_318" data-name="Elipse 318" cx="6.073" cy="6.073" r="6.073" transform="translate(0.916 0.916)" fill="#fff"/>
      <path id="Trazado_4653" data-name="Trazado 4653" d="M153.939,424.034a6.989,6.989,0,1,1,6.991-6.99A7,7,0,0,1,153.939,424.034Zm0-12.145a5.156,5.156,0,1,0,5.158,5.155A5.161,5.161,0,0,0,153.939,411.888Z" transform="translate(-146.95 -410.055)" fill="#161615"/>
    </g>
    <g id="Grupo_4745" data-name="Grupo 4745" transform="translate(93.524 132.436)">
      <circle id="Elipse_319" data-name="Elipse 319" cx="3.657" cy="3.657" r="3.657" transform="translate(0.916 0.917)" fill="#fff"/>
      <path id="Trazado_4654" data-name="Trazado 4654" d="M143.276,421.178a4.574,4.574,0,1,1,4.574-4.574A4.578,4.578,0,0,1,143.276,421.178Zm0-7.314a2.74,2.74,0,1,0,2.74,2.74A2.743,2.743,0,0,0,143.276,413.864Z" transform="translate(-138.704 -412.031)" fill="#161615"/>
    </g>
    <g id="Grupo_4751" data-name="Grupo 4751" transform="translate(141.048 80.91)">
      <path id="Trazado_4655" data-name="Trazado 4655" d="M208.9,432.042c2.177,3.431,2.979,9.236.719,9.549-2.276.315-.205-5.083-2.552-8.2Z" transform="translate(-171.036 -356.058)" fill="#161615"/>
      <path id="Trazado_4656" data-name="Trazado 4656" d="M206.052,433.2c1.6,4.543.94,11.63-1.564,10.972-2.278-.6,1.032-5.785-.832-10.033Z" transform="translate(-171.794 -355.8)" fill="#161615"/>
      <path id="Trazado_4657" data-name="Trazado 4657" d="M204.748,433.68c-1.014,4.707-5.274,10.4-7.071,8.534-1.706-1.77,3.9-4.392,4.537-8.987Z" transform="translate(-173.194 -355.795)" fill="#161615"/>
      <path id="Trazado_4658" data-name="Trazado 4658" d="M199.74,430.277c-2.755-.452-4.235,1.729-5.723.33s3.4-3.679,6.009-3.208Z" transform="translate(-173.997 -357.104)" fill="#161615"/>
      <g id="Grupo_4746" data-name="Grupo 4746">
        <path id="Trazado_4659" data-name="Trazado 4659" d="M183.835,380.126c20.009,1.494,38.377,21.055,24.068,56.036l5.8,3.188c15.069-19.415,12.75-62.3-33.9-68.679a5.658,5.658,0,0,0,4.041,9.455Z" transform="translate(-177.421 -369.697)" fill="#fff"/>
        <path id="Trazado_4660" data-name="Trazado 4660" d="M214.11,440.708l-7.2-3.959.309-.757c8.4-20.527,4.77-33.548.251-40.853a29.832,29.832,0,0,0-23.522-13.92,6.574,6.574,0,0,1-4.671-10.983l.325-.362.482.066c19.6,2.678,33.73,12.339,39.8,27.206,5.69,13.938,3.513,31.6-5.292,42.943Zm-4.885-4.779,4.389,2.414c8.028-10.869,9.922-27.4,4.571-40.505-4.081-10-13.958-22.589-37.839-26.009a4.737,4.737,0,0,0,3.685,7.558l.038,0a31.647,31.647,0,0,1,24.962,14.784C213.719,401.751,217.515,415.12,209.225,435.929Z" transform="translate(-177.587 -369.874)" fill="#161615"/>
      </g>
      <g id="Grupo_4747" data-name="Grupo 4747" transform="translate(23.373 65.276)">
        <circle id="Elipse_320" data-name="Elipse 320" cx="7.15" cy="7.15" r="7.15" transform="translate(0.917 0.917)" fill="#fff"/>
        <path id="Trazado_4661" data-name="Trazado 4661" d="M204.777,439.413a8.066,8.066,0,1,1,8.066-8.066A8.075,8.075,0,0,1,204.777,439.413Zm0-14.3a6.233,6.233,0,1,0,6.232,6.233A6.241,6.241,0,0,0,204.777,425.114Z" transform="translate(-196.71 -423.281)" fill="#161615"/>
      </g>
      <g id="Grupo_4750" data-name="Grupo 4750" transform="translate(0.912 0.974)">
        <g id="Grupo_4749" data-name="Grupo 4749" clip-path="url(#clip-path-2)">
          <g id="Grupo_4748" data-name="Grupo 4748" transform="translate(8.606 1.283)">
            <path id="Trazado_4662" data-name="Trazado 4662" d="M211.9,427.963a4.327,4.327,0,0,0-1.83-3,11.156,11.156,0,0,0-8.487-2.213l-.306-1.808a12.908,12.908,0,0,1,9.959,2.606,6.084,6.084,0,0,1,2.5,4.373Z" transform="translate(-181.84 -360.818)" fill="#161615"/>
            <path id="Trazado_4663" data-name="Trazado 4663" d="M202.885,416.665a12.9,12.9,0,0,1,10.127,1.792,6.081,6.081,0,0,1,2.842,4.153l-1.822.193a4.323,4.323,0,0,0-2.066-2.843,11.148,11.148,0,0,0-8.631-1.519Z" transform="translate(-181.483 -361.812)" fill="#161615"/>
            <path id="Trazado_4664" data-name="Trazado 4664" d="M204.241,411.232a12.9,12.9,0,0,1,10.264.571,6.084,6.084,0,0,1,3.315,3.783l-1.786.409a4.323,4.323,0,0,0-2.388-2.575,11.142,11.142,0,0,0-8.746-.479Z" transform="translate(-181.181 -363.118)" fill="#161615"/>
            <path id="Trazado_4665" data-name="Trazado 4665" d="M204.683,405.358a12.881,12.881,0,0,1,10.206-1.2,6.085,6.085,0,0,1,3.915,3.155l-1.688.711a4.317,4.317,0,0,0-2.8-2.126,11.136,11.136,0,0,0-8.7,1.032Z" transform="translate(-181.083 -364.636)" fill="#161615"/>
            <path id="Trazado_4666" data-name="Trazado 4666" d="M203.629,399.222a12.892,12.892,0,0,1,9.629-3.595,6.094,6.094,0,0,1,4.552,2.134l-1.47,1.091a4.331,4.331,0,0,0-3.221-1.4,11.149,11.149,0,0,0-8.2,3.07Z" transform="translate(-181.317 -366.414)" fill="#161615"/>
            <path id="Trazado_4667" data-name="Trazado 4667" d="M200.609,393.314a12.9,12.9,0,0,1,8.152-6.264,6.1,6.1,0,0,1,4.979.705l-1.087,1.475a4.326,4.326,0,0,0-3.49-.394,11.148,11.148,0,0,0-6.942,5.341Z" transform="translate(-181.989 -368.362)" fill="#161615"/>
            <path id="Trazado_4668" data-name="Trazado 4668" d="M194.868,388.1a12.9,12.9,0,0,1,5.895-8.429,6.1,6.1,0,0,1,4.962-.824l-.592,1.733a4.334,4.334,0,0,0-3.449.675,11.158,11.158,0,0,0-5.017,7.186Z" transform="translate(-183.264 -370.187)" fill="#161615"/>
            <path id="Trazado_4669" data-name="Trazado 4669" d="M185.4,383.44a12.913,12.913,0,0,1,3.571-9.654,6.114,6.114,0,0,1,4.6-2.055l-.134,1.828a4.338,4.338,0,0,0-3.169,1.527,11.164,11.164,0,0,0-3.036,8.227Z" transform="translate(-185.374 -371.721)" fill="#161615"/>
          </g>
        </g>
      </g>
    </g>
    <g id="Grupo_4754" data-name="Grupo 4754" transform="translate(34.111 65.296)">
      <g id="Grupo_4752" data-name="Grupo 4752">
        <rect id="Rectángulo_2369" data-name="Rectángulo 2369" width="90.431" height="47.229" rx="19.321" transform="translate(0.917 0.917)" fill="#161615"/>
        <path id="Trazado_4671" data-name="Trazado 4671" d="M157.828,406.161h-43.2a24.531,24.531,0,1,1,0-49.062h43.2a24.531,24.531,0,1,1,0,49.062Zm-43.2-47.228a22.7,22.7,0,1,0,0,45.4h43.2a22.7,22.7,0,1,0,0-45.4Z" transform="translate(-90.094 -357.099)" fill="#161615"/>
      </g>
      <g id="Grupo_4753" data-name="Grupo 4753" transform="translate(0.001)">
        <path id="Trazado_4672" data-name="Trazado 4672" d="M120.168,405.079h-5.71a23.615,23.615,0,0,1,0-47.23h5.71a23.615,23.615,0,1,0,0,47.23Z" transform="translate(-89.928 -356.932)" fill="#d9eef3"/>
        <path id="Trazado_4673" data-name="Trazado 4673" d="M120.334,406.162h-5.71a24.532,24.532,0,0,1,0-49.063h5.71v1.833a22.7,22.7,0,1,0,0,45.4Zm-10.409-46.741a22.7,22.7,0,0,0-.013,44.416,24.561,24.561,0,0,1,.013-44.416Z" transform="translate(-90.095 -357.099)" fill="#161615"/>
      </g>
      <path id="Trazado_4674" data-name="Trazado 4674" d="M124.2,383.971a1.834,1.834,0,0,1-1.833-1.833,5.286,5.286,0,0,0-10.571,0,1.833,1.833,0,0,1-3.667,0,8.952,8.952,0,0,1,17.9,0A1.833,1.833,0,0,1,124.2,383.971Z" transform="translate(-86.085 -353.524)" fill="#fff"/>
      <path id="Trazado_4675" data-name="Trazado 4675" d="M147.93,383.971a1.833,1.833,0,0,1-1.833-1.833,5.286,5.286,0,0,0-10.571,0,1.833,1.833,0,0,1-3.667,0,8.952,8.952,0,0,1,17.9,0A1.834,1.834,0,0,1,147.93,383.971Z" transform="translate(-80.812 -353.524)" fill="#fff"/>
    </g>
  </g>
  <path id="Trazado_4676" data-name="Trazado 4676" d="M214.763,440.392H91.439a17.651,17.651,0,0,1,17.356-14.752h88.612A17.661,17.661,0,0,1,214.763,440.392Z" transform="translate(-55.684 -276.571)" fill="#161615" opacity="0.4"/>
</svg>
