<svg xmlns="http://www.w3.org/2000/svg" xmlns:xlink="http://www.w3.org/1999/xlink" width="232.187" height="211.779" viewBox="0 0 232.187 211.779">
  <defs>
    <clipPath id="clip-path">
      <path id="Trazado_3312" data-name="Trazado 3312" d="M367.1,572.214c-26.482,2.176-46.253,30.474-29.237,68.067l-7.039,3.872c-18.3-23.584-15.488-75.679,41.183-83.422a6.871,6.871,0,0,1-4.907,11.484Z" transform="translate(-320.764 -560.73)" fill="none"/>
    </clipPath>
    <clipPath id="clip-path-2">
      <path id="Trazado_3331" data-name="Trazado 3331" d="M438.429,574.284c26.483,2.176,46.254,30.474,29.237,68.067l7.04,3.872c18.3-23.584,15.488-75.68-41.184-83.424a6.873,6.873,0,0,0,4.907,11.485Z" transform="translate(-431.747 -562.799)" fill="none"/>
    </clipPath>
  </defs>
  <g id="Grupo_4482" data-name="Grupo 4482" transform="translate(-317.951 -510.578)">
    <g id="Grupo_4479" data-name="Grupo 4479" transform="translate(317.951 510.578)">
      <g id="Grupo_4472" data-name="Grupo 4472" transform="translate(3.053 73.279)">
        <path id="Trazado_3299" data-name="Trazado 3299" d="M327.065,622.1c-2.644,4.167-3.618,11.22-.873,11.6,2.764.383.249-6.173,3.1-9.966Z" transform="translate(-317.964 -529.965)" fill="#161615"/>
        <path id="Trazado_3300" data-name="Trazado 3300" d="M329.537,623.262c-1.94,5.518-1.142,14.126,1.9,13.328,2.767-.726-1.253-7.027,1.011-12.187Z" transform="translate(-316.057 -529.402)" fill="#161615"/>
        <path id="Trazado_3301" data-name="Trazado 3301" d="M331.4,623.836c1.232,5.719,6.406,12.63,8.589,10.366,2.073-2.148-4.742-5.334-5.511-10.917Z" transform="translate(-314.641 -529.391)" fill="#161615"/>
        <path id="Trazado_3302" data-name="Trazado 3302" d="M336.274,620.966c3.346-.549,5.144,2.1,6.951.4s-4.126-4.469-7.3-3.9Z" transform="translate(-312.451 -532.246)" fill="#161615"/>
        <path id="Trazado_3303" data-name="Trazado 3303" d="M367.1,572.214c-24.305,1.814-46.617,25.576-29.237,68.067l-7.039,3.872c-18.3-23.584-15.488-75.679,41.183-83.422a6.871,6.871,0,0,1-4.907,11.484Z" transform="translate(-319.798 -559.708)" fill="#fff"/>
        <path id="Trazado_3303_-_Contorno" data-name="Trazado 3303 - Contorno" d="M372.594,559.933l.341.379a7.9,7.9,0,0,1,1.9,3.891,7.819,7.819,0,0,1-7.471,9.2,38.505,38.505,0,0,0-16.21,4.93,35.731,35.731,0,0,0-6.9,5.151,35.128,35.128,0,0,0-5.584,6.9,40.76,40.76,0,0,0-5.806,20.865c-.192,8.813,1.86,18.536,6.1,28.9l.325.794-8.51,4.681-.5-.649a51.252,51.252,0,0,1-9.713-24.05,54.21,54.21,0,0,1,3.3-27.964,48.6,48.6,0,0,1,6.5-11.314,49.871,49.871,0,0,1,10.019-9.74c8.41-6.17,19.077-10.173,31.7-11.9Zm-35.731,80.141c-4.121-10.311-6.112-20.021-5.919-28.872a42.654,42.654,0,0,1,6.093-21.835,37.051,37.051,0,0,1,5.89-7.276,37.652,37.652,0,0,1,7.268-5.429,40.439,40.439,0,0,1,17.045-5.182l.041,0a5.906,5.906,0,0,0,4.538-9.5c-12.074,1.72-22.264,5.577-30.3,11.469a47.953,47.953,0,0,0-9.633,9.364,46.676,46.676,0,0,0-6.241,10.866,52.285,52.285,0,0,0-3.181,26.971,49.675,49.675,0,0,0,8.832,22.483Z" transform="translate(-320.011 -559.933)" fill="#161615"/>
        <circle id="Elipse_262" data-name="Elipse 262" cx="8.908" cy="8.908" r="8.908" transform="translate(8.396 80.45)" fill="#fff"/>
        <path id="Elipse_262_-_Contorno" data-name="Elipse 262 - Contorno" d="M9.12-.75A9.87,9.87,0,1,1-.75,9.12,9.881,9.881,0,0,1,9.12-.75Zm0,17.816A7.946,7.946,0,1,0,1.174,9.12,7.955,7.955,0,0,0,9.12,17.066Z" transform="translate(8.184 80.238)" fill="#161615"/>
        <g id="Grupo_4471" data-name="Grupo 4471" transform="translate(0.966 1.022)">
          <g id="Grupo_4470" data-name="Grupo 4470" clip-path="url(#clip-path)">
            <g id="Grupo_4469" data-name="Grupo 4469" transform="translate(-3.251 1.708)">
              <path id="Trazado_3304" data-name="Trazado 3304" d="M325.284,619.427l-1.923-.049a7.236,7.236,0,0,1,2.976-5.2,15.53,15.53,0,0,1,11.977-3.135l-.32,1.9a13.28,13.28,0,0,0-5.733.348,13.034,13.034,0,0,0-4.7,2.374A5.394,5.394,0,0,0,325.284,619.427Z" transform="translate(-316.103 -537.993)" fill="#161615"/>
              <path id="Trazado_3305" data-name="Trazado 3305" d="M323.249,614.211l-1.915-.183a7.237,7.237,0,0,1,3.333-4.974,15.513,15.513,0,0,1,12.154-2.287l-.452,1.87a13.26,13.26,0,0,0-5.735-.053,13.023,13.023,0,0,0-4.85,2.037A5.4,5.4,0,0,0,323.249,614.211Z" transform="translate(-317.086 -540.165)" fill="#161615"/>
              <path id="Trazado_3306" data-name="Trazado 3306" d="M321.313,607.227l-1.882-.4a7.231,7.231,0,0,1,3.876-4.559,15.506,15.506,0,0,1,12.331-.884l-.663,1.806a13.254,13.254,0,0,0-5.689-.707,13.016,13.016,0,0,0-5.048,1.47A5.389,5.389,0,0,0,321.313,607.227Z" transform="translate(-318.011 -543.009)" fill="#161615"/>
              <path id="Trazado_3307" data-name="Trazado 3307" d="M320.266,599.029l-1.786-.714a7.227,7.227,0,0,1,4.592-3.832,15.5,15.5,0,0,1,12.3,1.225l-.96,1.667a13.256,13.256,0,0,0-5.486-1.664,13.013,13.013,0,0,0-5.224.59A5.386,5.386,0,0,0,320.266,599.029Z" transform="translate(-318.48 -546.29)" fill="#161615"/>
              <path id="Trazado_3308" data-name="Trazado 3308" d="M335.131,591.529A13.253,13.253,0,0,0,330.2,588.6a13.011,13.011,0,0,0-5.213-.677A5.39,5.39,0,0,0,321,589.753l-1.563-1.121a7.233,7.233,0,0,1,5.379-2.622,15.506,15.506,0,0,1,11.648,4.131Z" transform="translate(-318.034 -550.06)" fill="#161615"/>
              <path id="Trazado_3309" data-name="Trazado 3309" d="M337.452,585.685a13.257,13.257,0,0,0-3.829-4.268,13.02,13.02,0,0,0-4.774-2.2,5.391,5.391,0,0,0-4.357.552l-1.157-1.537a7.233,7.233,0,0,1,5.917-.9,15.507,15.507,0,0,1,9.884,7.425Z" transform="translate(-316.176 -554.354)" fill="#161615"/>
              <path id="Trazado_3310" data-name="Trazado 3310" d="M342.127,580.457a13.268,13.268,0,0,0-2.335-5.24,13.026,13.026,0,0,0-3.869-3.566,5.393,5.393,0,0,0-4.318-.813l-.629-1.818a7.236,7.236,0,0,1,5.908.964,15.517,15.517,0,0,1,7.132,10.107Z" transform="translate(-312.515 -558.405)" fill="#161615"/>
              <path id="Trazado_3311" data-name="Trazado 3311" d="M352.491,575.852l-1.919-.132a13.271,13.271,0,0,0-.91-5.668,13.038,13.038,0,0,0-2.824-4.444,5.4,5.4,0,0,0-3.968-1.9l-.14-1.918a7.241,7.241,0,0,1,5.466,2.454A15.525,15.525,0,0,1,352.491,575.852Z" transform="translate(-306.856 -561.778)" fill="#161615"/>
            </g>
          </g>
        </g>
      </g>
      <path id="Trazado_3313" data-name="Trazado 3313" d="M515.37,678.327H365.943a20.676,20.676,0,0,1-17.908-31.01l68.7-118.984-17.047-16.946,44.387.143a20.093,20.093,0,0,1,16.653,10.13l72.544,125.658A20.671,20.671,0,0,1,515.37,678.327Z" transform="translate(-304.885 -510.343)" fill="#d9eef3"/>
      <path id="Trazado_3313_-_Contorno" data-name="Trazado 3313 - Contorno" d="M515.589,679.546H366.162a21.632,21.632,0,0,1-18.772-32.506L415.706,528.72,397.481,510.6l46.858.151a21.429,21.429,0,0,1,9.833,2.889,21.035,21.035,0,0,1,7.639,7.738L534.355,647.04a21.629,21.629,0,0,1-18.766,32.506ZM402.333,512.614,418.2,528.388,349.118,648.037a19.679,19.679,0,0,0,17.044,29.514H515.589a19.674,19.674,0,0,0,17.038-29.513L460.083,522.379a19.064,19.064,0,0,0-6.92-7.015,19.427,19.427,0,0,0-8.894-2.616Z" transform="translate(-305.105 -510.565)" fill="#161615"/>
      <path id="Trazado_3314" data-name="Trazado 3314" d="M394.2,521.627l-72.691,125.9A20.541,20.541,0,0,0,339.3,678.342H484.682a20.541,20.541,0,0,0,17.789-30.811l-72.69-125.9A20.541,20.541,0,0,0,394.2,521.627Z" transform="translate(-317.732 -510.358)" fill="#fff"/>
      <path id="Trazado_3314_-_Contorno" data-name="Trazado 3314 - Contorno" d="M412.211,510.578a21.348,21.348,0,0,1,18.653,10.769l72.69,125.9A21.5,21.5,0,0,1,484.9,679.559H339.52a21.5,21.5,0,0,1-18.653-32.307l72.691-125.9a21.345,21.345,0,0,1,18.652-10.769ZM484.9,677.564a19.543,19.543,0,0,0,16.925-29.315l-72.69-125.9a19.543,19.543,0,0,0-33.85,0l-72.691,125.9a19.544,19.544,0,0,0,16.925,29.315Z" transform="translate(-317.951 -510.578)" fill="#161615"/>
      <rect id="Rectángulo_1799" data-name="Rectángulo 1799" width="109.847" height="57.369" rx="19.321" transform="translate(39.283 67.458)" fill="#161615"/>
      <path id="Rectángulo_1799_-_Contorno" data-name="Rectángulo 1799 - Contorno" d="M25-.778H85.289A25.755,25.755,0,0,1,111.064,25v7.814A25.755,25.755,0,0,1,85.289,58.586H25A25.755,25.755,0,0,1-.778,32.811V25A25.755,25.755,0,0,1,25-.778ZM85.289,56.592a23.76,23.76,0,0,0,23.78-23.78V25a23.76,23.76,0,0,0-23.78-23.78H25A23.76,23.76,0,0,0,1.217,25v7.814A23.76,23.76,0,0,0,25,56.592Z" transform="translate(39.063 67.239)" fill="#161615"/>
      <path id="Línea_47" data-name="Línea 47" d="M180.959,1.217H0V-.778H180.959Z" transform="translate(4.019 136.953)" fill="#161615"/>
      <path id="Línea_48" data-name="Línea 48" d="M73.939,1.217H0V-.778H73.939Z" transform="translate(57.529 44.274)" fill="#161615"/>
      <path id="Trazado_3315" data-name="Trazado 3315" d="M380.135,613.491H373.2a28.685,28.685,0,0,1,0-57.37h6.936a28.685,28.685,0,1,0,0,57.37Z" transform="translate(-305.233 -488.663)" fill="#d9eef3"/>
      <path id="Trazado_3315_-_Contorno" data-name="Trazado 3315 - Contorno" d="M380.355,614.708h-6.936a29.315,29.315,0,0,1-11.528-2.343,29.961,29.961,0,0,1-15.809-15.814,29.527,29.527,0,0,1,0-23.052,29.953,29.953,0,0,1,15.808-15.813,29.317,29.317,0,0,1,11.529-2.343h6.936v1.995a27.34,27.34,0,0,0-10.747,2.184,27.936,27.936,0,0,0-14.759,14.757,27.527,27.527,0,0,0,0,21.492,27.973,27.973,0,0,0,14.758,14.758,27.337,27.337,0,0,0,10.749,2.184ZM368.7,557.742a27.322,27.322,0,0,0-6.028,1.781,27.958,27.958,0,0,0-14.752,14.757,27.532,27.532,0,0,0,0,21.492,27.965,27.965,0,0,0,14.753,14.758,27.32,27.32,0,0,0,6.024,1.78,29.969,29.969,0,0,1-15.683-15.758,29.522,29.522,0,0,1,0-23.052A29.932,29.932,0,0,1,368.7,557.742Z" transform="translate(-305.453 -488.883)" fill="#161615"/>
      <path id="Línea_49" data-name="Línea 49" d="M43.415,1.217H0V-.778H43.415Z" transform="translate(131.467 44.442)" fill="#161615"/>
      <path id="Línea_50" data-name="Línea 50" d="M43.415,1.217H0V-.778H43.415Z" transform="translate(184.867 136.953)" fill="#161615"/>
      <g id="Grupo_4473" data-name="Grupo 4473" transform="translate(63.491 88.856)">
        <path id="Trazado_3316" data-name="Trazado 3316" d="M360.822,580.845a11.055,11.055,0,1,0,19.559-10.311" transform="translate(-360.822 -570.534)" fill="#fff"/>
        <path id="Trazado_3317" data-name="Trazado 3317" d="M386.868,570.569a11.055,11.055,0,1,0,19.633,10.17" transform="translate(-348.8 -570.517)" fill="#fff"/>
      </g>
      <g id="Grupo_4474" data-name="Grupo 4474" transform="translate(42.019 136.856)">
        <path id="Línea_51" data-name="Línea 51" d="M1.217,30.713H-.778V0H1.217Z" transform="translate(0.778 0)" fill="#161615"/>
        <path id="Línea_52" data-name="Línea 52" d="M1.217,30.713H-.778V0H1.217Z" transform="translate(103.741 0)" fill="#161615"/>
      </g>
      <circle id="Elipse_263" data-name="Elipse 263" cx="7.377" cy="7.377" r="7.377" transform="translate(123.693 146.078)" fill="#fff"/>
      <path id="Elipse_263_-_Contorno" data-name="Elipse 263 - Contorno" d="M7.6-.778A8.374,8.374,0,1,1-.778,7.6,8.384,8.384,0,0,1,7.6-.778Zm0,14.754A6.38,6.38,0,1,0,1.217,7.6,6.387,6.387,0,0,0,7.6,13.976Z" transform="translate(123.473 145.859)" fill="#161615"/>
      <circle id="Elipse_264" data-name="Elipse 264" cx="4.442" cy="4.442" r="4.442" transform="translate(111.45 149.014)" fill="#fff"/>
      <path id="Elipse_264_-_Contorno" data-name="Elipse 264 - Contorno" d="M4.661-.778A5.439,5.439,0,1,1-.778,4.661,5.445,5.445,0,0,1,4.661-.778Zm0,8.883A3.444,3.444,0,1,0,1.217,4.661,3.448,3.448,0,0,0,4.661,8.106Z" transform="translate(111.231 148.794)" fill="#161615"/>
      <g id="Grupo_4478" data-name="Grupo 4478" transform="translate(167.828 76.35)">
        <path id="Trazado_3318" data-name="Trazado 3318" d="M462.706,624.17c2.644,4.167,3.618,11.22.873,11.6-2.764.383-.251-6.175-3.1-9.966Z" transform="translate(-416.86 -532.034)" fill="#161615"/>
        <path id="Trazado_3319" data-name="Trazado 3319" d="M459.982,625.332c1.94,5.518,1.142,14.126-1.9,13.328-2.767-.728,1.253-7.027-1.013-12.187Z" transform="translate(-418.514 -531.471)" fill="#161615"/>
        <path id="Trazado_3320" data-name="Trazado 3320" d="M459.75,625.906c-1.232,5.717-6.406,12.63-8.59,10.366-2.073-2.148,4.743-5.334,5.511-10.917Z" transform="translate(-421.566 -531.459)" fill="#161615"/>
        <path id="Trazado_3321" data-name="Trazado 3321" d="M454.442,623.036c-3.346-.549-5.144,2.1-6.951.4s4.126-4.469,7.3-3.9Z" transform="translate(-423.318 -534.315)" fill="#161615"/>
        <path id="Trazado_3322" data-name="Trazado 3322" d="M438.429,574.284c24.307,1.814,46.618,25.576,29.237,68.067l7.04,3.872c18.3-23.584,15.488-75.68-41.184-83.424a6.873,6.873,0,0,0,4.907,11.485Z" transform="translate(-430.785 -561.777)" fill="#fff"/>
        <path id="Trazado_3322_-_Contorno" data-name="Trazado 3322 - Contorno" d="M433.359,562l.505.069c12.626,1.725,23.293,5.729,31.7,11.9a49.873,49.873,0,0,1,10.019,9.74,48.6,48.6,0,0,1,6.5,11.314,54.212,54.212,0,0,1,3.3,27.964,51.252,51.252,0,0,1-9.713,24.05l-.5.649-8.511-4.681.325-.794c4.238-10.362,6.29-20.084,6.1-28.9a40.758,40.758,0,0,0-5.805-20.865,35.129,35.129,0,0,0-5.584-6.9,35.725,35.725,0,0,0-6.9-5.152,38.508,38.508,0,0,0-16.211-4.93,7.842,7.842,0,0,1-5.571-13.088Zm41.3,83.2a49.676,49.676,0,0,0,8.832-22.483,52.286,52.286,0,0,0-3.181-26.971,46.676,46.676,0,0,0-6.241-10.867,47.953,47.953,0,0,0-9.634-9.364c-8.032-5.892-18.224-9.75-30.3-11.47a5.908,5.908,0,0,0,4.538,9.5l.041,0a40.444,40.444,0,0,1,17.046,5.182,37.653,37.653,0,0,1,7.269,5.43,37.054,37.054,0,0,1,5.89,7.277,42.653,42.653,0,0,1,6.093,21.835c.192,8.851-1.8,18.561-5.92,28.872Z" transform="translate(-430.997 -562.002)" fill="#161615"/>
        <circle id="Elipse_265" data-name="Elipse 265" cx="8.908" cy="8.908" r="8.908" transform="translate(29.343 80.385)" fill="#fff"/>
        <path id="Elipse_265_-_Contorno" data-name="Elipse 265 - Contorno" d="M9.12-.75A9.87,9.87,0,1,1-.75,9.12,9.881,9.881,0,0,1,9.12-.75Zm0,17.816A7.946,7.946,0,1,0,1.174,9.12,7.955,7.955,0,0,0,9.12,17.066Z" transform="translate(29.131 80.174)" fill="#161615"/>
        <g id="Grupo_4477" data-name="Grupo 4477" transform="translate(0.962 1.022)">
          <g id="Grupo_4476" data-name="Grupo 4476" clip-path="url(#clip-path-2)">
            <g id="Grupo_4475" data-name="Grupo 4475" transform="translate(10.604 1.709)">
              <path id="Trazado_3323" data-name="Trazado 3323" d="M467.7,621.5a5.394,5.394,0,0,0-2.276-3.76,13.035,13.035,0,0,0-4.7-2.374,13.274,13.274,0,0,0-5.732-.349l-.32-1.9a15.528,15.528,0,0,1,11.977,3.135,7.236,7.236,0,0,1,2.976,5.2Z" transform="translate(-431.215 -540.063)" fill="#161615"/>
              <path id="Trazado_3324" data-name="Trazado 3324" d="M469.9,616.281a5.391,5.391,0,0,0-2.531-3.589,13.024,13.024,0,0,0-4.851-2.039,13.27,13.27,0,0,0-5.738.052l-.452-1.87a15.518,15.518,0,0,1,12.157,2.29,7.233,7.233,0,0,1,3.33,4.973Z" transform="translate(-430.401 -542.235)" fill="#161615"/>
              <path id="Trazado_3325" data-name="Trazado 3325" d="M472.065,609.3a5.389,5.389,0,0,0-2.924-3.275,13.018,13.018,0,0,0-5.049-1.47,13.254,13.254,0,0,0-5.69.706l-.662-1.806a15.509,15.509,0,0,1,12.331.886,7.231,7.231,0,0,1,3.875,4.558Z" transform="translate(-429.701 -545.079)" fill="#161615"/>
              <path id="Trazado_3326" data-name="Trazado 3326" d="M473.326,601.1a5.387,5.387,0,0,0-3.437-2.73,13.016,13.016,0,0,0-5.223-.59,13.254,13.254,0,0,0-5.485,1.664l-.96-1.667a15.5,15.5,0,0,1,12.3-1.224,7.229,7.229,0,0,1,4.593,3.833Z" transform="translate(-429.445 -548.36)" fill="#161615"/>
              <path id="Trazado_3327" data-name="Trazado 3327" d="M458.5,593.6l-1.331-1.389a15.5,15.5,0,0,1,11.649-4.13,7.229,7.229,0,0,1,5.376,2.623l-1.563,1.121a5.387,5.387,0,0,0-3.99-1.828,13.01,13.01,0,0,0-5.213.677A13.253,13.253,0,0,0,458.5,593.6Z" transform="translate(-429.927 -552.13)" fill="#161615"/>
              <path id="Trazado_3328" data-name="Trazado 3328" d="M455.778,587.755l-1.685-.928a15.508,15.508,0,0,1,9.884-7.425,7.233,7.233,0,0,1,5.917.9l-1.157,1.537a5.391,5.391,0,0,0-4.357-.552,13.018,13.018,0,0,0-4.774,2.2A13.257,13.257,0,0,0,455.778,587.755Z" transform="translate(-431.388 -556.424)" fill="#161615"/>
              <path id="Trazado_3329" data-name="Trazado 3329" d="M450.219,582.527l-1.889-.365a15.514,15.514,0,0,1,7.13-10.107,7.235,7.235,0,0,1,5.908-.965l-.629,1.818a5.393,5.393,0,0,0-4.317.813,13.025,13.025,0,0,0-3.869,3.566A13.261,13.261,0,0,0,450.219,582.527Z" transform="translate(-434.165 -560.475)" fill="#161615"/>
              <path id="Trazado_3330" data-name="Trazado 3330" d="M438.819,577.922a15.525,15.525,0,0,1,4.3-11.607,7.236,7.236,0,0,1,5.466-2.454l-.14,1.918a5.4,5.4,0,0,0-3.968,1.9,13.038,13.038,0,0,0-2.824,4.444,13.272,13.272,0,0,0-.91,5.668Z" transform="translate(-438.787 -563.848)" fill="#161615"/>
            </g>
          </g>
        </g>
      </g>
    </g>
    <g id="Grupo_4481" data-name="Grupo 4481" transform="translate(355.858 677.727)">
      <g id="Grupo_4480" data-name="Grupo 4480" transform="translate(0 0)">
        <rect id="Rectángulo_1800" data-name="Rectángulo 1800" width="123.561" height="42.707" rx="14.383" transform="translate(0.962 0.962)" fill="#161615"/>
        <path id="Rectángulo_1800_-_Contorno" data-name="Rectángulo 1800 - Contorno" d="M18.657-.75h86.67a19.407,19.407,0,0,1,19.407,19.407v5.817a19.407,19.407,0,0,1-19.407,19.407H18.657A19.407,19.407,0,0,1-.75,24.474V18.657A19.407,19.407,0,0,1,18.657-.75Zm86.67,42.707a17.483,17.483,0,0,0,17.483-17.483V18.657A17.483,17.483,0,0,0,105.327,1.174H18.657A17.483,17.483,0,0,0,1.174,18.657v5.817A17.483,17.483,0,0,0,18.657,41.957Z" transform="translate(0.75 0.75)" fill="#161615"/>
        <rect id="Rectángulo_1801" data-name="Rectángulo 1801" width="78.624" height="42.707" rx="14.383" transform="translate(72.693 0.962)" fill="#fff"/>
        <path id="Rectángulo_1801_-_Contorno" data-name="Rectángulo 1801 - Contorno" d="M18.657-.75H60.391A19.407,19.407,0,0,1,79.8,18.657v5.817A19.407,19.407,0,0,1,60.391,43.881H18.657A19.407,19.407,0,0,1-.75,24.474V18.657A19.407,19.407,0,0,1,18.657-.75ZM60.391,41.957A17.483,17.483,0,0,0,77.874,24.474V18.657A17.483,17.483,0,0,0,60.391,1.174H18.657A17.483,17.483,0,0,0,1.174,18.657v5.817A17.483,17.483,0,0,0,18.657,41.957Z" transform="translate(72.482 0.75)" fill="#161615"/>
        <rect id="Rectángulo_1802" data-name="Rectángulo 1802" width="50.51" height="22.213" rx="6.954" transform="translate(86.751 11.209)" fill="#fff"/>
        <path id="Rectángulo_1802_-_Contorno" data-name="Rectángulo 1802 - Contorno" d="M9.129-.75H41.8a9.891,9.891,0,0,1,9.879,9.879v4.378A9.891,9.891,0,0,1,41.8,23.387H9.129A9.891,9.891,0,0,1-.75,13.508V9.129A9.891,9.891,0,0,1,9.129-.75ZM41.8,21.463a7.965,7.965,0,0,0,7.956-7.956V9.129A7.965,7.965,0,0,0,41.8,1.174H9.129A7.965,7.965,0,0,0,1.174,9.129v4.378a7.965,7.965,0,0,0,7.956,7.956Z" transform="translate(86.539 10.997)" fill="#161615"/>
        <circle id="Elipse_266" data-name="Elipse 266" cx="10.705" cy="10.705" r="10.705" transform="translate(86.751 11.61)" fill="#fff"/>
        <path id="Elipse_266_-_Contorno" data-name="Elipse 266 - Contorno" d="M10.917-.75A11.667,11.667,0,1,1-.75,10.917,11.68,11.68,0,0,1,10.917-.75Zm0,21.411a9.743,9.743,0,1,0-9.743-9.743A9.754,9.754,0,0,0,10.917,20.661Z" transform="translate(86.539 11.398)" fill="#161615"/>
        <circle id="Elipse_267" data-name="Elipse 267" cx="10.705" cy="10.705" r="10.705" transform="translate(115.872 11.61)" fill="#fff"/>
        <path id="Elipse_267_-_Contorno" data-name="Elipse 267 - Contorno" d="M10.917-.75A11.667,11.667,0,1,1-.75,10.917,11.68,11.68,0,0,1,10.917-.75Zm0,21.411a9.743,9.743,0,1,0-9.743-9.743A9.754,9.754,0,0,0,10.917,20.661Z" transform="translate(115.66 11.398)" fill="#161615"/>
      </g>
      <path id="Trazado_3332" data-name="Trazado 3332" d="M494.226,641.832h-149.8a21.441,21.441,0,0,1,21.082-17.92H473.144A21.453,21.453,0,0,1,494.226,641.832Z" transform="translate(-343.185 -622.957)" fill="#161615" opacity="0.4"/>
    </g>
  </g>
</svg>
