<svg xmlns="http://www.w3.org/2000/svg" width="214.767" height="211.163" viewBox="0 0 214.767 211.163">
  <g id="Grupo_4658" data-name="Grupo 4658" transform="translate(-955.986 -279.603)">
    <g id="Grupo_4654" data-name="Grupo 4654" transform="translate(955.986 318.251)">
      <g id="Grupo_4623" data-name="Grupo 4623" transform="translate(0 11.444)">
        <g id="brazoisq" transform="translate(0 9.434)">
          <g id="Grupo_4620" data-name="Grupo 4620">
            <g id="Grupo_4611" data-name="Grupo 4611">
              <path id="Trazado_5225" data-name="Trazado 5225" d="M1001.1,338.8l-2.185-8.995a80.122,80.122,0,0,0-13.414,4.635,59.345,59.345,0,0,0-12.248,7.643,47.047,47.047,0,0,0-9.821,10.915,42.058,42.058,0,0,0-5.737,13.712,40.435,40.435,0,0,0-.472,14.941,38.874,38.874,0,0,0,5.118,14.071,40.681,40.681,0,0,0,9.905,11.163,44.9,44.9,0,0,0,13,6.981c.966.336,2.335-1.382,3.065-3.832h0c.725-2.45.714-4.652-.036-4.915a35.658,35.658,0,0,1-10.335-5.534,31.44,31.44,0,0,1-7.653-8.612,29.6,29.6,0,0,1-3.924-10.776,31.186,31.186,0,0,1,.371-11.493,32.763,32.763,0,0,1,4.482-10.7,37.781,37.781,0,0,1,7.911-8.771,50.061,50.061,0,0,1,10.268-6.4A70.9,70.9,0,0,1,1001.1,338.8Z" transform="translate(-955.829 -328.69)" fill="#fff"/>
              <path id="Trazado_5226" data-name="Trazado 5226" d="M985.655,415a1.674,1.674,0,0,1-.551-.093,45.61,45.61,0,0,1-13.256-7.127,41.861,41.861,0,0,1-10.129-11.413,40.019,40.019,0,0,1-5.237-14.4,41.042,41.042,0,0,1,.483-15.274,42.677,42.677,0,0,1,5.86-14.005,47.8,47.8,0,0,1,10.009-11.127,60.364,60.364,0,0,1,12.432-7.76,80.9,80.9,0,0,1,13.575-4.694l.889-.228,2.614,10.751-.864.225a69.824,69.824,0,0,0-11.553,3.986,49.238,49.238,0,0,0-10.073,6.281,36.76,36.76,0,0,0-7.723,8.56,31.737,31.737,0,0,0-4.36,10.4,30.1,30.1,0,0,0-.362,11.158,28.881,28.881,0,0,0,3.806,10.451,30.371,30.371,0,0,0,7.431,8.362,34.59,34.59,0,0,0,10.073,5.391c1.61.565,1.329,3.6.61,6.031a7.182,7.182,0,0,1-2.778,4.291A1.956,1.956,0,0,1,985.655,415ZM998.4,331.1a77.711,77.711,0,0,0-12.375,4.349,58.684,58.684,0,0,0-12.051,7.521,46,46,0,0,0-9.632,10.7,40.874,40.874,0,0,0-5.614,13.417,39.784,39.784,0,0,0-.463,14.606,38.151,38.151,0,0,0,5,13.744,40.053,40.053,0,0,0,9.687,10.917,43.835,43.835,0,0,0,12.736,6.838c.242-.046,1.254-1.063,1.9-3.234a7.675,7.675,0,0,0,.4-3.85,36.359,36.359,0,0,1-10.456-5.627,32.13,32.13,0,0,1-7.872-8.859,30.3,30.3,0,0,1-4.043-11.113A31.9,31.9,0,0,1,966,368.695a33.552,33.552,0,0,1,4.6-10.993,38.627,38.627,0,0,1,8.1-8.981,51.023,51.023,0,0,1,10.454-6.517,69.949,69.949,0,0,1,11-3.865Z" transform="translate(-955.986 -328.881)" fill="#161615"/>
            </g>
            <g id="Grupo_4612" data-name="Grupo 4612" transform="translate(28.213 5.516)">
              <path id="Trazado_5227" data-name="Trazado 5227" d="M983.08,339.97a28.778,28.778,0,0,1-2.769-6.161l-.667.339a33.2,33.2,0,0,0,3.129,6.573,19.349,19.349,0,0,0,1.128,1.644c.242-.121.468-.253.716-.355a9.312,9.312,0,0,1-1.538-2.04Z" transform="translate(-979.279 -333.372)" fill="#161615"/>
              <path id="Trazado_5228" data-name="Trazado 5228" d="M983.881,342.812l-.151-.194a19.474,19.474,0,0,1-1.149-1.672,33.672,33.672,0,0,1-3.155-6.634l-.084-.242,1.221-.623.1.345a28.426,28.426,0,0,0,2.739,6.1h0a8.563,8.563,0,0,0,1.477,1.964l.362.321-.451.186c-.153.063-.3.139-.441.215-.085.045-.169.091-.257.133Zm-3.8-8.447a33.236,33.236,0,0,0,3.011,6.263c.327.527.649,1,.966,1.419l.022-.01.092-.05a12.045,12.045,0,0,1-1.281-1.79h0a29.433,29.433,0,0,1-2.693-5.89Z" transform="translate(-979.342 -333.447)" fill="#161615"/>
            </g>
            <g id="Grupo_4613" data-name="Grupo 4613" transform="translate(16.687 12.724)">
              <path id="Trazado_5229" data-name="Trazado 5229" d="M974.921,345.135a29.073,29.073,0,0,1-4.207-5.34l-.588.494a33.586,33.586,0,0,0,4.691,5.659c.513.5,1,.928,1.434,1.284l.6-.509A9.872,9.872,0,0,1,974.921,345.135Z" transform="translate(-969.732 -339.335)" fill="#161615"/>
              <path id="Trazado_5230" data-name="Trazado 5230" d="M976.323,347.7l-.194-.157c-.464-.378-.952-.815-1.45-1.3a34,34,0,0,1-4.734-5.711l-.145-.225,1.064-.894.181.306A29.1,29.1,0,0,0,975.207,345a9.047,9.047,0,0,0,1.862,1.535l.394.209Zm-5.728-7.276a33.676,33.676,0,0,0,4.5,5.383c.418.407.829.779,1.22,1.109l.094-.079a12.679,12.679,0,0,1-1.632-1.411h0a30.1,30.1,0,0,1-4.07-5.1Z" transform="translate(-969.8 -339.414)" fill="#161615"/>
            </g>
            <g id="Grupo_4614" data-name="Grupo 4614" transform="translate(7.401 22.906)">
              <path id="Trazado_5231" data-name="Trazado 5231" d="M968.486,352.108a29.358,29.358,0,0,1-5.618-3.894,6.407,6.407,0,0,0-.436.65,34.173,34.173,0,0,0,6.21,4.067c.6.308,1.172.571,1.672.774l.458-.627A10.643,10.643,0,0,1,968.486,352.108Z" transform="translate(-962.047 -347.766)" fill="#161615"/>
              <path id="Trazado_5232" data-name="Trazado 5232" d="M970.485,354.15l-.219-.088c-.483-.2-1.044-.454-1.691-.784a34.611,34.611,0,0,1-6.268-4.107l-.194-.162.127-.22a6.975,6.975,0,0,1,.457-.68l.2-.266.242.222a29.028,29.028,0,0,0,5.557,3.852,10.529,10.529,0,0,0,2.213.943l.446.1Zm-7.593-5.274a34.19,34.19,0,0,0,5.954,3.866c.532.269,1.011.5,1.43.673l.064-.086a14.026,14.026,0,0,1-1.933-.875h0a30.053,30.053,0,0,1-5.426-3.712c-.029.042-.06.088-.089.136Z" transform="translate(-962.113 -347.843)" fill="#161615"/>
            </g>
            <g id="Grupo_4615" data-name="Grupo 4615" transform="translate(1.758 35.703)">
              <path id="Trazado_5233" data-name="Trazado 5233" d="M964.565,360.592a29.932,29.932,0,0,1-6.622-1.82,7.644,7.644,0,0,0-.209.767,35.112,35.112,0,0,0,7.279,1.788c.645.086,1.237.147,1.767.179l.227-.739a11.319,11.319,0,0,1-2.443-.174Z" transform="translate(-957.381 -358.367)" fill="#161615"/>
              <path id="Trazado_5234" data-name="Trazado 5234" d="M967.061,361.9l-.242-.014c-.521-.031-1.122-.093-1.79-.181a35.218,35.218,0,0,1-7.346-1.8l-.242-.089.046-.249a5.394,5.394,0,0,1,.156-.59l.155-.532.314.13a29.747,29.747,0,0,0,6.551,1.8h0a10.99,10.99,0,0,0,2.37.172l.447-.04Zm-8.914-2.474a34.984,34.984,0,0,0,6.966,1.679c.554.074,1.061.128,1.51.161l.031-.1a14.338,14.338,0,0,1-2.073-.194h0a30.649,30.649,0,0,1-6.384-1.713c-.017.052-.035.108-.051.167Z" transform="translate(-957.442 -358.437)" fill="#161615"/>
            </g>
            <g id="Grupo_4616" data-name="Grupo 4616" transform="translate(0.693 48.437)">
              <path id="Trazado_5235" data-name="Trazado 5235" d="M966.043,369.363a11.42,11.42,0,0,1-2.316.668,30.3,30.3,0,0,1-6.886.612l.1.8a35.622,35.622,0,0,0,7.517-.884c.6-.135,1.156-.279,1.643-.426a5.5,5.5,0,0,1-.059-.772Z" transform="translate(-956.501 -368.899)" fill="#161615"/>
              <path id="Trazado_5236" data-name="Trazado 5236" d="M956.736,371.827l-.176-1.418.354.013a30,30,0,0,0,6.811-.6,11.219,11.219,0,0,0,2.25-.645l.416-.195.013.459a5.056,5.056,0,0,0,.058.725l.046.263-.256.077c-.483.146-1.044.292-1.663.434a35.79,35.79,0,0,1-7.585.89Zm.51-.791.023.186a35.331,35.331,0,0,0,7.186-.876c.5-.112.966-.231,1.375-.348l-.01-.121a15.057,15.057,0,0,1-1.973.523,29.727,29.727,0,0,1-6.6.635Z" transform="translate(-956.56 -368.979)" fill="#161615"/>
            </g>
            <g id="Grupo_4617" data-name="Grupo 4617" transform="translate(4.369 58.872)">
              <path id="Trazado_5237" data-name="Trazado 5237" d="M968.07,378.044a11.065,11.065,0,0,1-1.866,1.407,31.272,31.272,0,0,1-6.249,3.047l.362.725a36.773,36.773,0,0,0,6.765-3.539c.5-.331.951-.646,1.34-.945Z" transform="translate(-959.53 -377.528)" fill="#161615"/>
              <path id="Trazado_5238" data-name="Trazado 5238" d="M960.25,383.694l-.647-1.282.327-.112a31.014,31.014,0,0,0,6.185-3.02,10.978,10.978,0,0,0,1.812-1.363l.294-.3.662,1.295-.2.153c-.379.292-.836.614-1.358.958a36.9,36.9,0,0,1-6.821,3.568Zm.2-.937.088.178a36.77,36.77,0,0,0,6.453-3.41c.419-.278.8-.54,1.121-.782l-.058-.121a14.45,14.45,0,0,1-1.617,1.168A31.84,31.84,0,0,1,960.453,382.757Z" transform="translate(-959.603 -377.617)" fill="#161615"/>
            </g>
            <g id="Grupo_4618" data-name="Grupo 4618" transform="translate(12.623 67.765)">
              <path id="Trazado_5239" data-name="Trazado 5239" d="M972.861,385.4a11.6,11.6,0,0,1-1.238,1.94,31.933,31.933,0,0,1-4.806,5.081l.593.56a37.536,37.536,0,0,0,5.145-5.742c.335-.461.636-.9.885-1.295Z" transform="translate(-966.357 -384.891)" fill="#161615"/>
              <path id="Trazado_5240" data-name="Trazado 5240" d="M967.48,393.48l-1.044-.985.263-.217a31.707,31.707,0,0,0,4.759-5.031,11.534,11.534,0,0,0,1.208-1.881l.173-.387,1.068,1-.13.21c-.227.362-.512.782-.9,1.313a37.7,37.7,0,0,1-5.194,5.789Zm-.134-.957.145.137a37.4,37.4,0,0,0,4.9-5.508c.3-.419.542-.766.74-1.069l-.1-.1a14.829,14.829,0,0,1-1.087,1.622,32.517,32.517,0,0,1-4.589,4.914Z" transform="translate(-966.436 -384.979)" fill="#161615"/>
            </g>
            <g id="Grupo_4619" data-name="Grupo 4619" transform="translate(24.203 74.193)">
              <path id="Trazado_5241" data-name="Trazado 5241" d="M979.812,390.671a11.392,11.392,0,0,1-.528,2.191,32.528,32.528,0,0,1-2.9,6.408l.739.329a37.648,37.648,0,0,0,3.043-7.161q.242-.786.4-1.439Z" transform="translate(-975.946 -390.223)" fill="#161615"/>
              <path id="Trazado_5242" data-name="Trazado 5242" d="M977.324,400.065l-1.3-.582.176-.292a32.328,32.328,0,0,0,2.872-6.345,11.184,11.184,0,0,0,.515-2.125l.034-.42,1.364.6-.059.242q-.157.661-.4,1.458a37.744,37.744,0,0,1-3.068,7.221Zm-.436-.856.177.078a37.735,37.735,0,0,0,2.882-6.86q.193-.632.332-1.177l-.15-.066a14.451,14.451,0,0,1-.483,1.847,33.074,33.074,0,0,1-2.758,6.178Z" transform="translate(-976.022 -390.3)" fill="#161615"/>
            </g>
          </g>
        </g>
        <g id="Grupo_4622" data-name="Grupo 4622" transform="translate(33.944)">
          <path id="Trazado_5243" data-name="Trazado 5243" d="M1009.238,344.041c1.57-1.675-1.45-4.7-4.711-7.223s-7.169-4.854-8.2-3.787c-1.986,2.054,2.248,5.557,4.519,7.521C1004.847,344.024,1008.065,345.288,1009.238,344.041Z" transform="translate(-981.647 -318.639)" fill="#161615"/>
          <path id="Trazado_5244" data-name="Trazado 5244" d="M1012.785,337.452c.94-2.115-2.841-4.062-6.7-5.453s-8.235-2.393-8.858-1.04c-1.2,2.612,3.865,4.629,6.608,5.8C1008.679,338.833,1012.089,339.026,1012.785,337.452Z" transform="translate(-981.39 -319.148)" fill="#161615"/>
          <path id="Trazado_5245" data-name="Trazado 5245" d="M1019.848,326.128c-.709-2.24-4.788-1.271-8.554.176s-7.66,3.536-7.221,4.983c.846,2.792,5.919,1.039,8.72.15C1017.736,329.873,1020.377,327.794,1019.848,326.128Z" transform="translate(-979.936 -320.295)" fill="#161615"/>
          <path id="Trazado_5246" data-name="Trazado 5246" d="M995.006,333.413c-2.2.743-.814,4.747,1.022,8.432s4.333,7.489,5.755,7.024c2.743-.888.469-5.855-.708-8.6C999,335.426,996.642,332.863,995.006,333.413Z" transform="translate(-982.049 -318.52)" fill="#161615"/>
          <g id="Grupo_4621" data-name="Grupo 4621">
            <ellipse id="Elipse_373" data-name="Elipse 373" cx="10.535" cy="11.023" rx="10.535" ry="11.023" transform="matrix(0.715, -0.699, 0.699, 0.715, 0, 14.73)" fill="#fff"/>
            <path id="Trazado_5247" data-name="Trazado 5247" d="M999.135,347.054a11.61,11.61,0,0,1-5-1.149,11.81,11.81,0,0,1-5.931-15.2,10.652,10.652,0,0,1,6.085-5.745,11.333,11.333,0,0,1,8.887.447h0a11.813,11.813,0,0,1,5.932,15.2,10.66,10.66,0,0,1-6.087,5.745,11.112,11.112,0,0,1-3.886.7Zm-.958-21.589a9.92,9.92,0,0,0-3.468.625,9.449,9.449,0,0,0-5.4,5.1,10.593,10.593,0,0,0,5.344,13.626,10.135,10.135,0,0,0,7.945.406,9.463,9.463,0,0,0,5.4-5.1,10.6,10.6,0,0,0-5.344-13.628,10.441,10.441,0,0,0-4.489-1.029Z" transform="translate(-983.415 -320.408)" fill="#161615"/>
          </g>
        </g>
      </g>
      <g id="Grupo_4629" data-name="Grupo 4629" transform="translate(52.373 135.954)">
        <g id="Grupo_4624" data-name="Grupo 4624">
          <rect id="Rectángulo_2481" data-name="Rectángulo 2481" width="100.535" height="34.749" rx="14.383" transform="translate(0.906 0.906)" fill="#161615"/>
          <path id="Trazado_5248" data-name="Trazado 5248" d="M1083.407,460.7h-65.785a18.28,18.28,0,0,1,0-36.561h65.785a18.28,18.28,0,0,1,0,36.561Zm-65.785-34.749a16.468,16.468,0,1,0,0,32.937h65.785a16.468,16.468,0,1,0,0-32.937Z" transform="translate(-999.342 -424.144)" fill="#161615"/>
        </g>
        <g id="Grupo_4625" data-name="Grupo 4625" transform="translate(58.363)">
          <rect id="Rectángulo_2482" data-name="Rectángulo 2482" width="63.972" height="34.749" rx="14.383" transform="translate(0.906 0.906)" fill="#fff"/>
          <path id="Trazado_5249" data-name="Trazado 5249" d="M1095.162,460.7h-29.225a18.28,18.28,0,1,1,0-36.561h29.225a18.28,18.28,0,0,1,0,36.561Zm-29.225-34.749a16.468,16.468,0,0,0,0,32.937h29.224a16.468,16.468,0,1,0,0-32.937Z" transform="translate(-1047.657 -424.144)" fill="#161615"/>
        </g>
        <g id="Grupo_4626" data-name="Grupo 4626" transform="translate(69.805 8.342)">
          <rect id="Rectángulo_2483" data-name="Rectángulo 2483" width="41.097" height="18.074" rx="6.954" transform="translate(0.902 0.901)" fill="#fff"/>
          <path id="Trazado_5250" data-name="Trazado 5250" d="M1090.729,450.931h-24.3a9.317,9.317,0,0,1-9.3-9.3v-1.278a9.317,9.317,0,0,1,9.3-9.3h24.3a9.316,9.316,0,0,1,9.3,9.3v1.268a9.316,9.316,0,0,1-9.3,9.311Zm-24.3-18.074a7.5,7.5,0,0,0-7.49,7.489v1.273a7.5,7.5,0,0,0,7.49,7.49h24.3a7.5,7.5,0,0,0,7.49-7.49v-1.268a7.5,7.5,0,0,0-7.489-7.489Z" transform="translate(-1057.129 -431.05)" fill="#161615"/>
        </g>
        <g id="Grupo_4627" data-name="Grupo 4627" transform="translate(69.803 8.665)">
          <circle id="Elipse_374" data-name="Elipse 374" cx="8.711" cy="8.711" r="8.711" transform="translate(0.905 0.905)" fill="#fff"/>
          <path id="Trazado_5251" data-name="Trazado 5251" d="M1066.741,450.548a9.615,9.615,0,1,1,9.617-9.616,9.615,9.615,0,0,1-9.617,9.616Zm0-17.42a7.8,7.8,0,1,0,7.8,7.8,7.8,7.8,0,0,0-7.8-7.8Z" transform="translate(-1057.127 -431.317)" fill="#161615"/>
        </g>
        <g id="Grupo_4628" data-name="Grupo 4628" transform="translate(93.496 8.665)">
          <circle id="Elipse_375" data-name="Elipse 375" cx="8.711" cy="8.711" r="8.711" transform="translate(0.906 0.905)" fill="#fff"/>
          <path id="Trazado_5252" data-name="Trazado 5252" d="M1086.355,450.548a9.615,9.615,0,1,1,9.617-9.616,9.615,9.615,0,0,1-9.617,9.616Zm0-17.42a7.8,7.8,0,1,0,7.8,7.8A7.8,7.8,0,0,0,1086.355,433.128Z" transform="translate(-1076.741 -431.317)" fill="#161615"/>
        </g>
      </g>
      <g id="Grupo_4653" data-name="Grupo 4653" transform="translate(20.754)">
        <g id="Grupo_4630" data-name="Grupo 4630" transform="translate(77.46 0.014)">
          <path id="Trazado_5253" data-name="Trazado 5253" d="M1131.156,448.2h-35.418a16.712,16.712,0,0,0,14.472-25.065l-59.143-102.448a16.5,16.5,0,0,0-13.747-8.323l35.829.121a16.324,16.324,0,0,1,13.541,8.238l59.034,102.243a16.824,16.824,0,0,1-14.568,25.235Z" transform="translate(-1037.284 -311.453)" fill="#d9eef3"/>
          <path id="Trazado_5254" data-name="Trazado 5254" d="M1131.162,449.258h-35.418v-1.812a15.806,15.806,0,0,0,13.688-23.707l-59.142-102.447a15.681,15.681,0,0,0-13-7.871l.04-1.812,35.829.121a17.345,17.345,0,0,1,14.323,8.7l59.034,102.243a17.728,17.728,0,0,1-15.354,26.587Zm-27.574-1.812h27.574a15.916,15.916,0,0,0,13.783-23.868l-59.034-102.243a15.325,15.325,0,0,0-12.8-7.787l-28.6-.1a17.556,17.556,0,0,1,7.342,6.94l59.142,102.447a17.676,17.676,0,0,1-7.413,24.612Z" transform="translate(-1037.29 -311.609)" fill="#161615"/>
        </g>
        <g id="Grupo_4631" data-name="Grupo 4631">
          <path id="Trazado_5255" data-name="Trazado 5255" d="M1108.923,448.2h-118.3a16.712,16.712,0,0,1-14.472-25.065L1035.3,320.686a16.737,16.737,0,0,1,28.955,0l59.142,102.448a16.712,16.712,0,0,1-14.472,25.065Z" transform="translate(-973.011 -311.442)" fill="#fff"/>
          <path id="Trazado_5256" data-name="Trazado 5256" d="M1109.079,449.26h-118.3a17.617,17.617,0,0,1-15.255-26.424l59.142-102.447a17.644,17.644,0,0,1,30.524,0l59.142,102.447a17.618,17.618,0,0,1-15.257,26.424ZM1049.86,313.413a15.512,15.512,0,0,0-13.622,7.887L977.1,423.747a15.806,15.806,0,0,0,13.686,23.707h118.3a15.806,15.806,0,0,0,13.688-23.707L1063.624,321.3a15.681,15.681,0,0,0-13-7.871Q1050.241,313.412,1049.86,313.413Z" transform="translate(-973.167 -311.597)" fill="#161615"/>
        </g>
        <g id="Grupo_4632" data-name="Grupo 4632" transform="translate(3.34 110.781)">
          <line id="Línea_287" data-name="Línea 287" x2="147.237" transform="translate(0 0.906)" fill="#fff"/>
          <rect id="Rectángulo_2484" data-name="Rectángulo 2484" width="147.237" height="1.812" fill="#161615"/>
        </g>
        <rect id="Rectángulo_2485" data-name="Rectángulo 2485" width="60.16" height="1.812" transform="translate(46.878 35.374)" fill="#161615"/>
        <rect id="Rectángulo_2486" data-name="Rectángulo 2486" width="35.324" height="1.812" transform="translate(107.039 35.51)" fill="#161615"/>
        <rect id="Rectángulo_2487" data-name="Rectángulo 2487" width="35.325" height="1.812" transform="translate(150.486 110.781)" fill="#161615"/>
        <g id="Grupo_4635" data-name="Grupo 4635" transform="translate(34.164 111.429)">
          <g id="Grupo_4633" data-name="Grupo 4633">
            <line id="Línea_288" data-name="Línea 288" y1="24.989" transform="translate(0.907)" fill="#fff"/>
            <rect id="Rectángulo_2488" data-name="Rectángulo 2488" width="1.812" height="24.989" transform="translate(0 0.001)" fill="#161615"/>
          </g>
          <g id="Grupo_4634" data-name="Grupo 4634" transform="translate(83.777)">
            <line id="Línea_289" data-name="Línea 289" y1="24.989" transform="translate(0.905)" fill="#fff"/>
            <rect id="Rectángulo_2489" data-name="Rectángulo 2489" width="1.812" height="24.989" transform="translate(0 0.001)" fill="#161615"/>
          </g>
        </g>
        <g id="Grupo_4636" data-name="Grupo 4636" transform="translate(99.807 118.027)">
          <circle id="Elipse_376" data-name="Elipse 376" cx="6.002" cy="6.002" r="6.002" transform="translate(0.906 0.906)" fill="#fff"/>
          <path id="Trazado_5257" data-name="Trazado 5257" d="M1062.7,423.121a6.908,6.908,0,1,1,6.908-6.908,6.908,6.908,0,0,1-6.908,6.908Zm0-12a5.1,5.1,0,1,0,5.1,5.1,5.1,5.1,0,0,0-5.1-5.1Z" transform="translate(-1055.79 -409.304)" fill="#161615"/>
        </g>
        <g id="Grupo_4637" data-name="Grupo 4637" transform="translate(89.845 120.414)">
          <circle id="Elipse_377" data-name="Elipse 377" cx="3.614" cy="3.614" r="3.614" transform="translate(0.907 0.907)" fill="#fff"/>
          <path id="Trazado_5258" data-name="Trazado 5258" d="M1052.063,420.32a4.52,4.52,0,1,1,4.52-4.52A4.52,4.52,0,0,1,1052.063,420.32Zm0-7.227a2.708,2.708,0,1,0,2.708,2.708A2.708,2.708,0,0,0,1052.063,413.093Z" transform="translate(-1047.543 -411.28)" fill="#161615"/>
        </g>
        <g id="Grupo_4640" data-name="Grupo 4640" transform="translate(31.119 54.057)">
          <g id="Grupo_4638" data-name="Grupo 4638" transform="translate(0.007 0.001)">
            <rect id="Rectángulo_2490" data-name="Rectángulo 2490" width="89.376" height="46.679" rx="19.321" transform="translate(0.907 0.907)" fill="#161615"/>
            <path id="Trazado_5259" data-name="Trazado 5259" d="M1065.878,404.839h-42.7a24.245,24.245,0,0,1,0-48.491h42.7a24.245,24.245,0,1,1,0,48.491Zm-42.7-46.679a22.433,22.433,0,0,0,0,44.867h42.7a22.433,22.433,0,1,0,0-44.867Z" transform="translate(-998.934 -356.348)" fill="#161615"/>
          </g>
          <g id="Grupo_4639" data-name="Grupo 4639">
            <path id="Trazado_5260" data-name="Trazado 5260" d="M1028.667,403.778h-5.649a23.34,23.34,0,1,1,0-46.68h5.644a23.34,23.34,0,1,0,0,46.68Z" transform="translate(-998.772 -356.192)" fill="#d9eef3"/>
            <path id="Trazado_5261" data-name="Trazado 5261" d="M1028.823,404.84h-5.649a24.246,24.246,0,1,1,0-48.492h5.644v1.812a22.434,22.434,0,1,0,0,44.868Zm-10.287-46.2a22.437,22.437,0,0,0-.013,43.9,24.274,24.274,0,0,1,.013-43.9Z" transform="translate(-998.928 -356.348)" fill="#161615"/>
          </g>
          <ellipse id="Elipse_378" data-name="Elipse 378" cx="9.21" cy="5.159" rx="9.21" ry="5.159" transform="translate(56.605 33.266) rotate(-86.846)" fill="#fff"/>
          <path id="Trazado_5262" data-name="Trazado 5262" d="M1026.425,377.123a10.389,10.389,0,0,1,5.315,1.456c.027-.257.05-.518.064-.782.281-5.074-1.8-9.324-4.642-9.481s-5.38,3.832-5.662,8.91c-.022.388-.028.768-.022,1.144A10.389,10.389,0,0,1,1026.425,377.123Z" transform="translate(-994.238 -353.859)" fill="#fff"/>
        </g>
        <g id="Grupo_4652" data-name="Grupo 4652" transform="translate(141.486 56.331)">
          <g id="brazoisq-2" data-name="brazoisq">
            <g id="Grupo_4650" data-name="Grupo 4650">
              <g id="Grupo_4641" data-name="Grupo 4641">
                <path id="Trazado_5263" data-name="Trazado 5263" d="M1130.21,407.347l4.321,4.358a24.235,24.235,0,0,0,6.006-9.893,28.32,28.32,0,0,0,1.056-11.327,34.191,34.191,0,0,0-3.02-10.751,36.523,36.523,0,0,0-6.147-9.234,35.522,35.522,0,0,0-8.678-6.948,34.815,34.815,0,0,0-10.438-3.879,36.144,36.144,0,0,0-5.527-.668,40.526,40.526,0,0,0-5.526.164,41.787,41.787,0,0,0-5.412.893,46.775,46.775,0,0,0-5.224,1.516c-.7.251-.779,1.738-.17,3.321h0c.6,1.581,1.592,2.688,2.2,2.47a40.988,40.988,0,0,1,4.566-1.329,35.746,35.746,0,0,1,4.643-.767,34.367,34.367,0,0,1,4.66-.139,30.133,30.133,0,0,1,4.59.552,28.7,28.7,0,0,1,8.6,3.2,29.838,29.838,0,0,1,14.774,22.234,22.181,22.181,0,0,1-.807,8.847A18.045,18.045,0,0,1,1130.21,407.347Z" transform="translate(-1090.138 -358.075)" fill="#fff"/>
                <path id="Trazado_5264" data-name="Trazado 5264" d="M1134.68,413.142l-5.6-5.644.644-.639a17.248,17.248,0,0,0,4.247-7.006,21.378,21.378,0,0,0,.77-8.481,28.929,28.929,0,0,0-14.32-21.539,27.721,27.721,0,0,0-8.335-3.095,29.344,29.344,0,0,0-4.455-.535,33.665,33.665,0,0,0-4.535.135,34.618,34.618,0,0,0-4.531.75,39.757,39.757,0,0,0-4.469,1.3c-1.312.483-2.634-1.162-3.341-3a4.943,4.943,0,0,1-.227-3.6,1.635,1.635,0,0,1,.938-.9,47.385,47.385,0,0,1,5.332-1.549,42.546,42.546,0,0,1,5.525-.91,40.785,40.785,0,0,1,5.648-.165,37.025,37.025,0,0,1,5.663.68,35.631,35.631,0,0,1,10.711,3.979,36.313,36.313,0,0,1,8.9,7.127,37.424,37.424,0,0,1,6.3,9.463,35.084,35.084,0,0,1,3.1,11.035,29.012,29.012,0,0,1-1.094,11.693,25.02,25.02,0,0,1-6.233,10.268Zm-3.05-5.651,3.049,3.076a23.272,23.272,0,0,0,5.148-8.87,27.186,27.186,0,0,0,1.021-10.962,33.2,33.2,0,0,0-2.939-10.461,35.621,35.621,0,0,0-5.994-9.006,34.57,34.57,0,0,0-8.456-6.771,33.825,33.825,0,0,0-10.168-3.778,35.426,35.426,0,0,0-5.386-.647,39.55,39.55,0,0,0-5.4.159,41,41,0,0,0-5.3.875,45.406,45.406,0,0,0-5.03,1.45,3.5,3.5,0,0,0,.28,2.174,4.332,4.332,0,0,0,1.208,1.889,41.413,41.413,0,0,1,4.519-1.3,36.5,36.5,0,0,1,4.759-.785,34.891,34.891,0,0,1,4.779-.141,30.985,30.985,0,0,1,4.733.569,29.474,29.474,0,0,1,8.873,3.3,30.753,30.753,0,0,1,15.22,22.925,23.231,23.231,0,0,1-.846,9.213,19.148,19.148,0,0,1-4.071,7.1Zm-38.12-40.818h-.01Z" transform="translate(-1090.294 -358.23)" fill="#161615"/>
              </g>
              <g id="Grupo_4642" data-name="Grupo 4642" transform="translate(42.364 44.788)">
                <path id="Trazado_5265" data-name="Trazado 5265" d="M1127.439,396.6a15.643,15.643,0,0,1,3.83,2.3l.288-.539a18.448,18.448,0,0,0-4.21-2.314,13,13,0,0,0-1.274-.441c-.086.168-.177.333-.278.493a5.966,5.966,0,0,1,1.644.506Z" transform="translate(-1125.274 -395.246)" fill="#161615"/>
                <path id="Trazado_5266" data-name="Trazado 5266" d="M1131.447,399.435l-.285-.242a15.627,15.627,0,0,0-3.745-2.252h0a5.858,5.858,0,0,0-1.549-.483l-.5-.034.269-.428c.1-.152.182-.308.263-.469l.112-.221.242.065c.373.105.813.257,1.3.452a18.718,18.718,0,0,1,4.282,2.356l.206.155Z" transform="translate(-1125.364 -395.307)" fill="#161615"/>
              </g>
              <g id="Grupo_4643" data-name="Grupo 4643" transform="translate(45.029 36.752)">
                <path id="Trazado_5267" data-name="Trazado 5267" d="M1129.526,389.408a16.337,16.337,0,0,1,4.47.474c.017-.2.041-.4.049-.6a19.1,19.1,0,0,0-4.84-.349c-.483.025-.912.069-1.3.127l-.054.587A5.827,5.827,0,0,1,1129.526,389.408Z" transform="translate(-1127.511 -388.603)" fill="#161615"/>
                <path id="Trazado_5268" data-name="Trazado 5268" d="M1134.325,390.316l-.352-.093a15.81,15.81,0,0,0-4.378-.463,5.235,5.235,0,0,0-1.571.217l-.455.179.121-1.311.236-.035c.407-.06.845-.1,1.323-.129a19.778,19.778,0,0,1,4.92.356l.249.053-.01.255c-.006.132-.018.265-.031.4Z" transform="translate(-1127.57 -388.654)" fill="#161615"/>
              </g>
              <g id="Grupo_4644" data-name="Grupo 4644" transform="translate(44.17 26.511)">
                <path id="Trazado_5269" data-name="Trazado 5269" d="M1128.78,382.13a16.757,16.757,0,0,1,4.383-1.1l-.161-.57a19.441,19.441,0,0,0-4.717,1.329,12.4,12.4,0,0,0-1.131.54c.061.193.105.39.153.586a5.843,5.843,0,0,1,1.473-.786Z" transform="translate(-1126.798 -380.118)" fill="#161615"/>
                <path id="Trazado_5270" data-name="Trazado 5270" d="M1127.191,383.526l-.14-.57c-.04-.159-.078-.319-.121-.476l-.071-.242.215-.121a12.8,12.8,0,0,1,1.158-.553,20,20,0,0,1,4.791-1.35l.261-.036.332,1.171-.363.036a16.672,16.672,0,0,0-4.3,1.077h0a5.622,5.622,0,0,0-1.389.737Z" transform="translate(-1126.859 -380.177)" fill="#161615"/>
              </g>
              <g id="Grupo_4645" data-name="Grupo 4645" transform="translate(40.596 16.887)">
                <path id="Trazado_5271" data-name="Trazado 5271" d="M1125.7,375.4a17.312,17.312,0,0,1,3.879-2.372c-.1-.168-.214-.331-.319-.5a20.081,20.081,0,0,0-4.147,2.69c-.342.288-.641.567-.889.821.121.169.215.348.321.523a5.9,5.9,0,0,1,1.155-1.166Z" transform="translate(-1123.833 -372.142)" fill="#161615"/>
                <path id="Trazado_5272" data-name="Trazado 5272" d="M1124.605,377.2l-.362-.59c-.067-.111-.133-.222-.2-.329l-.139-.2.172-.176a12.181,12.181,0,0,1,.913-.846,20.443,20.443,0,0,1,4.209-2.73l.242-.121.242.379c.075.121.151.232.221.349l.176.3-.316.137a17.165,17.165,0,0,0-3.806,2.328,5.681,5.681,0,0,0-1.087,1.1Z" transform="translate(-1123.9 -372.21)" fill="#161615"/>
              </g>
              <g id="Grupo_4646" data-name="Grupo 4646" transform="translate(34.944 8.957)">
                <path id="Trazado_5273" data-name="Trazado 5273" d="M1120.754,369.789a17.741,17.741,0,0,1,3.032-3.416l-.442-.393a20.3,20.3,0,0,0-3.216,3.816c-.234.362-.431.7-.6,1.005l.463.413a6.143,6.143,0,0,1,.759-1.425Z" transform="translate(-1119.156 -365.575)" fill="#161615"/>
                <path id="Trazado_5274" data-name="Trazado 5274" d="M1120.213,371.826l-.992-.889.111-.208c.18-.341.384-.686.6-1.028a20.724,20.724,0,0,1,3.261-3.874l.2-.182.908.8-.267.225a17.615,17.615,0,0,0-2.976,3.352,5.6,5.6,0,0,0-.725,1.347Z" transform="translate(-1119.221 -365.645)" fill="#161615"/>
              </g>
              <g id="Grupo_4647" data-name="Grupo 4647" transform="translate(27.674 3.404)">
                <path id="Trazado_5275" data-name="Trazado 5275" d="M1114.05,367.36a6.228,6.228,0,0,1,.3-1.564,17.864,17.864,0,0,1,1.872-4.2l-.553-.242a20.977,20.977,0,0,0-1.933,4.656c-.109.391-.193.756-.252,1.087Q1113.775,367.22,1114.05,367.36Z" transform="translate(-1113.145 -360.984)" fill="#161615"/>
                <path id="Trazado_5276" data-name="Trazado 5276" d="M1114.407,367.91l-.435-.216c-.18-.088-.362-.173-.545-.242l-.225-.093.042-.242c.06-.336.147-.711.259-1.113a21.427,21.427,0,0,1,1.959-4.726l.135-.232,1.122.483-.186.3a17.65,17.65,0,0,0-1.839,4.122,5.73,5.73,0,0,0-.286,1.479Z" transform="translate(-1113.203 -361.048)" fill="#161615"/>
              </g>
              <g id="Grupo_4648" data-name="Grupo 4648" transform="translate(19.258 0.792)">
                <path id="Trazado_5277" data-name="Trazado 5277" d="M1107.2,365.369a6.429,6.429,0,0,1-.176-1.555,18.114,18.114,0,0,1,.522-4.59l-.6-.064a21.2,21.2,0,0,0-.446,5.074c.013.391.039.743.077,1.062A5.275,5.275,0,0,1,1107.2,365.369Z" transform="translate(-1106.184 -358.829)" fill="#161615"/>
                <path id="Trazado_5278" data-name="Trazado 5278" d="M1107.676,365.8l-.476-.077c-.2-.033-.4-.062-.6-.08l-.241-.022-.028-.242c-.04-.325-.066-.685-.08-1.087a21.524,21.524,0,0,1,.453-5.142l.058-.265,1.22.129-.087.338a17.81,17.81,0,0,0-.513,4.512,5.88,5.88,0,0,0,.164,1.477Z" transform="translate(-1106.236 -358.886)" fill="#161615"/>
              </g>
              <g id="Grupo_4649" data-name="Grupo 4649" transform="translate(9.273 0.989)">
                <path id="Trazado_5279" data-name="Trazado 5279" d="M1100.154,365.343a6.457,6.457,0,0,1-.581-1.415,18.319,18.319,0,0,1-.745-4.59l-.594.089a21.391,21.391,0,0,0,.937,5.053c.112.355.227.675.347.959Z" transform="translate(-1097.915 -358.989)" fill="#161615"/>
                <path id="Trazado_5280" data-name="Trazado 5280" d="M1099.385,365.833l-.092-.217c-.121-.29-.242-.617-.355-.982a21.923,21.923,0,0,1-.953-5.128l-.014-.275,1.208-.181.008.341a17.851,17.851,0,0,0,.732,4.511,6.214,6.214,0,0,0,.547,1.343l.242.39Z" transform="translate(-1097.97 -359.049)" fill="#161615"/>
              </g>
            </g>
          </g>
          <path id="Trazado_5281" data-name="Trazado 5281" d="M1115.706,393.992c.845-1.3,3.066.174,5.013,1.888s3.85,3.866,3.317,4.711c-1.028,1.626-3.688-.557-5.174-1.712C1116.243,396.843,1115.078,394.957,1115.706,393.992Z" transform="translate(-1085.043 -350.895)" fill="#161615"/>
          <path id="Trazado_5282" data-name="Trazado 5282" d="M1114.708,415.7c-1.087-1.047.655-3.15,2.585-4.935s4.27-3.463,4.981-2.8c1.372,1.284-1.115,3.745-2.444,5.124C1117.489,415.528,1115.521,416.478,1114.708,415.7Z" transform="translate(-1085.286 -347.917)" fill="#161615"/>
          <path id="Trazado_5283" data-name="Trazado 5283" d="M1110.782,410.714c-.831-1.284,1.322-2.921,3.585-4.2s4.9-2.362,5.444-1.541c1.052,1.581-1.9,3.382-3.489,4.42C1113.518,411.21,1111.4,411.669,1110.782,410.714Z" transform="translate(-1086.07 -348.568)" fill="#161615"/>
          <path id="Trazado_5284" data-name="Trazado 5284" d="M1108.533,402.036c-.156-1.55,2.466-1.952,5.025-1.985s5.359.3,5.471,1.293c.218,1.922-3.181,2.085-5.04,2.225C1110.715,403.817,1108.649,403.188,1108.533,402.036Z" transform="translate(-1086.502 -349.533)" fill="#161615"/>
          <g id="Grupo_4651" data-name="Grupo 4651" transform="translate(30.176 44.753)">
            <ellipse id="Elipse_379" data-name="Elipse 379" cx="7.689" cy="7.334" rx="7.689" ry="7.334" transform="translate(0 15.243) rotate(-82.41)" fill="#fff"/>
            <path id="Trazado_5285" data-name="Trazado 5285" d="M1123.418,412.106a7.616,7.616,0,0,1-2.329-.362,7.845,7.845,0,0,1-4.68-4.107,8.545,8.545,0,0,1,3.487-11.16h0a7.629,7.629,0,0,1,6.017-.582,7.852,7.852,0,0,1,4.679,4.107,8.543,8.543,0,0,1-3.487,11.161,7.71,7.71,0,0,1-3.687.945Zm-2.945-14.571h0a7.329,7.329,0,0,0-2.979,9.571,6.657,6.657,0,0,0,3.962,3.483,6.439,6.439,0,0,0,5.073-.493,7.325,7.325,0,0,0,2.976-9.571,6.657,6.657,0,0,0-3.961-3.483,6.423,6.423,0,0,0-5.072.493Z" transform="translate(-1115.216 -395.225)" fill="#161615"/>
          </g>
        </g>
      </g>
      <path id="Trazado_5286" data-name="Trazado 5286" d="M1122.164,439.47H1000.279a17.445,17.445,0,0,1,17.153-14.58h87.578A17.455,17.455,0,0,1,1122.164,439.47Z" transform="translate(-946.775 -288.035)" fill="#161615" opacity="0.4"/>
    </g>
    <g id="Grupo_4655" data-name="Grupo 4655" transform="translate(1099.756 279.603)">
      <path id="Trazado_5287" data-name="Trazado 5287" d="M1082.89,310.273a4.049,4.049,0,1,1-2.537-5.13,4.049,4.049,0,0,1,2.537,5.13Zm14.7-16.477c-1.677,4.967-5.4,6.466-9.736,6.4a4.176,4.176,0,0,0-3.721,2.155l-.159.295-4.683-1.58.174-.947a7.1,7.1,0,0,1,6.851-5.686,4.171,4.171,0,0,0,4.191-2.823c.713-2.112-.446-3.83-3.107-4.729a9.972,9.972,0,0,0-7.935.836l.68-7.473a15.282,15.282,0,0,1,9.559.257c6.609,2.236,9.961,7.143,7.881,13.293Z" transform="translate(-1075.003 -279.603)" fill="#040506"/>
    </g>
    <g id="Grupo_4656" data-name="Grupo 4656" transform="translate(1117.038 308.266)">
      <path id="Trazado_5288" data-name="Trazado 5288" d="M1093.21,318.847a2.666,2.666,0,1,1,1.13-3.6,2.666,2.666,0,0,1-1.13,3.6Zm14.5-1.133c-3.059,1.6-5.51.615-7.543-1.393a2.743,2.743,0,0,0-2.747-.669l-.213.066-1.505-2.883.515-.37a4.671,4.671,0,0,1,5.843.417,2.747,2.747,0,0,0,3.279.568c1.3-.679,1.533-2.023.678-3.661a6.56,6.56,0,0,0-4.151-3.217l3.727-3.241a10.042,10.042,0,0,1,4.424,4.477c2.116,4.07,1.476,7.928-2.311,9.907Z" transform="translate(-1089.31 -303.331)" fill="#040506"/>
    </g>
  </g>
</svg>
