<svg xmlns="http://www.w3.org/2000/svg" width="162" height="162" viewBox="0 0 162 162">
  <g id="check_5_" data-name="check (5)" transform="translate(4.683 -1032.108)">
    <circle id="Elipse_497" data-name="Elipse 497" cx="81" cy="81" r="81" transform="translate(-4.683 1032.108)" fill="#50b748"/>
    <path id="Trazado_10941" data-name="Trazado 10941" d="M66.274,130.455q.361-.055.722-.114,3.974-.8,7.853-2t7.613-2.774q3.734-1.577,7.3-3.521a81.065,81.065,0,0,0,6.916-4.243q3.344-2.288,6.447-4.9t5.928-5.523q2.823-2.911,5.345-6.093t4.712-6.587a81.068,81.068,0,0,0,4.041-7.03q1.837-3.614,3.306-7.4t2.559-7.689q.836-3.137,1.419-6.333L82.981,18.812A45.373,45.373,0,0,0,13.265,76.255v.013q1.222,1.807,2.609,3.483v.013c.924,1.119,1.913,2.192,2.939,3.217Z" transform="translate(25.687 1062.478)" fill="#10a711"/>
    <path id="Trazado_10942" data-name="Trazado 10942" d="M46.4,1a45.4,45.4,0,1,0,45.4,45.4A45.446,45.446,0,0,0,46.4,1Zm0,6.485A38.911,38.911,0,1,1,7.485,46.4,38.862,38.862,0,0,1,46.4,7.485ZM66.8,27.891,36.669,58.012,26,47.347l-4.6,4.585L36.669,67.195,71.4,32.476Z" transform="translate(30.187 1066.978)" fill="#fff"/>
  </g>
</svg>
