<svg xmlns="http://www.w3.org/2000/svg" width="32.479" height="30.441" viewBox="0 0 32.479 30.441">
  <g id="Grupo_4204" data-name="Grupo 4204" transform="translate(-37.773 -251.85)">
    <g id="Grupo_2352" data-name="Grupo 2352" transform="translate(37.774 251.85)">
      <path id="icons8-merchant_account" d="M15.074,1.941,2.163,8.395A2.157,2.157,0,0,0,1,10.361v2.533H3.165V25.886H1v2.165H13.992v1.083a3.264,3.264,0,0,0,3.248,3.248H30.231a3.264,3.264,0,0,0,3.248-3.248V20.473a3.264,3.264,0,0,0-3.248-3.248H26.983V12.895h2.165V10.361a2.157,2.157,0,0,0-1.163-1.967Zm0,2.419,11.9,5.95a.1.1,0,0,1,.013.051v.368H3.165v-.368a.117.117,0,0,1,.013-.055Zm0,2.038a1.083,1.083,0,1,0,1.083,1.083A1.083,1.083,0,0,0,15.074,6.4Zm-9.744,6.5H7.5V25.886H5.331Zm4.331,0H20.487v4.331H17.24a3.264,3.264,0,0,0-3.248,3.248v5.413H9.661Zm12.992,0h2.165v4.331H22.653Zm-5.413,6.5H30.231a1.068,1.068,0,0,1,1.083,1.083v8.661a1.068,1.068,0,0,1-1.083,1.083H17.24a1.068,1.068,0,0,1-1.083-1.083V20.473A1.068,1.068,0,0,1,17.24,19.39Zm7.578,2.165v2.165h4.331V21.556Zm-6.5,4.331v2.165h2.165V25.886Zm4.331,0v2.165h2.165V25.886Zm4.331,0v2.165h2.165V25.886Z" transform="translate(-1 -1.941)" fill="#b7b7b7"/>
    </g>
  </g>
</svg>
