<svg xmlns="http://www.w3.org/2000/svg" width="45.123" height="39.421" viewBox="0 0 45.123 39.421">
  <path id="icons8-bank-cards-50" d="M5.835,2A4.9,4.9,0,0,0,1,6.928V26.638a4.9,4.9,0,0,0,4.835,4.928H7.446v4.928a4.9,4.9,0,0,0,4.835,4.928H41.289a4.9,4.9,0,0,0,4.835-4.928V16.783a4.9,4.9,0,0,0-4.835-4.928H39.677V6.928A4.9,4.9,0,0,0,34.842,2Zm0,3.285H34.842a1.606,1.606,0,0,1,1.612,1.643V8.57H4.223V6.928A1.606,1.606,0,0,1,5.835,5.285Zm-1.612,6.57H36.454V26.638a1.606,1.606,0,0,1-1.612,1.643H5.835a1.606,1.606,0,0,1-1.612-1.643ZM39.677,15.14h1.612A1.606,1.606,0,0,1,42.9,16.783v1.643H39.677Zm0,6.57H42.9V36.494a1.606,1.606,0,0,1-1.612,1.643H12.281a1.606,1.606,0,0,1-1.612-1.643V31.566H34.842a4.9,4.9,0,0,0,4.835-4.928Z" transform="translate(-1 -2)" fill="#B7B7B7"/>
</svg>
