<svg xmlns="http://www.w3.org/2000/svg" width="53.59" height="37.002" viewBox="0 0 53.59 37.002">
  <path id="delivery-truck_1_" data-name="delivery-truck (1)" d="M37.727,20.311H53.038v-.623L45.8,12.656H37.727Zm0,2.552v8.931a6.382,6.382,0,0,1,10.953,1.277h4.359V22.863ZM35.175,33.071V7.552H4.552V33.071H6.359a6.382,6.382,0,0,1,11.7,0ZM37.727,10.1H46.84L55.59,18.61V33.071a2.552,2.552,0,0,1-2.552,2.552H49.21a6.38,6.38,0,0,1-12.759,0H18.587a6.38,6.38,0,0,1-12.759,0H4.552A2.552,2.552,0,0,1,2,33.071V7.552A2.552,2.552,0,0,1,4.552,5H35.175a2.552,2.552,0,0,1,2.552,2.552ZM12.208,39.451A3.828,3.828,0,1,0,8.38,35.623,3.828,3.828,0,0,0,12.208,39.451Zm30.623,0A3.828,3.828,0,1,0,39,35.623,3.828,3.828,0,0,0,42.83,39.451Z" transform="translate(-2 -5)" fill="#B7B7B7"/>
</svg>
