<svg xmlns="http://www.w3.org/2000/svg" width="36.419" height="42.489" viewBox="0 0 36.419 42.489">
  <g id="Grupo_9425" data-name="Grupo 9425" transform="translate(14685.593 -9869.816)">
    <path id="icons8-accounting-50" d="M18.692,1a4.557,4.557,0,0,0-4.268,3.035H6.552A4.569,4.569,0,0,0,2,8.587V35.9a4.569,4.569,0,0,0,4.552,4.552H20.209v1.517a1.513,1.513,0,0,0,1.517,1.517H36.9a1.513,1.513,0,0,0,1.517-1.517V20.739A1.513,1.513,0,0,0,36.9,19.221H35.384V8.587a4.569,4.569,0,0,0-4.552-4.552H22.96A4.557,4.557,0,0,0,18.692,1Zm0,3.035a1.5,1.5,0,0,1,1.517,1.517V7.07h3.035V10.1h-9.1V7.07h3.035V5.552A1.5,1.5,0,0,1,18.692,4.035ZM6.552,7.07H11.1v6.07H26.279V7.07h4.552a1.5,1.5,0,0,1,1.517,1.517V19.221H21.727a1.513,1.513,0,0,0-1.517,1.517v16.68H6.552A1.5,1.5,0,0,1,5.035,35.9V8.587A1.5,1.5,0,0,1,6.552,7.07Zm1.517,9.1v6.07H11.1v-6.07Zm6.07,3.035v3.035h3.035V19.209Zm9.1,3.047h12.14v3.035H23.244ZM12.622,25.279a4.552,4.552,0,1,0,4.552,4.552A4.569,4.569,0,0,0,12.622,25.279Zm0,3.035A1.517,1.517,0,1,1,11.1,29.832,1.5,1.5,0,0,1,12.622,28.314Zm10.622.012h12.14V40.454H23.244Z" transform="translate(-14687.593 9868.816)" fill="#b7b7b7"/>
  </g>
</svg>
