<svg xmlns="http://www.w3.org/2000/svg" width="38.937" height="42.182" viewBox="0 0 38.937 42.182">
  <path id="icons8-lock-50" d="M21.468,1A13,13,0,0,0,8.489,13.979v3.245H6.867A4.885,4.885,0,0,0,2,22.091V38.314a4.885,4.885,0,0,0,4.867,4.867h29.2a4.885,4.885,0,0,0,4.867-4.867V22.091a4.885,4.885,0,0,0-4.867-4.867H34.447V13.979A13,13,0,0,0,21.468,1Zm0,3.245A9.7,9.7,0,0,1,31.2,13.979v3.245H11.734V13.979A9.7,9.7,0,0,1,21.468,4.245ZM6.867,20.468h29.2a1.6,1.6,0,0,1,1.622,1.622V38.314a1.6,1.6,0,0,1-1.622,1.622H6.867a1.6,1.6,0,0,1-1.622-1.622V22.091A1.6,1.6,0,0,1,6.867,20.468Z" transform="translate(-2 -1)" fill="#1d428a"/>
</svg>
