<svg xmlns="http://www.w3.org/2000/svg" width="41.875" height="41.875" viewBox="0 0 41.875 41.875">
  <path id="icons8-male-user-50" d="M21.938,1A20.938,20.938,0,1,0,42.875,21.938,20.97,20.97,0,0,0,21.938,1Zm0,3.221a17.73,17.73,0,0,1,13.64,29.041,14.566,14.566,0,0,0-8.2-8.644,8.053,8.053,0,1,0-10.871,0,14.545,14.545,0,0,0-8.191,8.644A17.719,17.719,0,0,1,21.938,4.221Zm0,9.663a4.832,4.832,0,1,1-4.832,4.832A4.8,4.8,0,0,1,21.938,13.885Zm0,12.885a11.231,11.231,0,0,1,11.01,9.047,17.694,17.694,0,0,1-22.007,0A11.208,11.208,0,0,1,21.938,26.769Z" transform="translate(-1 -1)" fill="#1d428a"/>
</svg>
