<svg xmlns="http://www.w3.org/2000/svg" width="31.178" height="28.553" viewBox="0 0 31.178 28.553">
  <g id="Grupo_4296" data-name="Grupo 4296" transform="translate(31.178) rotate(90)">
    <g id="Grupo_2352" data-name="Grupo 2352" transform="translate(0)">
      <path id="icons8-receive-cash-50" d="M23.069,0a5.5,5.5,0,0,0-5.423,4.771,6.58,6.58,0,1,0,8.718,6.212,5.883,5.883,0,0,0-.1-.961,5.281,5.281,0,0,0,2.3-4.53A5.508,5.508,0,0,0,23.069,0Zm0,2.2a3.285,3.285,0,0,1,3.295,3.295,3.088,3.088,0,0,1-.832,2.351,6.578,6.578,0,0,0-5.56-3.432A3.26,3.26,0,0,1,23.069,2.2ZM19.774,6.59a4.393,4.393,0,1,1-4.393,4.393A4.38,4.38,0,0,1,19.774,6.59ZM8.791,15.376a11.938,11.938,0,0,0-2.505.326.492.492,0,0,0-.12.034l-5.423,1.9a1.094,1.094,0,0,0-.686,1.381l2.2,6.59a1.123,1.123,0,0,0,.583.652,1.108,1.108,0,0,0,.875.026L8.74,24.265l6.984,3.441-.129-.069a5.511,5.511,0,0,0,5.4.386.815.815,0,0,0,.146-.086l9.138-6.161.9-.609L29.959,19.34l-.918.618-9.009,6.084a3.311,3.311,0,0,1-3.218-.232.613.613,0,0,0-.129-.069L9.272,22.077a1.113,1.113,0,0,0-.892-.034l-4.41,1.768L2.493,19.349,6.818,17.83a12.375,12.375,0,0,1,1.973-.257,3.411,3.411,0,0,1,2.617.858c1.888,1.493,2.729,2.377,4.016,2.926s2.686.609,5.449.609h1.1v-2.2h-1.1c-2.729,0-3.8-.086-4.573-.429a23.7,23.7,0,0,1-3.535-2.626A6.084,6.084,0,0,0,8.791,15.376Z" transform="translate(0 31.178) rotate(-90)" fill="#b7b7b7"/>
    </g>
  </g>
</svg>
