<svg xmlns="http://www.w3.org/2000/svg" width="46.281" height="42.385" viewBox="0 0 46.281 42.385">
  <path id="icons8-receive-cash-50" d="M35.242,1a8.168,8.168,0,0,0-8.05,7.082A9.767,9.767,0,1,0,40.133,17.3a8.732,8.732,0,0,0-.153-1.427,7.839,7.839,0,0,0,3.414-6.725A8.176,8.176,0,0,0,35.242,1Zm0,3.261a4.876,4.876,0,0,1,4.891,4.891,4.584,4.584,0,0,1-1.236,3.49,9.765,9.765,0,0,0-8.254-5.095A4.839,4.839,0,0,1,35.242,4.261Zm-4.891,6.521A6.521,6.521,0,1,1,23.83,17.3,6.5,6.5,0,0,1,30.351,10.782Zm-16.3,13.043a17.722,17.722,0,0,0-3.719.484.73.73,0,0,0-.178.051L2.1,27.175a1.624,1.624,0,0,0-1.019,2.051l3.261,9.782a1.667,1.667,0,0,0,.866.968,1.645,1.645,0,0,0,1.3.038l7.464-2.993,10.368,5.108-.191-.1a8.181,8.181,0,0,0,8.012.573,1.211,1.211,0,0,0,.217-.127l13.565-9.145,1.337-.9L45.47,29.709l-1.363.917L30.733,39.657a4.914,4.914,0,0,1-4.776-.344.91.91,0,0,0-.191-.1l-11-5.439a1.652,1.652,0,0,0-1.325-.051L6.89,36.346,4.7,29.722l6.42-2.254a18.37,18.37,0,0,1,2.93-.382,5.063,5.063,0,0,1,3.885,1.274c2.8,2.216,4.05,3.528,5.961,4.343s3.987.9,8.088.9h1.63V30.346h-1.63c-4.05,0-5.643-.127-6.789-.637s-2.344-1.63-5.248-3.9A9.031,9.031,0,0,0,14.048,23.825Z" transform="translate(-0.998 -1)" fill="#1d428a"/>
</svg>
