<svg xmlns="http://www.w3.org/2000/svg" width="41.071" height="38.336" viewBox="0 0 41.071 38.336">
  <path id="icons8-time-limit-50" d="M5.1,2A4.123,4.123,0,0,0,1,6.1V27.981a4.123,4.123,0,0,0,4.1,4.1H18.2A12.266,12.266,0,1,0,39.288,20.332V6.1a4.123,4.123,0,0,0-4.1-4.1Zm0,2.735H35.186A1.349,1.349,0,0,1,36.553,6.1V7.47H3.735V6.1A1.349,1.349,0,0,1,5.1,4.735ZM3.735,10.2H36.553v7.574a12.222,12.222,0,0,0-6.789-2.057,1.368,1.368,0,1,0,0,2.735,9.572,9.572,0,1,1-9.572,9.572A9.171,9.171,0,0,1,21,24.841l8.114,4.391a1.368,1.368,0,1,0,1.3-2.4l-10.822-5.86-.652,1.2a12.267,12.267,0,0,0-1.485,5.86,12,12,0,0,0,.134,1.319H5.1a1.349,1.349,0,0,1-1.367-1.367Zm5.47,5.47v2.735H11.94V15.674Zm5.47,0v2.735h10.94V15.674ZM9.2,21.144v2.735H11.94V21.144Z" transform="translate(-1 -2)" fill="#B7B7B7"/>
</svg>
