<svg xmlns="http://www.w3.org/2000/svg" width="57" height="37" viewBox="0 0 57 37">
  <g id="Grupo_8598" data-name="Grupo 8598" transform="translate(-0.128 0.432)">
    <g id="Grupo_4342" data-name="Grupo 4342" transform="translate(0 0)">
      <g id="Grupo_4303" data-name="Grupo 4303">
        <rect id="Rectángulo_2290" data-name="Rectángulo 2290" width="57" height="37" rx="5" transform="translate(0.128 -0.431)" fill="#b7b7b7"/>
      </g>
    </g>
    <path id="Trazado_4301" data-name="Trazado 4301" d="M747.049,729.1l-5.1,12.167h-3.327l-2.51-9.71a1.333,1.333,0,0,0-.748-1.069,13.172,13.172,0,0,0-3.105-1.034l.075-.354h5.355a1.467,1.467,0,0,1,1.451,1.241l1.325,7.04,3.276-8.281h3.307Zm13.036,8.195c.013-3.211-4.44-3.388-4.41-4.823.01-.436.425-.9,1.335-1.019a5.943,5.943,0,0,1,3.1.545l.553-2.58a8.459,8.459,0,0,0-2.944-.539c-3.111,0-5.3,1.654-5.319,4.022-.02,1.752,1.563,2.729,2.755,3.311,1.227.6,1.639.979,1.634,1.512-.009.816-.979,1.176-1.885,1.191a6.591,6.591,0,0,1-3.232-.768l-.57,2.666a9.541,9.541,0,0,0,3.5.646c3.307,0,5.469-1.633,5.48-4.163m8.215,3.972h2.911L768.67,729.1h-2.687a1.432,1.432,0,0,0-1.339.893l-4.723,11.274h3.3l.656-1.817h4.038Zm-3.512-4.311,1.657-4.568.953,4.568ZM751.546,729.1l-2.6,12.167H745.8l2.6-12.167Z" transform="translate(-723.416 -716.969)" fill="#fff"/>
  </g>
</svg>
