<svg xmlns="http://www.w3.org/2000/svg" width="39.45" height="42.853" viewBox="0 0 39.45 42.853">
  <path id="icons8-wallet" d="M30.92.977a4.956,4.956,0,0,0-.963.128h-.026L5.519,8.194A4.913,4.913,0,0,0,2,12.958V38.705a5.058,5.058,0,0,0,4.931,5.124H36.519a5.058,5.058,0,0,0,4.931-5.124V16.078a5.053,5.053,0,0,0-4.931-5.137H7.856l22.9-6.652h.013c.334-.09.424-.026.552.09a1.1,1.1,0,0,1,.27.783V7.629h3.287V5.163A4.261,4.261,0,0,0,33.5,1.94,3.883,3.883,0,0,0,30.92.977ZM6.931,14.229H36.519a1.734,1.734,0,0,1,1.644,1.849V38.705a1.73,1.73,0,0,1-1.644,1.836H6.931a1.73,1.73,0,0,1-1.644-1.836V16.078A1.734,1.734,0,0,1,6.931,14.229Zm24.656,9.837a3.287,3.287,0,1,0,3.287,3.287A3.294,3.294,0,0,0,31.587,24.066Z" transform="translate(-2 -0.977)" fill="#B7B7B7"/>
</svg>
