<svg xmlns="http://www.w3.org/2000/svg" xmlns:xlink="http://www.w3.org/1999/xlink" width="178.599" height="180.515" viewBox="0 0 178.599 180.515">
  <defs>
    <clipPath id="clip-path">
      <path id="Trazado_4741" data-name="Trazado 4741" d="M557.435,364.507c-24.544.8-45.619-23.209-29.88-51.488l-5.334-2.935c-13.873,17.874-11.739,57.357,31.212,63.226Z" transform="translate(-514.596 -310.084)" fill="none"/>
    </clipPath>
    <clipPath id="clip-path-2">
      <path id="Trazado_4766" data-name="Trazado 4766" d="M631.127,364.507c24.543.8,45.618-23.209,29.878-51.488l5.336-2.935c13.873,17.874,11.738,57.357-31.213,63.226Z" transform="translate(-631.127 -310.084)" fill="none"/>
    </clipPath>
  </defs>
  <g id="Grupo_5230" data-name="Grupo 5230" transform="translate(-513.846 -294.731)">
    <g id="Grupo_4811" data-name="Grupo 4811" transform="translate(513.846 294.731)">
      <g id="Grupo_4794" data-name="Grupo 4794">
        <path id="Trazado_4726" data-name="Trazado 4726" d="M520.288,305.885c-2-3.16-2.742-8.5-.663-8.791,2.1-.291.19,4.679,2.351,7.553Z" transform="translate(-513.279 -294.437)" fill="#161615"/>
        <path id="Trazado_4727" data-name="Trazado 4727" d="M523.114,304.87c-1.471-4.182-.865-10.706,1.44-10.1,2.1.55-.95,5.324.766,9.236Z" transform="translate(-512.786 -294.731)" fill="#161615"/>
        <path id="Trazado_4728" data-name="Trazado 4728" d="M525.237,304.26c.934-4.334,4.855-9.572,6.509-7.856,1.571,1.628-3.594,4.042-4.177,8.274Z" transform="translate(-512.42 -294.563)" fill="#161615"/>
        <path id="Trazado_4729" data-name="Trazado 4729" d="M530.021,307.288c2.536.415,3.9-1.593,5.267-.3s-3.127,3.388-5.531,2.955Z" transform="translate(-511.854 -293.252)" fill="#161615"/>
        <g id="Grupo_4789" data-name="Grupo 4789" transform="translate(0 16.148)">
          <path id="Trazado_4730" data-name="Trazado 4730" d="M557.435,364.507c-24.544.8-45.619-23.209-29.88-51.488l-5.334-2.935c-13.873,17.874-11.739,57.357,31.212,63.226Z" transform="translate(-513.753 -308.957)" fill="#fff"/>
          <path id="Trazado_4731" data-name="Trazado 4731" d="M554.054,374.391l-.646-.088c-18.051-2.466-31.071-11.368-36.661-25.064-5.242-12.842-3.237-29.113,4.876-39.567l.458-.591,6.761,3.72-.428.767c-6.78,12.184-7.121,24.458-.959,34.562,6.128,10.044,17.618,16.027,30.045,15.627l1.409-.046Zm-31.5-63.049c-7.37,10-9.106,25.188-4.188,37.238,3.742,9.17,12.792,20.715,34.634,23.9l3.16-6.951c-12.5-.052-23.975-6.282-30.2-16.484-6.375-10.45-6.189-23.046.5-35.552Z" transform="translate(-513.846 -309.082)" fill="#161615"/>
        </g>
        <g id="Grupo_4790" data-name="Grupo 4790" transform="translate(5.466 6.422)">
          <circle id="Elipse_327" data-name="Elipse 327" cx="6.582" cy="6.582" r="6.582" transform="translate(0.875 0.875)" fill="#fff"/>
          <path id="Trazado_4732" data-name="Trazado 4732" d="M526.161,315.351a7.457,7.457,0,1,1,7.457-7.457A7.465,7.465,0,0,1,526.161,315.351Zm0-13.164a5.708,5.708,0,1,0,5.707,5.707A5.714,5.714,0,0,0,526.161,302.188Z" transform="translate(-518.704 -300.438)" fill="#161615"/>
        </g>
        <g id="Grupo_4793" data-name="Grupo 4793" transform="translate(0.843 17.275)">
          <g id="Grupo_4792" data-name="Grupo 4792" clip-path="url(#clip-path)">
            <g id="Grupo_4791" data-name="Grupo 4791" transform="translate(-2.482 0.219)">
              <path id="Trazado_4733" data-name="Trazado 4733" d="M526.862,316.926a11.917,11.917,0,0,1-7.4-2.553,5.628,5.628,0,0,1-2.31-4.05l1.75-.044a3.957,3.957,0,0,0,1.673,2.742,10.268,10.268,0,0,0,7.788,2.031l.293,1.725A10.709,10.709,0,0,1,526.862,316.926Z" transform="translate(-511.793 -310.279)" fill="#161615"/>
              <path id="Trazado_4734" data-name="Trazado 4734" d="M517.441,318.843a4.89,4.89,0,0,1-2.309-3.3l1.738-.186a3.957,3.957,0,0,0,1.889,2.6,10.259,10.259,0,0,0,7.922,1.392l.431,1.695a6.069,6.069,0,0,1-2.829-.088A11.028,11.028,0,0,1,517.441,318.843Z" transform="translate(-512.047 -309.643)" fill="#161615"/>
              <path id="Trazado_4735" data-name="Trazado 4735" d="M515.56,325a4.155,4.155,0,0,1-2.288-2.513l1.7-.392a3.942,3.942,0,0,0,2.184,2.349,10.245,10.245,0,0,0,8.026.437l.63,1.63a6.47,6.47,0,0,1-3.915.033A10.15,10.15,0,0,1,515.56,325Z" transform="translate(-512.279 -308.799)" fill="#161615"/>
              <path id="Trazado_4736" data-name="Trazado 4736" d="M514.585,332.417a3.424,3.424,0,0,1-2.2-1.683l1.61-.68a3.944,3.944,0,0,0,2.555,1.939,10.238,10.238,0,0,0,7.979-.951l.9,1.5a7.381,7.381,0,0,1-4.969.716A9.265,9.265,0,0,1,514.585,332.417Z" transform="translate(-512.39 -307.803)" fill="#161615"/>
              <path id="Trazado_4737" data-name="Trazado 4737" d="M515.344,341.082a2.7,2.7,0,0,1-1.955-.862l1.4-1.042a3.941,3.941,0,0,0,2.942,1.276,10.233,10.233,0,0,0,7.525-2.82l1.231,1.241a8.443,8.443,0,0,1-5.732,2.186A8.353,8.353,0,0,1,515.344,341.082Z" transform="translate(-512.265 -306.854)" fill="#161615"/>
              <path id="Trazado_4738" data-name="Trazado 4738" d="M518.79,350.48a1.972,1.972,0,0,1-1.492-.2l1.035-1.408a3.94,3.94,0,0,0,3.188.357,10.23,10.23,0,0,0,6.369-4.9l1.542.826a9.572,9.572,0,0,1-5.757,4.414A7.437,7.437,0,0,1,518.79,350.48Z" transform="translate(-511.775 -306.016)" fill="#161615"/>
              <path id="Trazado_4739" data-name="Trazado 4739" d="M525.758,359.132a1.3,1.3,0,0,1-.874.1l.565-1.655a3.944,3.944,0,0,0,3.149-.618,10.241,10.241,0,0,0,4.6-6.595l1.719.325a10.732,10.732,0,0,1-4.819,6.851A6.562,6.562,0,0,1,525.758,359.132Z" transform="translate(-510.826 -305.261)" fill="#161615"/>
              <path id="Trazado_4740" data-name="Trazado 4740" d="M536.843,366.459c-.094,0-.189,0-.282-.011l.127-1.745a3.948,3.948,0,0,0,2.893-1.4,10.249,10.249,0,0,0,2.786-7.55l1.746-.12a11.917,11.917,0,0,1-3.3,8.91A5.806,5.806,0,0,1,536.843,366.459Z" transform="translate(-509.364 -304.6)" fill="#161615"/>
            </g>
          </g>
        </g>
      </g>
      <g id="Grupo_4795" data-name="Grupo 4795" transform="translate(32.209 9.738)">
        <path id="Trazado_4742" data-name="Trazado 4742" d="M672.2,430.691H558.945a15.67,15.67,0,0,1-13.572-23.5l52.066-90.177L584.52,304.169l33.641.108a15.223,15.223,0,0,1,12.62,7.678l54.981,95.234A15.666,15.666,0,0,1,672.2,430.691Z" transform="translate(-542.374 -303.287)" fill="#d9eef3"/>
        <path id="Trazado_4743" data-name="Trazado 4743" d="M672.293,431.665H559.043a16.544,16.544,0,0,1-14.329-24.814l51.729-89.594-13.954-13.871,35.772.115a16.213,16.213,0,0,1,13.376,8.115l54.981,95.236a16.541,16.541,0,0,1-14.325,24.814ZM586.745,305.149l11.887,11.815-.336.584L546.23,407.725a14.794,14.794,0,0,0,12.813,22.19h113.25a14.791,14.791,0,0,0,12.808-22.19l-54.981-95.234a14.263,14.263,0,0,0-11.9-7.242Z" transform="translate(-542.472 -303.385)" fill="#161615"/>
      </g>
      <g id="Grupo_4796" data-name="Grupo 4796" transform="translate(2.384 9.711)">
        <path id="Trazado_4744" data-name="Trazado 4744" d="M573.945,311.922l-55.091,95.421a15.567,15.567,0,0,0,13.481,23.351H642.52A15.568,15.568,0,0,0,656,407.343L600.91,311.922A15.569,15.569,0,0,0,573.945,311.922Z" transform="translate(-515.867 -303.264)" fill="#fff"/>
        <path id="Trazado_4745" data-name="Trazado 4745" d="M642.616,431.668H532.435A16.443,16.443,0,0,1,518.193,407l55.092-95.423a16.445,16.445,0,0,1,28.481,0L656.858,407a16.443,16.443,0,0,1-14.242,24.663ZM574.8,312.456,519.71,407.879a14.693,14.693,0,0,0,12.725,22.039H642.616a14.693,14.693,0,0,0,12.725-22.039l-55.092-95.423a14.693,14.693,0,0,0-25.447,0Z" transform="translate(-515.965 -303.361)" fill="#161615"/>
      </g>
      <g id="Grupo_4797" data-name="Grupo 4797" transform="translate(31.403 60.08)">
        <rect id="Rectángulo_2381" data-name="Rectángulo 2381" width="83.252" height="43.48" rx="19.321" transform="translate(0.875 0.875)" fill="#161615"/>
        <path id="Trazado_4746" data-name="Trazado 4746" d="M604.142,393.354H564.37a22.614,22.614,0,1,1,0-45.229h39.771a22.614,22.614,0,1,1,0,45.229ZM564.37,349.876a20.865,20.865,0,1,0,0,41.73h39.771a20.865,20.865,0,0,0,0-41.73Z" transform="translate(-541.755 -348.126)" fill="#161615"/>
      </g>
      <g id="Grupo_4798" data-name="Grupo 4798" transform="translate(5.551 112.916)">
        <line id="Línea_38" data-name="Línea 38" x2="137.147" transform="translate(0 0.875)" fill="#fff"/>
        <rect id="Rectángulo_2382" data-name="Rectángulo 2382" width="137.147" height="1.749" transform="translate(0)" fill="#161615"/>
      </g>
      <rect id="Rectángulo_2383" data-name="Rectángulo 2383" width="56.038" height="1.749" transform="translate(46.106 42.676)" fill="#161615"/>
      <g id="Grupo_4799" data-name="Grupo 4799" transform="translate(31.404 60.08)">
        <path id="Trazado_4747" data-name="Trazado 4747" d="M569.529,392.384h-5.258a21.741,21.741,0,0,1,0-43.481h5.258a21.741,21.741,0,1,0,0,43.481Z" transform="translate(-541.659 -348.029)" fill="#d9eef3"/>
        <path id="Trazado_4748" data-name="Trazado 4748" d="M569.625,393.356h-5.256a22.615,22.615,0,0,1,0-45.23h5.256v1.75a20.866,20.866,0,1,0,0,41.731Zm-9.838-42.974a20.868,20.868,0,0,0-.014,40.713,22.642,22.642,0,0,1,.014-40.713Z" transform="translate(-541.756 -348.126)" fill="#161615"/>
      </g>
      <rect id="Rectángulo_2384" data-name="Rectángulo 2384" width="32.903" height="1.749" transform="translate(102.144 42.803)" fill="#161615"/>
      <g id="Grupo_4802" data-name="Grupo 4802" transform="translate(34.233 113.551)">
        <g id="Grupo_4800" data-name="Grupo 4800">
          <line id="Línea_39" data-name="Línea 39" y1="23.277" transform="translate(0.875)" fill="#fff"/>
          <rect id="Rectángulo_2385" data-name="Rectángulo 2385" width="1.749" height="23.276" transform="translate(0 0)" fill="#161615"/>
        </g>
        <g id="Grupo_4801" data-name="Grupo 4801" transform="translate(78.034)">
          <line id="Línea_40" data-name="Línea 40" y1="23.277" transform="translate(0.875)" fill="#fff"/>
          <rect id="Rectángulo_2386" data-name="Rectángulo 2386" width="1.749" height="23.276" transform="translate(0 0)" fill="#161615"/>
        </g>
      </g>
      <g id="Grupo_4803" data-name="Grupo 4803" transform="translate(95.376 119.666)">
        <circle id="Elipse_328" data-name="Elipse 328" cx="5.591" cy="5.591" r="5.591" transform="translate(0.875 0.874)" fill="#fff"/>
        <path id="Trazado_4749" data-name="Trazado 4749" d="M605.075,414.013a6.465,6.465,0,1,1,6.468-6.465A6.472,6.472,0,0,1,605.075,414.013Zm0-11.181a4.716,4.716,0,1,0,4.718,4.716A4.722,4.722,0,0,0,605.075,402.832Z" transform="translate(-598.61 -401.082)" fill="#161615"/>
      </g>
      <g id="Grupo_4804" data-name="Grupo 4804" transform="translate(86.098 121.891)">
        <circle id="Elipse_329" data-name="Elipse 329" cx="3.366" cy="3.366" r="3.366" transform="translate(0.875 0.874)" fill="#fff"/>
        <path id="Trazado_4750" data-name="Trazado 4750" d="M594.606,411.541a4.241,4.241,0,1,1,4.24-4.241A4.246,4.246,0,0,1,594.606,411.541Zm0-6.733A2.492,2.492,0,1,0,597.1,407.3,2.5,2.5,0,0,0,594.606,404.808Z" transform="translate(-590.364 -403.059)" fill="#161615"/>
      </g>
      <g id="Grupo_4810" data-name="Grupo 4810" transform="translate(130.583)">
        <path id="Trazado_4751" data-name="Trazado 4751" d="M663.907,305.885c2-3.16,2.741-8.5.662-8.791-2.1-.291-.19,4.679-2.349,7.553Z" transform="translate(-625.854 -294.437)" fill="#161615"/>
        <path id="Trazado_4752" data-name="Trazado 4752" d="M661.016,304.87c1.469-4.182.865-10.706-1.441-10.1-2.1.55.95,5.324-.766,9.236Z" transform="translate(-626.281 -294.731)" fill="#161615"/>
        <path id="Trazado_4753" data-name="Trazado 4753" d="M659.315,304.26c-.935-4.334-4.855-9.572-6.51-7.856-1.571,1.628,3.594,4.042,4.177,8.274Z" transform="translate(-627.069 -294.563)" fill="#161615"/>
        <path id="Trazado_4754" data-name="Trazado 4754" d="M654.417,307.288c-2.537.415-3.9-1.593-5.268-.3s3.127,3.388,5.531,2.955Z" transform="translate(-627.522 -293.252)" fill="#161615"/>
        <g id="Grupo_4805" data-name="Grupo 4805" transform="translate(0 16.148)">
          <path id="Trazado_4755" data-name="Trazado 4755" d="M631.127,364.507c24.543.8,45.618-23.209,29.878-51.488l5.336-2.935c13.873,17.874,11.738,57.357-31.213,63.226Z" transform="translate(-629.746 -308.957)" fill="#fff"/>
          <path id="Trazado_4756" data-name="Trazado 4756" d="M634.754,374.391,629.9,363.712l1.409.046c12.412.421,23.917-5.584,30.044-15.627,6.163-10.1,5.823-22.378-.959-34.562l-.428-.767,6.761-3.72.458.591c8.113,10.453,10.118,26.724,4.877,39.567-5.59,13.7-18.61,22.6-36.662,25.064Zm-2.105-8.864,3.159,6.951c21.842-3.183,30.891-14.728,34.635-23.9,4.918-12.051,3.182-27.239-4.189-37.237l-3.909,2.149c6.693,12.507,6.878,25.1.5,35.553C656.623,359.244,645.145,365.474,632.649,365.527Z" transform="translate(-629.9 -309.082)" fill="#161615"/>
        </g>
        <g id="Grupo_4806" data-name="Grupo 4806" transform="translate(24.683 6.422)">
          <circle id="Elipse_330" data-name="Elipse 330" cx="6.582" cy="6.582" r="6.582" transform="translate(0.874 0.875)" fill="#fff"/>
          <path id="Trazado_4757" data-name="Trazado 4757" d="M659.293,315.351a7.457,7.457,0,1,1,7.457-7.457A7.464,7.464,0,0,1,659.293,315.351Zm0-13.164A5.708,5.708,0,1,0,665,307.895,5.714,5.714,0,0,0,659.293,302.188Z" transform="translate(-651.837 -300.438)" fill="#161615"/>
        </g>
        <g id="Grupo_4809" data-name="Grupo 4809" transform="translate(1.381 17.275)">
          <g id="Grupo_4808" data-name="Grupo 4808" clip-path="url(#clip-path-2)">
            <g id="Grupo_4807" data-name="Grupo 4807" transform="translate(10.546 0.219)">
              <path id="Trazado_4758" data-name="Trazado 4758" d="M658.212,316.926a10.717,10.717,0,0,1-1.8-.149l.293-1.725a10.281,10.281,0,0,0,7.788-2.03,3.959,3.959,0,0,0,1.673-2.743l1.75.044a5.632,5.632,0,0,1-2.31,4.05A11.917,11.917,0,0,1,658.212,316.926Z" transform="translate(-638.507 -310.279)" fill="#161615"/>
              <path id="Trazado_4759" data-name="Trazado 4759" d="M660.844,320.949a6.064,6.064,0,0,1-2.828.088l.431-1.695a10.266,10.266,0,0,0,7.92-1.392,3.962,3.962,0,0,0,1.889-2.6l1.738.186a4.889,4.889,0,0,1-2.309,3.3A11.028,11.028,0,0,1,660.844,320.949Z" transform="translate(-638.306 -309.643)" fill="#161615"/>
              <path id="Trazado_4760" data-name="Trazado 4760" d="M663.288,326.549a6.466,6.466,0,0,1-3.913-.033l.63-1.63a10.253,10.253,0,0,0,8.025-.435,3.963,3.963,0,0,0,2.184-2.351l1.7.392A4.154,4.154,0,0,1,669.63,325,10.15,10.15,0,0,1,663.288,326.549Z" transform="translate(-638.136 -308.799)" fill="#161615"/>
              <path id="Trazado_4761" data-name="Trazado 4761" d="M664.779,333.255a7.371,7.371,0,0,1-4.968-.716l.9-1.5a10.249,10.249,0,0,0,7.979.952,3.966,3.966,0,0,0,2.555-1.94l1.61.678a3.414,3.414,0,0,1-2.2,1.683A9.258,9.258,0,0,1,664.779,333.255Z" transform="translate(-638.081 -307.803)" fill="#161615"/>
              <path id="Trazado_4762" data-name="Trazado 4762" d="M664.492,341.061a8.434,8.434,0,0,1-5.731-2.185l1.231-1.241a10.236,10.236,0,0,0,7.523,2.819,3.977,3.977,0,0,0,2.945-1.276l1.4,1.042a2.69,2.69,0,0,1-1.953.862A8.357,8.357,0,0,1,664.492,341.061Z" transform="translate(-638.213 -306.854)" fill="#161615"/>
              <path id="Trazado_4763" data-name="Trazado 4763" d="M661.47,349.565a9.57,9.57,0,0,1-5.757-4.413l1.542-.826a10.24,10.24,0,0,0,6.367,4.9,3.988,3.988,0,0,0,3.19-.357l1.035,1.408a1.972,1.972,0,0,1-1.492.2A7.439,7.439,0,0,1,661.47,349.565Z" transform="translate(-638.594 -306.016)" fill="#161615"/>
              <path id="Trazado_4764" data-name="Trazado 4764" d="M654.809,357.539a10.732,10.732,0,0,1-4.819-6.851l1.719-.325a10.243,10.243,0,0,0,4.6,6.594,4,4,0,0,0,3.152.619l.565,1.655a1.294,1.294,0,0,1-.874-.1A6.562,6.562,0,0,1,654.809,357.539Z" transform="translate(-639.311 -305.261)" fill="#161615"/>
              <path id="Trazado_4765" data-name="Trazado 4765" d="M647.795,366.459a5.806,5.806,0,0,1-3.974-1.913,11.917,11.917,0,0,1-3.3-8.91l1.746.12a10.244,10.244,0,0,0,2.786,7.549,4,4,0,0,0,2.894,1.4l.127,1.745C647.984,366.456,647.889,366.459,647.795,366.459Z" transform="translate(-640.499 -304.6)" fill="#161615"/>
            </g>
          </g>
        </g>
      </g>
      <rect id="Rectángulo_2387" data-name="Rectángulo 2387" width="32.903" height="1.749" transform="translate(142.715 112.916)" fill="#161615"/>
      <ellipse id="Elipse_331" data-name="Elipse 331" cx="4.656" cy="11.294" rx="4.656" ry="11.294" transform="translate(56.191 71.352)" fill="#fff"/>
      <ellipse id="Elipse_332" data-name="Elipse 332" cx="4.656" cy="11.294" rx="4.656" ry="11.294" transform="translate(82.316 71.352)" fill="#fff"/>
    </g>
    <g id="Grupo_4818" data-name="Grupo 4818" transform="translate(546.365 441.192)">
      <g id="Grupo_4817" data-name="Grupo 4817">
        <g id="Grupo_4812" data-name="Grupo 4812">
          <rect id="Rectángulo_2388" data-name="Rectángulo 2388" width="93.645" height="32.367" rx="14.383" transform="translate(0.844 0.843)" fill="#161615"/>
          <path id="Trazado_4767" data-name="Trazado 4767" d="M621.053,458.949H559.775a17.027,17.027,0,1,1,0-34.054h61.278a17.027,17.027,0,1,1,0,34.054Zm-61.278-32.366a15.339,15.339,0,1,0,0,30.679h61.278a15.339,15.339,0,1,0,0-30.679Z" transform="translate(-542.747 -424.895)" fill="#161615"/>
        </g>
        <g id="Grupo_4813" data-name="Grupo 4813" transform="translate(54.364)">
          <rect id="Rectángulo_2389" data-name="Rectángulo 2389" width="59.588" height="32.367" rx="14.383" transform="translate(0.844 0.843)" fill="#fff"/>
          <path id="Trazado_4768" data-name="Trazado 4768" d="M635.312,458.949H608.09a17.027,17.027,0,1,1,0-34.054h27.222a17.027,17.027,0,1,1,0,34.054ZM608.09,426.583a15.339,15.339,0,1,0,0,30.679h27.222a15.339,15.339,0,1,0,0-30.679Z" transform="translate(-591.062 -424.895)" fill="#161615"/>
        </g>
        <g id="Grupo_4814" data-name="Grupo 4814" transform="translate(65.017 7.765)">
          <rect id="Rectángulo_2390" data-name="Rectángulo 2390" width="38.281" height="16.835" rx="6.954" transform="translate(0.845 0.844)" fill="#fff"/>
          <path id="Trazado_4769" data-name="Trazado 4769" d="M631.832,450.319H609.2a8.678,8.678,0,0,1-8.669-8.667v-1.187A8.678,8.678,0,0,1,609.2,431.8h22.633a8.678,8.678,0,0,1,8.667,8.669v1.187A8.678,8.678,0,0,1,631.832,450.319ZM609.2,433.484a6.988,6.988,0,0,0-6.981,6.981v1.187a6.988,6.988,0,0,0,6.981,6.98h22.633a6.987,6.987,0,0,0,6.98-6.98v-1.187a6.987,6.987,0,0,0-6.98-6.981Z" transform="translate(-600.53 -431.796)" fill="#161615"/>
        </g>
        <g id="Grupo_4815" data-name="Grupo 4815" transform="translate(65.017 8.069)">
          <circle id="Elipse_333" data-name="Elipse 333" cx="8.113" cy="8.113" r="8.113" transform="translate(0.845 0.844)" fill="#fff"/>
          <path id="Trazado_4770" data-name="Trazado 4770" d="M609.488,449.98a8.957,8.957,0,1,1,8.958-8.957A8.968,8.968,0,0,1,609.488,449.98Zm0-16.227a7.269,7.269,0,1,0,7.27,7.27A7.279,7.279,0,0,0,609.488,433.754Z" transform="translate(-600.53 -432.066)" fill="#161615"/>
        </g>
        <g id="Grupo_4816" data-name="Grupo 4816" transform="translate(87.089 8.069)">
          <circle id="Elipse_334" data-name="Elipse 334" cx="8.113" cy="8.113" r="8.113" transform="translate(0.844 0.844)" fill="#fff"/>
          <path id="Trazado_4771" data-name="Trazado 4771" d="M629.1,449.98a8.957,8.957,0,1,1,8.958-8.957A8.967,8.967,0,0,1,629.1,449.98Zm0-16.227a7.269,7.269,0,1,0,7.27,7.27A7.278,7.278,0,0,0,629.1,433.754Z" transform="translate(-620.146 -432.066)" fill="#161615"/>
        </g>
      </g>
      <path id="Trazado_4772" data-name="Trazado 4772" d="M657.217,439.221H543.684a16.25,16.25,0,0,1,15.978-13.581h81.577A16.259,16.259,0,0,1,657.217,439.221Z" transform="translate(-542.63 -424.802)" fill="#161615" opacity="0.4"/>
    </g>
  </g>
</svg>
