<svg xmlns="http://www.w3.org/2000/svg" width="186" height="40.637" viewBox="0 0 186 40.637">
  <g id="Grupo_8977" data-name="Grupo 8977" transform="translate(10416 -1680.007)">
    <g id="Grupo_521" data-name="Grupo 521" transform="translate(-10270.637 1680.007)">
      <g id="Grupo_520" data-name="Grupo 520">
        <circle id="Elipse_41" data-name="Elipse 41" cx="20.318" cy="20.318" r="20.318" fill="#fff"/>
      </g>
    </g>
    <g id="Grupo_544" data-name="Grupo 544" transform="translate(-10416 1682.069)">
      <g id="Grupo_523" data-name="Grupo 523" transform="translate(147.493)">
        <g id="Grupo_522" data-name="Grupo 522">
          <path id="Trazado_309" data-name="Trazado 309" d="M731.07,179.842a18.255,18.255,0,0,0-33.2,0Z" transform="translate(-696.283 -169.186)" fill="#1d428a"/>
          <path id="Trazado_310" data-name="Trazado 310" d="M697.874,183.942a18.255,18.255,0,0,0,33.2,0Z" transform="translate(-696.283 -158.085)" fill="#1d428a"/>
          <path id="Trazado_311" data-name="Trazado 311" d="M697.476,177a18.1,18.1,0,0,0-.51,3.056h36.376a18.079,18.079,0,0,0-.51-3.056Z" transform="translate(-696.966 -163.311)" fill="#1d428a"/>
          <path id="Trazado_312" data-name="Trazado 312" d="M732.832,183.527a18.129,18.129,0,0,0,.51-3.058H696.966a18.148,18.148,0,0,0,.51,3.058Z" transform="translate(-696.966 -160.698)" fill="#1d428a"/>
        </g>
        <path id="Trazado_313" data-name="Trazado 313" d="M699.386,199.135l13.948-29.948,13.983,29.948Z" transform="translate(-695.146 -169.186)" fill="#cedc00"/>
      </g>
      <g id="Grupo_543" data-name="Grupo 543" transform="translate(0 8.215)">
        <g id="Grupo_542" data-name="Grupo 542">
          <g id="Grupo_541" data-name="Grupo 541">
            <g id="Grupo_525" data-name="Grupo 525" transform="translate(11.877 5.429)">
              <g id="Grupo_524" data-name="Grupo 524">
                <path id="Trazado_314" data-name="Trazado 314" d="M627.322,176.972a7.608,7.608,0,1,0,7.747,7.607A7.678,7.678,0,0,0,627.322,176.972Zm0,12.059a4.462,4.462,0,1,1,4.184-4.453A4.325,4.325,0,0,1,627.322,189.031Z" transform="translate(-619.573 -176.972)" fill="#fff"/>
              </g>
            </g>
            <g id="Grupo_527" data-name="Grupo 527" transform="translate(56.443)">
              <g id="Grupo_526" data-name="Grupo 526">
                <path id="Trazado_315" data-name="Trazado 315" d="M647.2,173.874a2.151,2.151,0,1,0,2.19,2.15A2.171,2.171,0,0,0,647.2,173.874Z" transform="translate(-645.006 -173.874)" fill="#fff"/>
              </g>
            </g>
            <g id="Grupo_528" data-name="Grupo 528" transform="translate(10.276 5.637)">
              <path id="Trazado_316" data-name="Trazado 316" d="M618.659,177.091" transform="translate(-618.659 -177.091)" fill="#fff"/>
            </g>
            <g id="Grupo_529" data-name="Grupo 529" transform="translate(0 5.429)">
              <path id="Trazado_317" data-name="Trazado 317" d="M620.544,189.031a4.462,4.462,0,0,1,0-8.907,6.922,6.922,0,0,1,3.17.732l.661-2.853a7.784,7.784,0,0,0-3.831-1.032,7.608,7.608,0,1,0,0,15.213,7.765,7.765,0,0,0,3.831-1.032l-.661-2.853A6.906,6.906,0,0,1,620.544,189.031Z" transform="translate(-612.795 -176.972)" fill="#fff"/>
            </g>
            <g id="Grupo_530" data-name="Grupo 530" transform="translate(29.013 5.59)">
              <path id="Trazado_318" data-name="Trazado 318" d="M639.943,177.8c-2.629-1.449-5.12-.622-7.058,1.3l-.256-1.277-.075-.412,0,.049,0-.009h-3.2v14.164h3.536v-9.522a4.49,4.49,0,0,1,2.425-1.931c1.61-.494,3.366.081,3.648,2.5v8.949H642.5v-8.949S642.58,179.256,639.943,177.8Z" transform="translate(-629.352 -177.064)" fill="#fff"/>
            </g>
            <g id="Grupo_531" data-name="Grupo 531" transform="translate(63.367 5.59)">
              <path id="Trazado_319" data-name="Trazado 319" d="M659.546,177.8c-2.628-1.449-5.12-.622-7.057,1.3l-.258-1.277-.075-.412,0,.049,0-.009h-3.2v14.164h3.536v-9.522a4.484,4.484,0,0,1,2.423-1.931c1.612-.494,3.368.081,3.65,2.5v8.949H662.1v-8.949S662.185,179.256,659.546,177.8Z" transform="translate(-648.957 -177.064)" fill="#fff"/>
            </g>
            <g id="Grupo_532" data-name="Grupo 532" transform="translate(93.533 5.59)">
              <path id="Trazado_320" data-name="Trazado 320" d="M676.761,177.8c-2.628-1.449-5.12-.622-7.057,1.3l-.258-1.277-.075-.412,0,.049,0-.009h-3.2v14.164h3.536v-9.522a4.485,4.485,0,0,1,2.424-1.931c1.612-.494,3.368.081,3.65,2.5v8.949h3.536v-8.949S679.4,179.256,676.761,177.8Z" transform="translate(-666.172 -177.064)" fill="#fff"/>
            </g>
            <g id="Grupo_533" data-name="Grupo 533" transform="translate(56.867 5.979)">
              <path id="Trazado_321" data-name="Trazado 321" d="M648.448,177.286h-3.2V191.45h3.536V177.286Z" transform="translate(-645.247 -177.286)" fill="#fff"/>
            </g>
            <g id="Grupo_534" data-name="Grupo 534" transform="translate(134.607 0.045)">
              <path id="Trazado_322" data-name="Trazado 322" d="M692.813,173.9h-3.2V194h3.536V173.9Z" transform="translate(-689.612 -173.9)" fill="#fff"/>
            </g>
            <g id="Grupo_535" data-name="Grupo 535" transform="translate(43.257 1.845)">
              <path id="Trazado_323" data-name="Trazado 323" d="M648.85,189.739a4.084,4.084,0,0,1-2.4.776,2.5,2.5,0,0,1-1.675-.664,2.561,2.561,0,0,1-.869-1.694v-5.911H648.4v-3.187h-4.509v-4.132l-6.412,7.319h2.893v5.911s-.266,3.226,1.728,4.519a7.5,7.5,0,0,0,6.964.251v-3.408Z" transform="translate(-637.481 -174.927)" fill="#fff"/>
            </g>
            <g id="Grupo_536" data-name="Grupo 536" transform="translate(107.569 1.845)">
              <path id="Trazado_324" data-name="Trazado 324" d="M685.553,189.739a4.089,4.089,0,0,1-2.4.776,2.507,2.507,0,0,1-1.675-.664,2.569,2.569,0,0,1-.869-1.694v-5.911H685.1v-3.187H680.6v-4.132l-6.413,7.319h2.893v5.911s-.265,3.226,1.73,4.519a7.5,7.5,0,0,0,6.964.251v-3.408Z" transform="translate(-674.182 -174.927)" fill="#fff"/>
            </g>
            <g id="Grupo_538" data-name="Grupo 538" transform="translate(78.165 5.497)">
              <g id="Grupo_537" data-name="Grupo 537">
                <path id="Trazado_325" data-name="Trazado 325" d="M671.152,183.393c-.435-3.238-2.208-6-5.455-6.324a7.043,7.043,0,0,0-5,1.062,7.56,7.56,0,0,0-3.294,6.419,7.685,7.685,0,0,0,7.749,7.607,7.765,7.765,0,0,0,3.831-1.032l-.661-2.853a6.906,6.906,0,0,1-3.17.731,4.19,4.19,0,0,1-3.976-3.349h10.018A18.758,18.758,0,0,0,671.152,183.393Zm-6.576-3.121a3.4,3.4,0,0,1,3.4,3.121h-6.8A3.4,3.4,0,0,1,664.576,180.272Z" transform="translate(-657.402 -177.011)" fill="#fff"/>
              </g>
            </g>
            <g id="Grupo_540" data-name="Grupo 540" transform="translate(120.133 5.429)">
              <g id="Grupo_539" data-name="Grupo 539">
                <path id="Trazado_326" data-name="Trazado 326" d="M693.746,182.28c0-2.847-2.872-5.308-7.151-5.308a7.783,7.783,0,0,0-3.83,1.032l.661,2.853a6.922,6.922,0,0,1,3.17-.732c1.938,0,3.333.817,3.613,2.467V184c-3.019-.555-8.856-1.568-8.856,3.892,0,6.149,7.072,3.955,8.718,2.246l.222-.221.251,1.77h3.2V182.6C693.748,182.5,693.746,182.39,693.746,182.28Zm-3.774,5.486c-2.1,1.964-5.357,2.515-5.36-.345,0-2.5,4.076-1.866,5.36-1.407Z" transform="translate(-681.352 -176.972)" fill="#fff"/>
              </g>
            </g>
          </g>
        </g>
      </g>
    </g>
  </g>
</svg>
