<svg id="Archivo" xmlns="http://www.w3.org/2000/svg" width="180" height="180" viewBox="0 0 180 180">
  <circle id="Elipse_499" data-name="Elipse 499" cx="90" cy="90" r="90" fill="#00438a" opacity="0.1"/>
  <path id="icons8-folder" d="M12.839,2C6.334,2,1,5.886,1,10.624V62.371C1,67.11,6.334,71,12.839,71H99.656c6.505,0,11.839-3.885,11.839-8.624V22.124c0-4.739-5.334-8.624-11.839-8.624h-52.9L41.6,6.537C39.538,3.729,35.53,2,31.183,2Zm0,5.75H31.183a4.414,4.414,0,0,1,3.484,1.5L37.811,13.5H8.893V10.624C8.893,9.007,10.619,7.75,12.839,7.75Zm-3.946,11.5H99.656c2.22,0,3.946,1.258,3.946,2.875V62.371c0,1.617-1.726,2.875-3.946,2.875H12.839c-2.22,0-3.946-1.258-3.946-2.875Z" transform="translate(34 53.175)" fill="#00438a" opacity="0.75"/>
</svg>
