<svg id="Carga" xmlns="http://www.w3.org/2000/svg" width="175" height="174.997" viewBox="0 0 175 174.997">
  <path id="Trazado_10833" data-name="Trazado 10833" d="M224.371,42.412a15.7,15.7,0,1,0-15.7-15.7A15.7,15.7,0,0,0,224.371,42.412Z" transform="translate(-136.833 -11.01)" fill="#1d428a" opacity="0.201"/>
  <path id="Trazado_10834" data-name="Trazado 10834" d="M84.661,100.171a15.694,15.694,0,0,0,11.1-26.808h0a15.7,15.7,0,1,0-11.1,26.808Z" transform="translate(-49.784 -49.653)" fill="#1d428a" opacity="0.073"/>
  <path id="Trazado_10835" data-name="Trazado 10835" d="M42.412,224.151a15.7,15.7,0,1,0-15.7,15.7A15.7,15.7,0,0,0,42.412,224.151Z" transform="translate(-11.01 -136.693)" fill="#1d428a"/>
  <path id="Trazado_10836" data-name="Trazado 10836" d="M73.384,352.791h0a15.7,15.7,0,1,0,22.2,0A15.7,15.7,0,0,0,73.384,352.791Z" transform="translate(-49.663 -223.772)" fill="#1d428a" opacity="0.905"/>
  <path id="Trazado_10837" data-name="Trazado 10837" d="M224.151,406.11a15.7,15.7,0,1,0,15.7,15.7A15.7,15.7,0,0,0,224.151,406.11Z" transform="translate(-136.693 -262.516)" fill="#1d428a" opacity="0.823"/>
  <path id="Trazado_10838" data-name="Trazado 10838" d="M352.791,352.934a15.721,15.721,0,0,0,0,22.2h0a15.7,15.7,0,1,0,0-22.2Z" transform="translate(-223.772 -223.862)" fill="#1d428a" opacity="0.737"/>
  <path id="Trazado_10839" data-name="Trazado 10839" d="M421.821,208.67a15.7,15.7,0,1,0,15.7,15.7A15.7,15.7,0,0,0,421.821,208.67Z" transform="translate(-262.522 -136.833)" fill="#1d428a" opacity="0.549"/>
  <path id="Trazado_10840" data-name="Trazado 10840" d="M363.991,100.249a15.655,15.655,0,0,0,11.1-4.59h0a15.721,15.721,0,1,0-11.1,4.591Z" transform="translate(-223.819 -49.677)" fill="#1d428a" opacity="0.396"/>
</svg>
