<svg id="delete" xmlns="http://www.w3.org/2000/svg" width="18.719" height="22.123" viewBox="0 0 18.719 22.123">
  <path id="icons8-trash" d="M9.651,1A2.559,2.559,0,0,0,7.105,3.546V4.4H2v1.7H3.7V20.57a2.562,2.562,0,0,0,2.553,2.553H16.465a2.562,2.562,0,0,0,2.553-2.553V6.105h1.7V4.4H15.614V3.546A2.559,2.559,0,0,0,13.068,1Zm0,1.7h3.417a.829.829,0,0,1,.844.844V4.4H8.807V3.546A.829.829,0,0,1,9.651,2.7ZM5.4,6.105H17.316V20.57a.84.84,0,0,1-.851.851H6.254A.84.84,0,0,1,5.4,20.57Zm1.7,1.7V19.719h1.7V7.807Zm3.4,0V19.719h1.7V7.807Zm3.4,0V19.719h1.7V7.807Z" transform="translate(-2 -1)" fill="#b7b7b7"/>
</svg>

