<svg xmlns="http://www.w3.org/2000/svg" width="48" height="52.364" viewBox="0 0 48 52.364">
  <path id="DocPDF" d="M9.545,2A6.579,6.579,0,0,0,3,8.545V28.182H7.364V8.545A2.153,2.153,0,0,1,9.545,6.364H29.182V19.455H42.273v8.727h4.364V16.369L32.267,2Zm24,7.449,5.642,5.642H33.545ZM3,32.545V54.364H7.364V45.636H9.545a6.545,6.545,0,1,0,0-13.091Zm17.455,0V54.364H27a6.579,6.579,0,0,0,6.545-6.545V39.091A6.579,6.579,0,0,0,27,32.545Zm17.455,0V54.364h4.364V45.636h4.364V41.273H42.273V36.909H51V32.545ZM7.364,36.909H9.545a2.182,2.182,0,1,1,0,4.364H7.364Zm17.455,0H27a2.153,2.153,0,0,1,2.182,2.182v8.727A2.153,2.153,0,0,1,27,50H24.818Z" transform="translate(-3 -2)"/>
</svg>
