<svg xmlns="http://www.w3.org/2000/svg" width="22.365" height="26.838" viewBox="0 0 22.365 26.838">
  <path id="Documento" d="M6.355,2A3.367,3.367,0,0,0,3,5.355V25.483a3.367,3.367,0,0,0,3.355,3.355H22.01a3.367,3.367,0,0,0,3.355-3.355V9.365L18,2Zm0,2.236H16.419v6.709h6.709V25.483A1.1,1.1,0,0,1,22.01,26.6H6.355a1.1,1.1,0,0,1-1.118-1.118V5.355A1.1,1.1,0,0,1,6.355,4.236Zm12.3,1.581,2.892,2.892H18.655Zm-8.946,9.6v2.236h8.946V15.419Zm0,4.473v2.236h6.709V19.892Z" transform="translate(-3 -2)" fill="#1d428a"/>
</svg>
