<svg id="Grupo_9383" data-name="Grupo 9383" xmlns="http://www.w3.org/2000/svg" width="85.242" height="31.447" viewBox="0 0 85.242 31.447">
  <g id="Grupo_4041" data-name="Grupo 4041">
    <path id="Trazado_3067" data-name="Trazado 3067" d="M264.846,214.785A15.688,15.688,0,1,1,251.234,238.3a15.586,15.586,0,0,1-26.861.365,15.723,15.723,0,1,1,0-16.451,15.689,15.689,0,0,1,26.934.436A15.725,15.725,0,0,1,264.846,214.785Z" transform="translate(-195.329 -214.714)" fill="#b7b7b7"/>
  </g>
  <g id="Grupo_4043" data-name="Grupo 4043" transform="translate(10.771 8.323)">
    <path id="Trazado_3069" data-name="Trazado 3069" d="M267.637,271.4a2.8,2.8,0,0,1-2.679-2.048,2.914,2.914,0,0,1,2.473-3.685l3.076-.009v1.59h-1.974c-1.038.289-1.341.9-1,1.835a1.427,1.427,0,0,0,1.178.744l2.391.009v-5.592c-.021-.463-.242-.463-.6-.463h-4.68v-1.644h6.52a1.588,1.588,0,0,1,1.5,1.252l-.006,8-6.2.006Zm7.329-.009-.007-9.262h6.4a2.664,2.664,0,0,1,2.751,2.778l.007,6.488-2.758,0,0-6.938c.024-.475-.714-.962-1.344-.854H277.69v7.793Zm28.1,0,0-7.846a1.539,1.539,0,0,1,1.275-1.416h3.317v1.416h-1.537c-.648.216-.564.58-.57.884l.009,6.963Zm-50.407.009V259.01l8.086.009a3.874,3.874,0,0,1,1.523.469,3.564,3.564,0,0,1,1.386,4.344c-.263.839-.787,1.064-.817,1.273a3.426,3.426,0,0,1,1.408,3.529,3.661,3.661,0,0,1-2.824,2.762h-4.8V269.7h2.846a2.137,2.137,0,0,0,1.528-1.293,1.932,1.932,0,0,0-1.556-2.524h-2.818V264.21h2.642a1.868,1.868,0,0,0,1.054-2.84,2.044,2.044,0,0,0-1.145-.772l-3.484.006,0,10.791Zm43.166-.009a2.8,2.8,0,0,1-2.683-2.049,2.917,2.917,0,0,1,2.473-3.684l3.079-.007v1.588h-1.974c-1.041.288-1.341.9-1,1.833a1.415,1.415,0,0,0,1.178.745l2.391.009v-5.589c-.024-.463-.242-.463-.6-.463h-4.68v-.006H290.2a3.015,3.015,0,0,0-.69,5.982h2.753v1.64h-3.911a6.359,6.359,0,0,1-1.808-.644,4.774,4.774,0,0,1-2.164-4.412,4.6,4.6,0,0,1,4.247-4.206h11.905a1.591,1.591,0,0,1,1.5,1.251l-.007,8.006-6.2.005Zm17.68-7.634v-1.609h-1.386a5.8,5.8,0,0,0-1.429.326,4.581,4.581,0,0,0-.744,8.287,4.257,4.257,0,0,0,1.7.631h5.888l0-11.77h-2.906l0,10.13H312.8a3.035,3.035,0,0,1-.407-5.878A2.757,2.757,0,0,1,313.5,263.752Z" transform="translate(-252.656 -259.01)" fill="#fff"/>
  </g>
  <g id="Grupo_4049" data-name="Grupo 4049" transform="translate(21.683 0.037)">
    <g id="Grupo_4044" data-name="Grupo 4044" transform="translate(0 10.789)">
      <path id="Trazado_3070" data-name="Trazado 3070" d="M321.916,279.491c-1.68,3.342-3.49,5.419-5.24,6.2a1.969,1.969,0,0,1-2.719-.652c-.813-1.33-.774-3.82.639-6.809,1.272-2.73,2.656-4.226,3.125-4.435a.372.372,0,0,1,.547.144c.243.4.068,1.877-1.061,3.94l-.268-.289c-1.475,1.985-1.888,3.378-1.645,3.774a1.579,1.579,0,0,0,1.627.557,8.925,8.925,0,0,0,2.579-3.9c.909-2.2,1.027-3.847.372-4.917a1.726,1.726,0,0,0-2.354-.542c-1.5.671-3.24,2.482-4.934,5.461-2.075,3.636-2.3,6.656-1.222,8.413,1.028,1.682,3.145,2.174,5.274,1.221,2.219-.994,4.285-3.554,5.771-7.589Z" transform="translate(-310.729 -272.332)" fill="#6c6c6c" fill-rule="evenodd"/>
    </g>
    <g id="Grupo_4045" data-name="Grupo 4045" transform="translate(11.938 8.161)">
      <path id="Trazado_3071" data-name="Trazado 3071" d="M382.106,265.629c-.653,1.714-1.236,2.676-1.723,2.894a.468.468,0,0,1-.575-.151c-.234-.382-.093-1.244.2-2.641.127-.583.193-.924.1-1.077a1.583,1.583,0,0,0-1.343-.391c-.488.219-1.548,2.017-2.654,5.433l-.359-.813c1.882-6.431,2.232-9.955,1.989-10.353a.994.994,0,0,0-.983-.1c-.325.145-1.389,2.277-2.088,6.133a14.956,14.956,0,0,0-.355,4.307,3.7,3.7,0,0,0,.6,1.465l.224.366c.561.918.96,1.382,1.465,1.155.685-.307.589-2.27,1.947-5.272-.226,1.736-.279,2.889.1,3.517a1.156,1.156,0,0,0,1.482.582c.884-.4,1.659-1.872,2.389-4.4Z" transform="translate(-374.264 -258.346)" fill="#6c6c6c" fill-rule="evenodd"/>
    </g>
    <g id="Grupo_4046" data-name="Grupo 4046" transform="translate(19.166 10.43)">
      <path id="Trazado_3072" data-name="Trazado 3072" d="M414.312,275.064a4.161,4.161,0,0,1,1.651-3.426c.09-.04.155-.011.23.112C416.462,272.193,415.873,273.371,414.312,275.064Zm.329.69c2.532-1.874,3.267-4.092,2.734-4.963-.28-.458-.825-.487-1.693-.1a5,5,0,0,0-2.561,2.8,3.73,3.73,0,0,0,.086,3.486,2.413,2.413,0,0,0,3.291,1.135c1.408-.631,2.318-2.147,3.076-4.629l-.411-.672c-.785,2.025-1.774,3.227-2.621,3.607a1.409,1.409,0,0,1-1.855-.591Z" transform="translate(-412.736 -270.422)" fill="#6c6c6c" fill-rule="evenodd"/>
    </g>
    <g id="Grupo_4047" data-name="Grupo 4047" transform="translate(25.234 7.848)">
      <path id="Trazado_3073" data-name="Trazado 3073" d="M451.195,259.054c-.812,1.979-1.691,3.21-2.755,3.687a1.288,1.288,0,0,1-1.736-.546l-.093-.153a5.853,5.853,0,0,1,1.14-2.458c.243.359.444.463.7.35a2.644,2.644,0,0,0,.534-2.848c-.27-.443-.635-.514-1.213-.255a5.66,5.66,0,0,0-2.229,2.556,3.468,3.468,0,0,0-.1,3.451c.8,1.314,2.487,1.962,3.462,1.525,1.01-.451,1.947-2,2.721-4.645Z" transform="translate(-445.028 -256.681)" fill="#6c6c6c" fill-rule="evenodd"/>
    </g>
    <g id="Grupo_4048" data-name="Grupo 4048" transform="translate(30.789)">
      <path id="Trazado_3074" data-name="Trazado 3074" d="M477.76,224.806a6.8,6.8,0,0,1,1.674-3.164.093.093,0,0,1,.136.036c.224.366-.123,1.3-.941,2.894Zm-.21,1.047c1.517.976,2.5,1.352,3.352.972.831-.372,1.55-1.863,2.3-4.475l-.429-.664c-.809,2.172-1.517,3.346-2.022,3.572-.235.105-.682.013-1.35-.291,1.262-2.22,2.033-3.441,1.378-4.512a1.289,1.289,0,0,0-1.464-.59c-.686.307-1.915,2.318-3.107,6.045l-.218-.583c1.888-6.122,2.456-9.589,2.1-10.17a.5.5,0,0,0-.631-.2c-.379.169-1.475,2.023-2.3,5.333-.741,3-.818,4.9.173,6.523.683,1.116,1.145,1.571,1.488,1.418C477.143,228.081,477.165,227.292,477.55,225.854Z" transform="translate(-474.594 -214.911)" fill="#6c6c6c" fill-rule="evenodd"/>
    </g>
  </g>
  <g id="Grupo_4055" data-name="Grupo 4055" transform="translate(22.097 11.007)">
    <path id="Trazado_3080" data-name="Trazado 3080" d="M320.442,273.324s-.813-.322-2.559,1.265a19.484,19.484,0,0,0-4.114,5.707c-.477,1.268-.834,2.262-.834,2.262s1.973-5.486,5.315-7.974c1.524-1.135,1.669-1.071,2.421-.991s1.066.966,1.066.966a1.841,1.841,0,0,0-.55-1.025A1.222,1.222,0,0,0,320.442,273.324Z" transform="translate(-312.935 -273.297)" fill="#908f8f" fill-rule="evenodd"/>
  </g>
</svg>
