<svg id="Grupo_9382" data-name="Grupo 9382" xmlns="http://www.w3.org/2000/svg" width="73.514" height="26.367" viewBox="0 0 73.514 26.367">
  <g id="Grupo_4062" data-name="Grupo 4062" transform="translate(0 0)">
    <path id="Trazado_3081" data-name="Trazado 3081" d="M318.171,339.945l67.647-.007a5.9,5.9,0,0,0,5.866-5.858v-20.5H318.171Z" transform="translate(-318.171 -313.578)" fill="#fff"/>
    <g id="Grupo_4061" data-name="Grupo 4061" transform="translate(1.16 1.158)">
      <path id="Trazado_3082" data-name="Trazado 3082" d="M321.265,340.734l66.473-.006a4.723,4.723,0,0,0,4.72-4.726V316.667H321.265Z" transform="translate(-321.265 -316.667)" fill="#6c6c6c"/>
      <path id="Trazado_3083" data-name="Trazado 3083" d="M410.53,341.723l-1.44-4.546-1.41,4.546Zm-.078-6.047,3.253,9.613h-2.044l-.651-1.992h-3.826l-.666,1.992h-2.045l3-8.879a1.081,1.081,0,0,1,1.023-.734Z" transform="translate(-372.812 -328.384)" fill="#fff"/>
      <path id="Trazado_3084" data-name="Trazado 3084" d="M436.5,342.849c0,.707-.372.938-1.255.938h-2V341.16h2.169c.775,0,1.085.318,1.085.966Zm-3.254-5.672h1.875c.713,0,1.023.245,1.023.779v.852c0,.562-.279.9-1.038.9h-1.859Zm3.7,3.1a1.529,1.529,0,0,0,1.147-1.559v-1c0-1.3-.79-2.05-2.742-2.05H431.3v9.613h4.338c1.874,0,2.819-.852,2.819-2.208v-1.025a1.721,1.721,0,0,0-1.5-1.775" transform="translate(-389.449 -328.384)" fill="#fff"/>
      <path id="Trazado_3085" data-name="Trazado 3085" d="M389.017,336.534h2.8v-.7a.953.953,0,0,0-.953-.953h-1.852c-2.507.024-3.583,1.044-3.583,2.784V342c0,1.74,1.077,2.76,3.583,2.784v.007h2.7v-.7a.951.951,0,0,0-.951-.951h-1.747v-.007c-1.223-.034-1.632-.468-1.632-1.451v-3.695c0-.984.409-1.417,1.632-1.451" transform="translate(-361.033 -327.893)" fill="#fff"/>
      <path id="Trazado_3086" data-name="Trazado 3086" d="M479.963,343.45V335.3h-.871a1.081,1.081,0,0,0-1.081,1.081v8.674h6.2v-1.6Z" transform="translate(-418.333 -328.149)" fill="#fff"/>
      <path id="Trazado_3087" data-name="Trazado 3087" d="M457.6,341.723l-1.44-4.546-1.41,4.546Zm-.078-6.047,3.253,9.613h-2.044l-.651-1.992h-3.826l-.667,1.992h-2.044l2.913-8.608a1.48,1.48,0,0,1,1.4-1.005Z" transform="translate(-401.97 -328.384)" fill="#fff"/>
      <path id="Trazado_3088" data-name="Trazado 3088" d="M357.141,327.758l7.129,7.15a1.034,1.034,0,0,1,0,1.453l-7.126,7.148v-4l3.347-3.373a.722.722,0,0,0,0-1.012l-3.351-3.385Z" transform="translate(-343.496 -323.6)" fill="#fff"/>
      <path id="Trazado_3089" data-name="Trazado 3089" d="M341.249,327.758l-7.129,7.15a1.034,1.034,0,0,0,0,1.453l7.126,7.148v-4L337.9,336.14a.722.722,0,0,1,0-1.012l3.351-3.385Z" transform="translate(-329.114 -323.6)" fill="#fff"/>
    </g>
  </g>
</svg>
