<svg xmlns="http://www.w3.org/2000/svg" xmlns:xlink="http://www.w3.org/1999/xlink" width="84.006" height="21.325" viewBox="0 0 84.006 21.325">
  <defs>
    <clipPath id="clip-path">
      <rect id="Rect치ngulo_4204" data-name="Rect치ngulo 4204" width="84.006" height="21.325" fill="none"/>
    </clipPath>
  </defs>
  <g id="Grupo_9273" data-name="Grupo 9273" clip-path="url(#clip-path)">
    <path id="Trazado_11086" data-name="Trazado 11086" d="M89.011,18.481h2.4V31.49h-2.4v-1.1A3.6,3.6,0,0,1,86,31.75a4.231,4.231,0,0,1-3.206-1.421,5.233,5.233,0,0,1,0-6.968A4.23,4.23,0,0,1,86,21.935a3.6,3.6,0,0,1,3.011,1.357ZM84.6,28.73a2.506,2.506,0,0,0,1.85.734,2.474,2.474,0,0,0,1.84-.734,2.816,2.816,0,0,0,0-3.772,2.475,2.475,0,0,0-1.84-.734,2.507,2.507,0,0,0-1.85.734,2.79,2.79,0,0,0,0,3.772" transform="translate(-62.001 -14.065)" fill="#fff"/>
    <path id="Trazado_11087" data-name="Trazado 11087" d="M131.778,19.959a1.492,1.492,0,0,1-1.469-1.469,1.44,1.44,0,0,1,.436-1.041,1.4,1.4,0,0,1,1.031-.443,1.416,1.416,0,0,1,1.05.443,1.44,1.44,0,0,1,.436,1.041,1.411,1.411,0,0,1-.436,1.031,1.431,1.431,0,0,1-1.05.436m-1.189,1.115h2.4v9.292h-2.4Z" transform="translate(-99.174 -12.941)" fill="#fff"/>
    <path id="Trazado_11088" data-name="Trazado 11088" d="M155.074,32.949a3.365,3.365,0,0,1,2.517,1.022,3.876,3.876,0,0,1,1,2.824v5.7h-2.4V37.093a1.9,1.9,0,0,0-.5-1.422,1.827,1.827,0,0,0-1.338-.493,1.974,1.974,0,0,0-1.486.576,2.4,2.4,0,0,0-.554,1.728V42.5h-2.4V33.208h2.4v1.041a3.1,3.1,0,0,1,2.769-1.3" transform="translate(-114.09 -25.077)" fill="#fff"/>
    <path id="Trazado_11089" data-name="Trazado 11089" d="M194.5,38.838a2.381,2.381,0,0,0,2.62,1.747,2.452,2.452,0,0,0,2.081-.929l1.933,1.115a4.608,4.608,0,0,1-4.051,1.994,5,5,0,0,1-3.7-1.393,4.9,4.9,0,0,1,3.512-8.417,4.43,4.43,0,0,1,3.372,1.412,4.9,4.9,0,0,1,1.329,3.493,5.621,5.621,0,0,1-.093.986H194.5m-.038-1.858h4.745a2.247,2.247,0,0,0-.846-1.412,2.425,2.425,0,0,0-1.459-.464,2.52,2.52,0,0,0-1.6.493,2.351,2.351,0,0,0-.836,1.384" transform="translate(-146.122 -25.075)" fill="#fff"/>
    <rect id="Rect치ngulo_4203" data-name="Rect치ngulo 4203" width="2.398" height="13.566" transform="translate(56.966 3.859)" fill="#fff"/>
    <path id="Trazado_11090" data-name="Trazado 11090" d="M259.733,42.761a4.906,4.906,0,0,1,0-9.813,4.818,4.818,0,0,1,2.471.65,4.331,4.331,0,0,1,1.691,1.747l-2.062,1.2a2.1,2.1,0,0,0-.845-.91,2.46,2.46,0,0,0-1.273-.332,2.4,2.4,0,0,0-1.784.715,2.7,2.7,0,0,0,0,3.643,2.4,2.4,0,0,0,1.784.715,2.547,2.547,0,0,0,1.291-.326,2.045,2.045,0,0,0,.845-.9l2.081,1.189A4.651,4.651,0,0,1,262.2,42.1a4.762,4.762,0,0,1-2.471.665" transform="translate(-193.939 -25.076)" fill="#fff"/>
    <path id="Trazado_11091" data-name="Trazado 11091" d="M303.212,41.344a4.958,4.958,0,1,1,1.431-3.484,4.769,4.769,0,0,1-1.431,3.484M297.925,39.7a2.415,2.415,0,0,0,1.793.724,2.448,2.448,0,0,0,1.8-.724,2.7,2.7,0,0,0,0-3.679,2.448,2.448,0,0,0-1.8-.724,2.415,2.415,0,0,0-1.793.724,2.723,2.723,0,0,0,0,3.679" transform="translate(-224.374 -25.081)" fill="#fff"/>
    <path id="Trazado_11092" data-name="Trazado 11092" d="M341.052,63.408a1.572,1.572,0,1,1,.464-1.115,1.524,1.524,0,0,1-.464,1.115" transform="translate(-257.511 -46.206)" fill="#fff"/>
    <path id="Trazado_11093" data-name="Trazado 11093" d="M8.806,21.325a8.825,8.825,0,0,1-6.1-2.437A8.7,8.7,0,0,1,8.714,3.894v2.4A6.294,6.294,0,0,0,4.357,17.146a6.435,6.435,0,0,0,4.449,1.772,6.238,6.238,0,0,0,6.23-6.23V2.389H13.153a1.026,1.026,0,0,0-1.026,1.027l.01,9.192a3.416,3.416,0,1,1-3.42-3.416v2.4A1.018,1.018,0,1,0,9.735,12.61l-.01-9.177A3.426,3.426,0,0,1,13.151,0h4.285V12.7a8.639,8.639,0,0,1-8.63,8.63" transform="translate(0.001)" fill="#fff"/>
  </g>
</svg>
