<svg xmlns="http://www.w3.org/2000/svg" xmlns:xlink="http://www.w3.org/1999/xlink" width="54.141" height="43.044" viewBox="0 0 54.141 43.044">
  <defs>
    <clipPath id="clip-path">
      <rect id="Rect치ngulo_4091" data-name="Rect치ngulo 4091" width="54.076" height="33.417" fill="none"/>
    </clipPath>
  </defs>
  <g id="Grupo_9393" data-name="Grupo 9393" transform="translate(-0.686)">
    <path id="Trazado_1244" data-name="Trazado 1244" d="M16.838,77.789V74.936a1.692,1.692,0,0,0-1.787-1.807,1.758,1.758,0,0,0-1.6.808,1.67,1.67,0,0,0-1.5-.808,1.5,1.5,0,0,0-1.33.676v-.561h-.99v4.545h1V75.27a1.063,1.063,0,0,1,1.113-1.208c.658,0,.989.427.989,1.2v2.529h1V75.27a1.072,1.072,0,0,1,1.114-1.208c.674,0,1,.427,1,1.2v2.529Zm14.776-4.545H30V71.865H29v1.379h-.923v.9H29V76.22c0,1.055.408,1.682,1.578,1.682a2.327,2.327,0,0,0,1.236-.352l-.286-.846a1.815,1.815,0,0,1-.875.257c-.495,0-.657-.3-.657-.761V74.148h1.616Zm8.434-.114a1.341,1.341,0,0,0-1.2.665v-.551h-.979v4.545h.988V75.241c0-.752.324-1.169.97-1.169a1.584,1.584,0,0,1,.618.114l.3-.932A2.108,2.108,0,0,0,40.049,73.13Zm-12.75.476a3.392,3.392,0,0,0-1.854-.476c-1.151,0-1.892.551-1.892,1.454,0,.742.551,1.2,1.568,1.341l.466.067c.542.076.8.218.8.474,0,.352-.362.552-1.036.552a2.413,2.413,0,0,1-1.513-.476l-.467.77a3.279,3.279,0,0,0,1.969.59c1.312,0,2.072-.618,2.072-1.483,0-.8-.6-1.217-1.587-1.36l-.467-.067c-.428-.057-.769-.142-.769-.447,0-.333.322-.532.864-.532a2.935,2.935,0,0,1,1.418.39Zm26.49-.476a1.337,1.337,0,0,0-1.2.665v-.551h-.98v4.545H52.6V75.241c0-.752.322-1.169.97-1.169a1.578,1.578,0,0,1,.617.114l.3-.932a2.125,2.125,0,0,0-.7-.124ZM41.047,75.516A2.3,2.3,0,0,0,43.473,77.9a2.379,2.379,0,0,0,1.635-.542l-.476-.8a2,2,0,0,1-1.188.409,1.457,1.457,0,0,1,0-2.909,2,2,0,0,1,1.188.409l.476-.8a2.38,2.38,0,0,0-1.635-.542,2.3,2.3,0,0,0-2.426,2.386Zm9.262,0V73.244H49.32v.551a1.728,1.728,0,0,0-1.436-.665,2.389,2.389,0,0,0,0,4.773,1.727,1.727,0,0,0,1.436-.665v.551h.989Zm-3.682,0a1.377,1.377,0,1,1,1.38,1.455A1.364,1.364,0,0,1,46.628,75.516ZM34.7,73.13a2.389,2.389,0,0,0,.067,4.773,2.76,2.76,0,0,0,1.863-.637l-.484-.733a2.157,2.157,0,0,1-1.321.476A1.263,1.263,0,0,1,33.461,75.9h3.375c.01-.123.018-.247.018-.38A2.178,2.178,0,0,0,34.7,73.13Zm-.018.885a1.126,1.126,0,0,1,1.15,1.1H33.469A1.17,1.17,0,0,1,34.677,74.015Zm24.807,1.5v-4.1H58.5v2.377a1.728,1.728,0,0,0-1.436-.665,2.389,2.389,0,0,0,0,4.773,1.727,1.727,0,0,0,1.436-.665v.551h.988Zm-3.68,0a1.376,1.376,0,1,1,1.379,1.455A1.364,1.364,0,0,1,55.8,75.516Zm-33.394,0V73.244h-.989v.551a1.727,1.727,0,0,0-1.436-.665,2.389,2.389,0,0,0,0,4.773,1.725,1.725,0,0,0,1.436-.665v.551h.989Zm-3.679,0a1.376,1.376,0,1,1,1.377,1.455A1.362,1.362,0,0,1,18.731,75.516Zm42.4,1.613a.434.434,0,0,1,.177.036.453.453,0,0,1,.245.241.437.437,0,0,1,0,.35.45.45,0,0,1-.1.143.456.456,0,0,1-.146.1.425.425,0,0,1-.177.036A.467.467,0,0,1,60.8,77.9a.459.459,0,0,1-.1-.143.443.443,0,0,1,0-.35.46.46,0,0,1,.1-.145.437.437,0,0,1,.148-.1.451.451,0,0,1,.184-.035Zm0,.8a.347.347,0,0,0,.246-.1.356.356,0,0,0,0-.5.355.355,0,0,0-.11-.075.342.342,0,0,0-.135-.026.362.362,0,0,0-.14.026.374.374,0,0,0-.113.075.342.342,0,0,0-.074.113.327.327,0,0,0-.026.137.334.334,0,0,0,.026.138.352.352,0,0,0,.074.112.357.357,0,0,0,.113.075.362.362,0,0,0,.141.028Zm.026-.564a.186.186,0,0,1,.124.036.118.118,0,0,1,.043.1.112.112,0,0,1-.035.085.164.164,0,0,1-.1.041l.137.159h-.107l-.126-.158h-.041v.158h-.09v-.418Zm-.1.078v.113h.1a.1.1,0,0,0,.057-.014.047.047,0,0,0,.021-.041.049.049,0,0,0-.021-.043.118.118,0,0,0-.057-.014Z" transform="translate(-6.765 -34.989)" fill="#fff"/>
    <g id="Grupo_9395" data-name="Grupo 9395" transform="translate(0.686)">
      <rect id="Rect치ngulo_4090" data-name="Rect치ngulo 4090" width="14.619" height="26.268" transform="translate(19.731 3.574)" fill="#7d7d7d"/>
      <g id="Grupo_8879" data-name="Grupo 8879" transform="translate(0 0)">
        <g id="Grupo_8878" data-name="Grupo 8878" clip-path="url(#clip-path)">
          <path id="Trazado_10955" data-name="Trazado 10955" d="M20.66,16.706A16.753,16.753,0,0,1,27.013,3.571a16.708,16.708,0,1,0,0,26.268A16.681,16.681,0,0,1,20.66,16.706" transform="translate(0 0.002)" fill="#3f3f3f"/>
          <path id="Trazado_10956" data-name="Trazado 10956" d="M47.033,16.709A16.69,16.69,0,0,1,20.022,29.843a16.745,16.745,0,0,0,0-26.268A16.69,16.69,0,0,1,47.033,16.71Z" transform="translate(7.042 0)" fill="#a4a4a4"/>
        </g>
      </g>
    </g>
  </g>
</svg>
