<svg id="Grupo_9394" data-name="Grupo 9394" xmlns="http://www.w3.org/2000/svg" xmlns:xlink="http://www.w3.org/1999/xlink" width="72.112" height="36.428" viewBox="0 0 72.112 36.428">
  <defs>
    <clipPath id="clip-path">
      <rect id="Rectángulo_1758" data-name="Rectángulo 1758" width="1.009" height="7.722" fill="#fff"/>
    </clipPath>
    <clipPath id="clip-path-2">
      <path id="Trazado_3150" data-name="Trazado 3150" d="M392.084,475.694c0-.585-.01-1.042-.045-1.5h.893l.059.9h.022a2.055,2.055,0,0,1,1.834-1.031c.767,0,1.959.458,1.959,2.359v3.311H395.8v-3.2c0-.894-.331-1.65-1.283-1.65a1.455,1.455,0,0,0-1.353,1.031,1.536,1.536,0,0,0-.068.469v3.346h-1.009Z" transform="translate(-392.039 -474.067)" fill="#fff" clip-rule="evenodd"/>
    </clipPath>
    <clipPath id="clip-path-3">
      <path id="Trazado_3151" data-name="Trazado 3151" d="M397.509,480.3v-4.777h-.766v-.767h.766v-.263a2.617,2.617,0,0,1,.653-1.936,1.916,1.916,0,0,1,1.34-.517,2.277,2.277,0,0,1,.859.161l-.127.779a1.545,1.545,0,0,0-.652-.127c-.848,0-1.077.756-1.077,1.6v.3h1.34v.767h-1.329V480.3Z" transform="translate(-396.743 -472.042)" fill="#fff" clip-rule="evenodd"/>
    </clipPath>
    <clipPath id="clip-path-4">
      <path id="Trazado_3152" data-name="Trazado 3152" d="M400.625,473.65a.647.647,0,0,1,.023-1.294.619.619,0,0,1,.642.641.632.632,0,0,1-.652.653Zm-.481,6.564v-5.544h1.008v5.544Z" transform="translate(-399.994 -472.356)" fill="#fff" clip-rule="evenodd"/>
    </clipPath>
    <clipPath id="clip-path-5">
      <path id="Trazado_3153" data-name="Trazado 3153" d="M387.7,450.527l-9.442,22.525H372.1l-4.645-17.976a2.464,2.464,0,0,0-1.386-1.978,24.325,24.325,0,0,0-5.747-1.916l.138-.655h9.915a2.714,2.714,0,0,1,2.687,2.3l2.454,13.034,6.063-15.331ZM411.836,465.7c.023-5.945-8.223-6.273-8.164-8.929.015-.808.786-1.667,2.468-1.888a11,11,0,0,1,5.749,1.009l1.022-4.777a15.631,15.631,0,0,0-5.451-1c-5.759,0-9.813,3.062-9.847,7.447-.036,3.242,2.894,5.05,5.1,6.13,2.27,1.1,3.031,1.811,3.023,2.8-.017,1.512-1.812,2.178-3.486,2.2a12.18,12.18,0,0,1-5.988-1.422l-1.055,4.935a17.659,17.659,0,0,0,6.481,1.2C407.811,473.4,411.815,470.38,411.836,465.7Zm15.207,7.354h5.389l-4.7-22.525h-4.976a2.654,2.654,0,0,0-2.48,1.652l-8.741,20.872h6.116l1.218-3.362h7.474Zm-6.5-7.98,3.068-8.46,1.764,8.46Zm-24.517-14.544-4.819,22.525h-5.826l4.819-22.525Z" transform="translate(-360.32 -450.115)" fill="#fff" clip-rule="evenodd"/>
    </clipPath>
    <clipPath id="clip-path-6">
      <path id="Trazado_3154" data-name="Trazado 3154" d="M402.441,475.694c0-.585-.01-1.042-.045-1.5h.893l.058.9h.023a2.054,2.054,0,0,1,1.833-1.031c.768,0,1.959.458,1.959,2.359v3.311h-1.008v-3.2c0-.894-.333-1.65-1.284-1.65a1.454,1.454,0,0,0-1.352,1.031,1.533,1.533,0,0,0-.069.469v3.346h-1.008Z" transform="translate(-402.396 -474.067)" fill="#fff" clip-rule="evenodd"/>
    </clipPath>
    <clipPath id="clip-path-7">
      <path id="Trazado_3155" data-name="Trazado 3155" d="M408.142,473.65a.647.647,0,0,1,.023-1.294.62.62,0,0,1,.642.641.633.633,0,0,1-.654.653Zm-.482,6.564v-5.544h1.009v5.544Z" transform="translate(-407.512 -472.356)" fill="#fff" clip-rule="evenodd"/>
    </clipPath>
    <clipPath id="clip-path-8">
      <path id="Trazado_3156" data-name="Trazado 3156" d="M411.3,473.126v1.33h1.443v.767H411.3v2.989c0,.688.194,1.077.755,1.077a1.894,1.894,0,0,0,.586-.068l.045.767a2.7,2.7,0,0,1-.893.138,1.441,1.441,0,0,1-1.09-.423,2.17,2.17,0,0,1-.389-1.457v-3.023h-.859v-.767h.859v-1.021Z" transform="translate(-409.456 -473.126)" fill="#fff" clip-rule="evenodd"/>
    </clipPath>
    <clipPath id="clip-path-9">
      <path id="Trazado_3157" data-name="Trazado 3157" d="M413.746,477.139a1.769,1.769,0,0,0,1.891,1.926,3.835,3.835,0,0,0,1.535-.275l.183.71a4.518,4.518,0,0,1-1.856.356,2.587,2.587,0,0,1-2.726-2.8,2.7,2.7,0,0,1,2.611-3,2.341,2.341,0,0,1,2.28,2.614,2.714,2.714,0,0,1-.033.48Zm2.945-.721a1.437,1.437,0,0,0-1.386-1.637,1.662,1.662,0,0,0-1.547,1.637Z" transform="translate(-412.773 -474.057)" fill="#fff" clip-rule="evenodd"/>
    </clipPath>
  </defs>
  <g id="Grupo_4302" data-name="Grupo 4302" transform="translate(37.607 28.58)">
    <g id="Grupo_4301" data-name="Grupo 4301" clip-path="url(#clip-path)">
      <rect id="Rectángulo_1757" data-name="Rectángulo 1757" width="1.009" height="7.722" fill="#fff"/>
    </g>
  </g>
  <g id="Grupo_4304" data-name="Grupo 4304" transform="translate(40.564 30.631)">
    <g id="Grupo_4303" data-name="Grupo 4303" clip-path="url(#clip-path-2)">
      <rect id="Rectángulo_1759" data-name="Rectángulo 1759" width="4.766" height="5.671" transform="translate(0 0)" fill="#fff"/>
    </g>
  </g>
  <g id="Grupo_4306" data-name="Grupo 4306" transform="translate(46.58 28.042)">
    <g id="Grupo_4305" data-name="Grupo 4305" clip-path="url(#clip-path-3)">
      <rect id="Rectángulo_1760" data-name="Rectángulo 1760" width="3.62" height="8.26" transform="translate(0 0)" fill="#fff"/>
    </g>
  </g>
  <g id="Grupo_4308" data-name="Grupo 4308" transform="translate(50.737 28.443)">
    <g id="Grupo_4307" data-name="Grupo 4307" clip-path="url(#clip-path-4)">
      <rect id="Rectángulo_1761" data-name="Rectángulo 1761" width="1.296" height="7.859" transform="translate(0 0)" fill="#fff"/>
    </g>
  </g>
  <g id="Grupo_4310" data-name="Grupo 4310" transform="translate(0 0)">
    <g id="Grupo_4309" data-name="Grupo 4309" clip-path="url(#clip-path-5)">
      <rect id="Rectángulo_1762" data-name="Rectángulo 1762" width="72.113" height="23.29" transform="translate(0 0)" fill="#fff"/>
    </g>
  </g>
  <g id="Grupo_4312" data-name="Grupo 4312" transform="translate(53.809 30.631)">
    <g id="Grupo_4311" data-name="Grupo 4311" clip-path="url(#clip-path-6)">
      <rect id="Rectángulo_1763" data-name="Rectángulo 1763" width="4.766" height="5.671" transform="translate(0 0)" fill="#fff"/>
    </g>
  </g>
  <g id="Grupo_4314" data-name="Grupo 4314" transform="translate(60.352 28.443)">
    <g id="Grupo_4313" data-name="Grupo 4313" clip-path="url(#clip-path-7)">
      <rect id="Rectángulo_1764" data-name="Rectángulo 1764" width="1.295" height="7.859" transform="translate(0 0)" fill="#fff"/>
    </g>
  </g>
  <g id="Grupo_4316" data-name="Grupo 4316" transform="translate(62.838 29.428)">
    <g id="Grupo_4315" data-name="Grupo 4315" clip-path="url(#clip-path-8)">
      <rect id="Rectángulo_1765" data-name="Rectángulo 1765" width="3.287" height="7.001" transform="translate(0 0)" fill="#fff"/>
    </g>
  </g>
  <g id="Grupo_4318" data-name="Grupo 4318" transform="translate(67.08 30.619)">
    <g id="Grupo_4317" data-name="Grupo 4317" clip-path="url(#clip-path-9)">
      <rect id="Rectángulo_1766" data-name="Rectángulo 1766" width="4.892" height="5.798" transform="translate(0 0.001)" fill="#fff"/>
    </g>
  </g>
</svg>
