<svg xmlns="http://www.w3.org/2000/svg" width="94.288" height="22.959" viewBox="0 0 94.288 22.959">
  <g id="Grupo_4066" data-name="Grupo 4066" transform="translate(-1454.543 -847)">
    <path id="Trazado_3065" data-name="Trazado 3065" d="M101.88,139.138h89.463a2.423,2.423,0,0,1,2.426,2.4V159.7a2.423,2.423,0,0,1-2.426,2.4H101.88a2.416,2.416,0,0,1-2.4-2.4v-18.16A2.417,2.417,0,0,1,101.88,139.138Z" transform="translate(1355.062 707.863)" fill="#fff"/>
    <g id="Grupo_4065" data-name="Grupo 4065" transform="translate(1462.55 853.131)">
      <path id="Trazado_3090" data-name="Trazado 3090" d="M456.279,394.672V392.76c0-2,2.487-1.85,3.762-1.85a3.022,3.022,0,0,1,1.579.456,1.5,1.5,0,0,1,.7,1.332c0,1.921.287,2.826-.985,3.455-1.034.511-5.058.826-5.058-1.482Zm-3.083-2.9v3.947c0,2.833,3.009,3.638,5.488,3.638,2.683,0,6.722-.163,6.722-3.638v-4.132c0-2.63-2.766-3.577-5-3.577-2.284,0-5.35-.167-6.735,2.022a3.439,3.439,0,0,0-.48,1.74Z" transform="translate(-387.383 -387.989)" fill="#e20a15" fill-rule="evenodd"/>
      <path id="Trazado_3091" data-name="Trazado 3091" d="M169.515,392.69v6.783c0,.946,2.4.759,2.833.428.278-.214.189-.623.188-1.106,0-1.177-.042-4.073.06-5.058a1.358,1.358,0,0,1,1.3-1.293h2.528a1.4,1.4,0,0,1,1.3,1.23c.115.611.06,4.207.059,5.122,0,1.278.053,1.357,1.974,1.357.533,0,1.048-.221,1.048-.74v-6.228a3.708,3.708,0,0,0-1.5-3.128c-2.017-1.5-6.286-1.358-8.2-.154a3.382,3.382,0,0,0-1.59,2.789Z" transform="translate(-152.297 -388.782)" fill="#e20a15" fill-rule="evenodd"/>
      <path id="Trazado_3092" data-name="Trazado 3092" d="M313.156,388.53v5.612a5.209,5.209,0,0,0,2.083,4.577,3.4,3.4,0,0,0,1.74.541H323.7c.817,0,.617-1.389.617-2.22,0-.987-.847-.864-1.357-.863h-4.44c-2.019,0-1.911-.949-1.911-2.529v-4.44c0-.386.141-1.3-.925-1.3a5.021,5.021,0,0,0-2.221.184c-.1.067-.307.285-.307.432Z" transform="translate(-271.332 -387.89)" fill="#e20a15" fill-rule="evenodd"/>
      <path id="Trazado_3093" data-name="Trazado 3093" d="M141.435,388.63v9.929c0,.252.268.678.493.678h2.343c.229,0,.555-.476.555-.74v-9.682c0-1.065-1.465-.863-2.405-.863-.315,0-.987.171-.987.678Z" transform="translate(-129.027 -387.929)" fill="#e20a15" fill-rule="evenodd"/>
      <path id="Trazado_3094" data-name="Trazado 3094" d="M243.25,437.613c0,1.081-.2,1.973.925,1.973h9.065c1.027,0,.8-1.08.8-2.158a.71.71,0,0,0-.678-.8h-9.312c-.583,0-.8.4-.8.987Z" transform="translate(-213.389 -428.277)" fill="#e20a15" fill-rule="evenodd"/>
      <path id="Trazado_3095" data-name="Trazado 3095" d="M243.247,413.853c0,.941-.2,1.973.863,1.973H253.3a.834.834,0,0,0,.513-.227c.36-.329.227-1.289.227-2.055a.7.7,0,0,0-.678-.678h-9.435c-.47,0-.678.5-.678.987Z" transform="translate(-213.387 -408.588)" fill="#e20a15" fill-rule="evenodd"/>
      <path id="Trazado_3096" data-name="Trazado 3096" d="M243.258,389.671c0,.431-.134,2.035.493,2.035h9.744c.755,0,.555-1.314.555-2.1,0-.742-.559-.863-1.3-.863h-8.078c-.692,0-1.418.037-1.418.925Z" transform="translate(-213.398 -388.599)" fill="#e20a15" fill-rule="evenodd"/>
      <path id="Trazado_3097" data-name="Trazado 3097" d="M76.481,388.731H69.7c-.946,0-.759,2.4-.428,2.833.214.278.623.189,1.106.189,1.177,0,4.073-.042,5.058.06a1.358,1.358,0,0,1,1.293,1.3v2.528a1.4,1.4,0,0,1-1.23,1.3c-.611.115-4.207.06-5.121.059-1.278,0-1.357.053-1.357,1.973,0,.533.221,1.048.74,1.048h6.228a3.707,3.707,0,0,0,3.128-1.5c1.5-2.017,1.358-6.286.154-8.2a3.382,3.382,0,0,0-2.789-1.59Z" transform="translate(-69 -388.587)" fill="#e20a15" fill-rule="evenodd"/>
      <path id="Trazado_3098" data-name="Trazado 3098" d="M385.753,388.731h6.783c.946,0,.759,2.4.428,2.833-.214.278-.623.189-1.106.189-1.177,0-4.073-.042-5.058.06a1.358,1.358,0,0,0-1.293,1.3v2.528a1.4,1.4,0,0,0,1.23,1.3c.611.115,4.207.06,5.121.059,1.278,0,1.357.053,1.357,1.973,0,.533-.221,1.048-.74,1.048h-6.228a3.707,3.707,0,0,1-3.128-1.5c-1.5-2.017-1.358-6.286-.154-8.2a3.382,3.382,0,0,1,2.789-1.59Z" transform="translate(-328.407 -388.587)" fill="#e20a15" fill-rule="evenodd"/>
    </g>
  </g>
</svg>
