<svg xmlns="http://www.w3.org/2000/svg" width="53.021" height="32.768" viewBox="0 0 53.021 32.768">
  <g id="mastercard-seeklogo.com" transform="translate(0 0)">
    <rect id="Rectángulo_1739" data-name="Rectángulo 1739" width="14.336" height="25.76" transform="translate(19.342 3.504)" fill="#ff5f00"/>
    <path id="Trazado_3058" data-name="Trazado 3058" d="M20.253,16.384A16.428,16.428,0,0,1,26.488,3.5a16.378,16.378,0,1,0-10.1,29.264,16.284,16.284,0,0,0,10.1-3.5A16.36,16.36,0,0,1,20.253,16.384Z" fill="#eb001b"/>
    <path id="Trazado_3059" data-name="Trazado 3059" d="M154.471,16.384a16.367,16.367,0,0,1-26.488,12.88,16.42,16.42,0,0,0,0-25.76,16.367,16.367,0,0,1,26.488,12.88Z" transform="translate(-101.45)" fill="#f79e1b"/>
  </g>
</svg>
