<svg xmlns="http://www.w3.org/2000/svg" width="75.203" height="24.287" viewBox="0 0 75.203 24.287">
  <path id="Trazado_3099" data-name="Trazado 3099" d="M760.813,729.309,750.968,752.8h-6.423L739.7,734.053a2.574,2.574,0,0,0-1.445-2.064,25.44,25.44,0,0,0-5.995-2l.144-.683h10.34a2.832,2.832,0,0,1,2.8,2.4L748.1,745.3l6.324-15.988h6.384Zm25.168,15.821c.026-6.2-8.573-6.541-8.514-9.311.018-.843.821-1.739,2.578-1.968a11.467,11.467,0,0,1,5.991,1.051l1.067-4.981a16.325,16.325,0,0,0-5.684-1.042c-6.006,0-10.233,3.193-10.269,7.765-.039,3.382,3.017,5.269,5.319,6.393,2.368,1.151,3.163,1.89,3.154,2.92-.017,1.576-1.889,2.271-3.639,2.3a12.727,12.727,0,0,1-6.239-1.483l-1.1,5.146a18.43,18.43,0,0,0,6.758,1.248c6.384,0,10.56-3.153,10.58-8.037m15.861,7.669h5.62l-4.906-23.491h-5.187a2.765,2.765,0,0,0-2.586,1.723L785.665,752.8h6.381l1.267-3.509h7.8Zm-6.78-8.323,3.2-8.82,1.841,8.82ZM769.5,729.309,764.471,752.8h-6.076l5.027-23.491Z" transform="translate(-732.26 -728.88)" fill="#fff"/>
</svg>
