<svg xmlns="http://www.w3.org/2000/svg" width="20.975" height="19.476" viewBox="0 0 20.975 19.476">
  <path id="icons8-profit-50" d="M13.682,1l2.078,2.078-2.037,1.89-4.5-3.962L4.043,5.887l1.03,1.089L9.258,3.037l4.489,3.956,3.072-2.856L18.978,6.3V1ZM3.247,8.491A2.255,2.255,0,0,0,1,10.738v7.491a2.255,2.255,0,0,0,2.247,2.247h16.48a2.255,2.255,0,0,0,2.247-2.247V10.738a2.255,2.255,0,0,0-2.247-2.247ZM4,9.989H18.978a1.509,1.509,0,0,0,1.5,1.5V17.48a1.509,1.509,0,0,0-1.5,1.5H4a1.509,1.509,0,0,0-1.5-1.5V11.487A1.509,1.509,0,0,0,4,9.989Zm7.491,1.5a3,3,0,1,0,3,3A3.01,3.01,0,0,0,11.487,11.487Zm-5.993,1.5a1.5,1.5,0,1,0,1.5,1.5A1.5,1.5,0,0,0,5.495,12.985Zm5.993,0a1.5,1.5,0,1,1-1.5,1.5A1.486,1.486,0,0,1,11.487,12.985Zm5.993,0a1.5,1.5,0,1,0,1.5,1.5A1.5,1.5,0,0,0,17.48,12.985Z" transform="translate(-1 -1)" fill="#b7b7b7"/>
</svg>
