<svg xmlns="http://www.w3.org/2000/svg" width="17.256" height="17.249" viewBox="0 0 17.256 17.249">
  <g id="upload-svgrepo-com" transform="translate(-11 -10.986)">
    <g id="Grupo_7619" data-name="Grupo 7619" transform="translate(11 10.986)">
      <path id="Trazado_5735" data-name="Trazado 5735" d="M119.58,16.638l2.884-3.1v9.343a.718.718,0,0,0,1.437,0V13.536l2.884,3.1a.72.72,0,0,0,1.056-.979l-4.131-4.444a.722.722,0,0,0-1.053,0l-4.131,4.444a.719.719,0,1,0,1.053.979Z" transform="translate(-114.555 -10.986)" fill="#1d428a"/>
      <path id="Trazado_5736" data-name="Trazado 5736" d="M27.537,341.2a.717.717,0,0,0-.718.718v3.465H12.437v-3.465a.718.718,0,1,0-1.437,0V346.1a.717.717,0,0,0,.718.718H27.537a.717.717,0,0,0,.718-.718v-4.184A.719.719,0,0,0,27.537,341.2Z" transform="translate(-11 -329.571)" fill="#1d428a"/>
    </g>
  </g>
</svg>
