<svg xmlns="http://www.w3.org/2000/svg" width="23.999" height="25.999" viewBox="0 0 23.999 25.999">
  <path id="icons8-password-50" d="M14,1A8.015,8.015,0,0,0,6,9v2H5a3.015,3.015,0,0,0-3,3V24a3.015,3.015,0,0,0,3,3H23a3.015,3.015,0,0,0,3-3V14a3.015,3.015,0,0,0-3-3H22V9A8.015,8.015,0,0,0,14,1Zm0,2a5.985,5.985,0,0,1,6,6v2H8V9A5.985,5.985,0,0,1,14,3ZM5,13H23a.987.987,0,0,1,1,1V24a.987.987,0,0,1-1,1H5a.987.987,0,0,1-1-1V14A.987.987,0,0,1,5,13Zm3,4a2,2,0,1,0,2,2A2,2,0,0,0,8,17Zm6,0a2,2,0,1,0,2,2A2,2,0,0,0,14,17Zm6,0a2,2,0,1,0,2,2A2,2,0,0,0,20,17Z" transform="translate(-2 -1)" fill="#1d428a"/>
</svg>
