<svg xmlns="http://www.w3.org/2000/svg" width="22.648" height="22.974" viewBox="0 0 22.648 22.974">
  <g id="print-outline_1_" data-name="print-outline (1)" transform="translate(0.75 0.75)">
    <path id="Trazado_10943" data-name="Trazado 10943" d="M81.623,141.217h1.322a2.209,2.209,0,0,0,2.2-2.2V130.2a2.209,2.209,0,0,0-2.2-2.2H66.2a2.209,2.209,0,0,0-2.2,2.2v8.811a2.21,2.21,0,0,0,2.2,2.2h1.322" transform="translate(-64 -124.475)" fill="none" stroke="#1d428a" stroke-linejoin="round" stroke-width="1.5"/>
    <rect id="Rectángulo_4076" data-name="Rectángulo 4076" width="13.896" height="11.369" rx="1" transform="translate(3.79 10.106)" fill="none" stroke="#1d428a" stroke-linejoin="round" stroke-width="1.5"/>
    <path id="Trazado_10944" data-name="Trazado 10944" d="M142.1,67.525V66.2a2.209,2.209,0,0,0-2.2-2.2H130.2a2.209,2.209,0,0,0-2.2,2.2v1.322" transform="translate(-124.475 -64)" fill="none" stroke="#1d428a" stroke-linejoin="round" stroke-width="1.5"/>
    <ellipse id="Elipse_498" data-name="Elipse 498" cx="1.263" cy="1.263" rx="1.263" ry="1.263" transform="translate(16.422 5.053)" fill="#1d428a"/>
  </g>
</svg>
