<svg xmlns="http://www.w3.org/2000/svg" width="40" height="40" viewBox="0 0 40 40">
  <path id="_47_Office_Building_Buildings_City_Town_Village" data-name="47 Office, Building, Buildings, City, Town, Village" d="M40.182,40.182v-30a2.727,2.727,0,0,0-2.727-2.727H30.182V4.727A2.727,2.727,0,0,0,27.455,2H16.545a2.727,2.727,0,0,0-2.727,2.727V7.455H6.545a2.727,2.727,0,0,0-2.727,2.727v30H2V42H42V40.182Zm-34.545-30a.909.909,0,0,1,.909-.909h7.273V40.182H5.636Zm10-1.818V4.727a.909.909,0,0,1,.909-.909H27.455a.909.909,0,0,1,.909.909V40.182H26.545V32a.909.909,0,0,0-.909-.909H18.364a.909.909,0,0,0-.909.909v8.182H15.636Zm3.636,31.818V32.909h5.455v7.273Zm10.909,0V9.273h7.273a.909.909,0,0,1,.909.909v30ZM7.455,34.727H12v1.818H7.455Zm0-5.455H12v1.818H7.455Zm0-5.455H12v1.818H7.455Zm0-5.455H12v1.818H7.455Zm0-5.455H12v1.818H7.455ZM32,34.727h4.545v1.818H32Zm0-5.455h4.545v1.818H32Zm0-5.455h4.545v1.818H32Zm0-5.455h4.545v1.818H32Zm0-5.455h4.545v1.818H32ZM21.091,29.273H17.455V27.455h3.636Zm0-5.455H17.455V22h3.636Zm0-5.455H17.455V16.545h3.636Zm0-5.455H17.455V11.091h3.636Zm0-5.455H17.455V5.636h3.636Zm5.455,21.818H22.909V27.455h3.636Zm0-5.455H22.909V22h3.636Zm0-5.455H22.909V16.545h3.636Zm0-5.455H22.909V11.091h3.636Zm0-5.455H22.909V5.636h3.636Z" transform="translate(-2 -2)" fill="#1D428A"/>
</svg>
