<svg xmlns="http://www.w3.org/2000/svg" width="41.932" height="38.309" viewBox="0 0 41.932 38.309">
  <g id="home-outline" transform="translate(-30.586 -47.018)">
    <path id="Trazado_10951" data-name="Trazado 10951" d="M80,212v20.6a1.4,1.4,0,0,0,1.4,1.4h8.379V222.125a2.1,2.1,0,0,1,2.095-2.095h6.983a2.1,2.1,0,0,1,2.095,2.095V234h8.379a1.4,1.4,0,0,0,1.4-1.4V212" transform="translate(-43.81 -149.669)" fill="none" stroke="#1D428A" stroke-linecap="round" stroke-linejoin="round" stroke-width="2"/>
    <path id="Trazado_10952" data-name="Trazado 10952" d="M71.1,66.171,52.5,48.365a1.473,1.473,0,0,0-1.9,0L32,66.171M64.121,59.45V49.412h-4.19v6.023" transform="translate(0 0)" fill="none" stroke="#1D428A" stroke-linecap="round" stroke-linejoin="round" stroke-width="2"/>
  </g>
</svg>
