<svg xmlns="http://www.w3.org/2000/svg" width="30.005" height="38.188" viewBox="0 0 30.005 38.188">
  <g id="location-pin" transform="translate(-10 -4)">
    <path id="Trazado_10902" data-name="Trazado 10902" d="M25,42.188a.723.723,0,0,1-.416-.136C23.993,41.595,10,30.8,10,19a15,15,0,1,1,30,0c0,11.8-13.993,22.592-14.586,23.049a.723.723,0,0,1-.416.136ZM25,5.364A13.639,13.639,0,0,0,11.364,19c0,10.031,11.313,19.776,13.639,21.631C27.328,38.778,38.641,29.027,38.641,19A13.639,13.639,0,0,0,25,5.364Z" fill="#b7b7b7"/>
    <path id="Trazado_10903" data-name="Trazado 10903" d="M28.5,30A7.5,7.5,0,1,1,36,22.5,7.5,7.5,0,0,1,28.5,30Zm0-13.639A6.137,6.137,0,1,0,34.639,22.5,6.137,6.137,0,0,0,28.5,16.364Z" transform="translate(-3.499 -3.499)" fill="#b7b7b7"/>
  </g>
</svg>
