<svg xmlns="http://www.w3.org/2000/svg" width="53.085" height="34.124" viewBox="0 0 53.085 34.124">
  <g id="Grupo_4058" data-name="Grupo 4058" transform="translate(-173.311 -138.967)">
    <g id="Grupo_4057" data-name="Grupo 4057" transform="translate(173.481 139.137)">
      <g id="Grupo_4040" data-name="Grupo 4040" transform="translate(0)">
        <path id="Trazado_3065" data-name="Trazado 3065" d="M177.011,139.139l45.644,0a3.565,3.565,0,0,1,3.571,3.53v26.721a3.565,3.565,0,0,1-3.571,3.53l-45.644,0a3.556,3.556,0,0,1-3.53-3.53V142.669A3.557,3.557,0,0,1,177.011,139.139Z" transform="translate(-173.481 -139.137)" fill="#fff"/>
        <path id="Trazado_3066" data-name="Trazado 3066" d="M177.011,139.139l45.644,0a3.565,3.565,0,0,1,3.571,3.53v26.721a3.565,3.565,0,0,1-3.571,3.53l-45.644,0a3.556,3.556,0,0,1-3.53-3.53V142.669A3.557,3.557,0,0,1,177.011,139.139Z" transform="translate(-173.481 -139.137)" fill="none" stroke="#818386" stroke-miterlimit="3.864" stroke-width="0.34"/>
      </g>
      <g id="Grupo_4056" data-name="Grupo 4056" transform="translate(2.328 8.054)">
        <g id="Grupo_4041" data-name="Grupo 4041">
          <path id="Trazado_3067" data-name="Trazado 3067" d="M234.758,214.754a8.9,8.9,0,1,1-7.721,13.336,8.84,8.84,0,0,1-15.235.207,8.918,8.918,0,1,1,0-9.331,8.9,8.9,0,0,1,15.276.248A8.919,8.919,0,0,1,234.758,214.754Z" transform="translate(-195.329 -214.714)" fill="#003783"/>
        </g>
        <g id="Grupo_4042" data-name="Grupo 4042" transform="translate(31.052 0.564)">
          <path id="Trazado_3068" data-name="Trazado 3068" d="M486.705,223.71s1.01.664,1.022.645c0,0,.084.018.085.016a7.611,7.611,0,0,1,4.448-3.885,9.664,9.664,0,0,1,3.113-.475,7.8,7.8,0,0,1,4.48,1.4s.341.342.339.341a8.547,8.547,0,0,0-7.17-1.041,8.663,8.663,0,0,0-5.157,4.409,12.219,12.219,0,0,0-.781-.948C486.652,223.7,486.705,223.71,486.705,223.71Z" transform="translate(-486.703 -220.011)" fill="#414892" fill-rule="evenodd"/>
        </g>
        <g id="Grupo_4043" data-name="Grupo 4043" transform="translate(6.109 4.721)">
          <path id="Trazado_3069" data-name="Trazado 3069" d="M261.153,266.035a1.586,1.586,0,0,1-1.519-1.161,1.653,1.653,0,0,1,1.4-2.09l1.745,0v.9h-1.119c-.589.164-.761.511-.565,1.041a.809.809,0,0,0,.668.422l1.356.005v-3.172c-.012-.263-.137-.263-.34-.263h-2.654v-.933h3.7a.9.9,0,0,1,.85.71l0,4.54-3.518,0Zm4.157-.005,0-5.253h3.631a1.511,1.511,0,0,1,1.56,1.575l0,3.68-1.564,0,0-3.935c.014-.269-.405-.546-.762-.484h-1.322v4.42Zm15.937,0,0-4.45a.873.873,0,0,1,.723-.8h1.882v.8h-.872c-.368.122-.32.329-.323.5l0,3.949Zm-28.59.005V259.01l4.586.005a2.2,2.2,0,0,1,.864.266,2.022,2.022,0,0,1,.786,2.464c-.149.476-.446.6-.464.722a1.943,1.943,0,0,1,.8,2,2.077,2.077,0,0,1-1.6,1.567H254.9v-.96h1.614a1.212,1.212,0,0,0,.867-.733,1.1,1.1,0,0,0-.882-1.431h-1.6v-.951h1.5a1.06,1.06,0,0,0,.6-1.611,1.159,1.159,0,0,0-.649-.438l-1.976,0,0,6.121Zm24.483-.005a1.589,1.589,0,0,1-1.522-1.162,1.654,1.654,0,0,1,1.4-2.09l1.746,0v.9h-1.12c-.59.163-.761.513-.565,1.04a.8.8,0,0,0,.668.423l1.356.005v-3.17c-.014-.262-.137-.262-.34-.262h-2.654v0h-2.163a1.71,1.71,0,0,0-.392,3.393h1.561v.93H272.9a3.607,3.607,0,0,1-1.026-.365,2.708,2.708,0,0,1-1.227-2.5,2.609,2.609,0,0,1,2.409-2.386h6.753a.9.9,0,0,1,.852.709l0,4.541-3.517,0Zm10.028-4.33v-.913h-.786a3.288,3.288,0,0,0-.81.185,2.6,2.6,0,0,0-.422,4.7,2.415,2.415,0,0,0,.962.358h3.34l0-6.676H287.8V265.1H286.77a1.721,1.721,0,0,1-.231-3.334A1.563,1.563,0,0,1,287.167,261.7Z" transform="translate(-252.656 -259.01)" fill="#fff"/>
        </g>
        <g id="Grupo_4049" data-name="Grupo 4049" transform="translate(12.298 0.021)">
          <g id="Grupo_4044" data-name="Grupo 4044" transform="translate(0 6.119)">
            <path id="Trazado_3070" data-name="Trazado 3070" d="M317.075,276.393c-.953,1.9-1.98,3.074-2.972,3.518a1.117,1.117,0,0,1-1.542-.37c-.461-.754-.439-2.167.362-3.862a6.257,6.257,0,0,1,1.772-2.516.211.211,0,0,1,.311.082c.138.225.039,1.065-.6,2.235l-.152-.164c-.837,1.126-1.071,1.916-.933,2.141a.9.9,0,0,0,.923.316,5.061,5.061,0,0,0,1.463-2.212c.516-1.247.582-2.182.211-2.789a.979.979,0,0,0-1.335-.308,7.214,7.214,0,0,0-2.8,3.1c-1.177,2.062-1.3,3.775-.693,4.772a2.262,2.262,0,0,0,2.992.693c1.259-.564,2.43-2.016,3.273-4.3Z" transform="translate(-310.729 -272.332)" fill="#d8910b" fill-rule="evenodd"/>
          </g>
          <g id="Grupo_4045" data-name="Grupo 4045" transform="translate(6.771 4.629)">
            <path id="Trazado_3071" data-name="Trazado 3071" d="M378.712,262.477c-.37.972-.7,1.518-.977,1.642a.265.265,0,0,1-.326-.085c-.132-.217-.053-.706.114-1.5.072-.33.11-.524.057-.611a.9.9,0,0,0-.762-.222c-.277.124-.878,1.144-1.505,3.081l-.2-.461c1.068-3.647,1.266-5.647,1.128-5.872a.563.563,0,0,0-.558-.059c-.184.082-.788,1.291-1.184,3.478a8.482,8.482,0,0,0-.2,2.443,2.1,2.1,0,0,0,.339.831l.127.207c.318.521.544.784.831.655.389-.174.334-1.287,1.1-2.99a3.526,3.526,0,0,0,.059,1.995.656.656,0,0,0,.841.33c.5-.225.941-1.062,1.355-2.495Z" transform="translate(-374.264 -258.346)" fill="#d8910b" fill-rule="evenodd"/>
          </g>
          <g id="Grupo_4046" data-name="Grupo 4046" transform="translate(10.871 5.916)">
            <path id="Trazado_3072" data-name="Trazado 3072" d="M413.63,273.055a2.36,2.36,0,0,1,.936-1.943c.051-.022.088-.006.13.064C414.849,271.427,414.515,272.095,413.63,273.055Zm.187.391c1.436-1.063,1.853-2.321,1.551-2.815-.159-.26-.468-.276-.96-.056a2.835,2.835,0,0,0-1.452,1.589,2.116,2.116,0,0,0,.049,1.977,1.369,1.369,0,0,0,1.867.644c.8-.358,1.315-1.218,1.745-2.626l-.233-.381a3.64,3.64,0,0,1-1.487,2.046.8.8,0,0,1-1.052-.335Z" transform="translate(-412.736 -270.422)" fill="#d8910b" fill-rule="evenodd"/>
          </g>
          <g id="Grupo_4047" data-name="Grupo 4047" transform="translate(14.312 4.451)">
            <path id="Trazado_3073" data-name="Trazado 3073" d="M448.526,258.027a3.656,3.656,0,0,1-1.563,2.091.731.731,0,0,1-.985-.31l-.053-.087a3.321,3.321,0,0,1,.647-1.394c.138.2.252.263.4.2a1.5,1.5,0,0,0,.3-1.616c-.153-.251-.36-.291-.688-.145a3.211,3.211,0,0,0-1.264,1.45,1.967,1.967,0,0,0-.055,1.957,1.782,1.782,0,0,0,1.964.865c.573-.256,1.1-1.135,1.543-2.635Z" transform="translate(-445.028 -256.681)" fill="#d8910b" fill-rule="evenodd"/>
          </g>
          <g id="Grupo_4048" data-name="Grupo 4048" transform="translate(17.463)">
            <path id="Trazado_3074" data-name="Trazado 3074" d="M476.39,220.524a3.854,3.854,0,0,1,.949-1.795.053.053,0,0,1,.077.021c.127.208-.07.738-.534,1.642Zm-.119.594c.86.554,1.421.767,1.9.551s.879-1.057,1.3-2.538l-.243-.377c-.459,1.232-.86,1.9-1.147,2.026-.133.06-.387.008-.766-.165.716-1.259,1.153-1.952.782-2.559a.731.731,0,0,0-.83-.335c-.389.174-1.086,1.315-1.762,3.429l-.124-.331c1.071-3.472,1.393-5.439,1.192-5.769a.284.284,0,0,0-.358-.116,6.572,6.572,0,0,0-1.3,3.025c-.42,1.7-.464,2.781.1,3.7.387.633.649.891.844.8S476.052,221.933,476.271,221.118Z" transform="translate(-474.594 -214.911)" fill="#d8910b" fill-rule="evenodd"/>
          </g>
        </g>
        <g id="Grupo_4050" data-name="Grupo 4050" transform="translate(0.453 0.518)">
          <path id="Trazado_3075" data-name="Trazado 3075" d="M200.084,230.882l.975,1.867a8.434,8.434,0,0,1,12.847-10.623l-.931-.927a8.429,8.429,0,0,0-12.892,9.683Z" transform="translate(-199.579 -219.579)" fill="#414892" fill-rule="evenodd"/>
        </g>
        <g id="Grupo_4051" data-name="Grupo 4051" transform="translate(15.514 0.536)">
          <path id="Trazado_3076" data-name="Trazado 3076" d="M354.744,221.634a8.54,8.54,0,0,0-12.524,3.307,9.615,9.615,0,0,0-.824-1.032,3.134,3.134,0,0,1-.489-.577l1.136.763.093.023a7.931,7.931,0,0,1,7.522-4.375,8.045,8.045,0,0,1,4.7,1.5Z" transform="translate(-340.907 -219.743)" fill="#003783" fill-rule="evenodd"/>
        </g>
        <g id="Grupo_4052" data-name="Grupo 4052" transform="translate(15.564 0.546)">
          <path id="Trazado_3077" data-name="Trazado 3077" d="M341.377,223.458s1.094.731,1.1.724l.09.021a7.527,7.527,0,0,1,4.46-3.9,9.655,9.655,0,0,1,3.075-.473,7.96,7.96,0,0,1,4.626,1.47l.371.372a8.554,8.554,0,0,0-7.249-1.113,8.6,8.6,0,0,0-5.21,4.44,10.224,10.224,0,0,0-.81-1C341.359,223.487,341.377,223.458,341.377,223.458Z" transform="translate(-341.377 -219.833)" fill="#818386" fill-rule="evenodd"/>
        </g>
        <g id="Grupo_4053" data-name="Grupo 4053" transform="translate(15.614 0.555)">
          <path id="Trazado_3078" data-name="Trazado 3078" d="M341.843,223.585s1.052.7,1.06.684.087.02.088.019a7.571,7.571,0,0,1,4.454-3.891,9.657,9.657,0,0,1,3.094-.474,7.874,7.874,0,0,1,4.553,1.435s.357.357.355.357a8.544,8.544,0,0,0-7.209-1.077,8.632,8.632,0,0,0-5.184,4.424,11.04,11.04,0,0,0-.8-.976C341.808,223.6,341.843,223.585,341.843,223.585Z" transform="translate(-341.843 -219.923)" fill="#18297a" fill-rule="evenodd"/>
        </g>
        <g id="Grupo_4054" data-name="Grupo 4054" transform="translate(15.663 0.564)">
          <path id="Trazado_3079" data-name="Trazado 3079" d="M342.3,223.71s1.01.664,1.022.645c0,0,.084.018.085.016a7.616,7.616,0,0,1,4.448-3.885,9.663,9.663,0,0,1,3.113-.475,7.8,7.8,0,0,1,4.48,1.4s.341.342.338.341a8.545,8.545,0,0,0-7.17-1.041,8.663,8.663,0,0,0-5.158,4.409,12.222,12.222,0,0,0-.781-.948C342.249,223.7,342.3,223.71,342.3,223.71Z" transform="translate(-342.3 -220.011)" fill="#414892" fill-rule="evenodd"/>
        </g>
        <g id="Grupo_4055" data-name="Grupo 4055" transform="translate(12.533 6.243)">
          <path id="Trazado_3080" data-name="Trazado 3080" d="M317.193,273.312s-.461-.183-1.451.718a11.052,11.052,0,0,0-2.334,3.237c-.271.719-.473,1.283-.473,1.283s1.119-3.111,3.014-4.523c.864-.644.947-.607,1.373-.562s.6.548.6.548a1.045,1.045,0,0,0-.312-.582A.693.693,0,0,0,317.193,273.312Z" transform="translate(-312.935 -273.297)" fill="#e1bd38" fill-rule="evenodd"/>
        </g>
      </g>
    </g>
  </g>
</svg>
