<svg xmlns="http://www.w3.org/2000/svg" width="83.407" height="29.916" viewBox="0 0 83.407 29.916">
  <g id="Grupo_4063" data-name="Grupo 4063" transform="translate(-294.353 -295.737)">
    <g id="Grupo_4062" data-name="Grupo 4062" transform="translate(294.353 295.737)">
      <path id="Trazado_3081" data-name="Trazado 3081" d="M318.171,343.494l76.751-.008a6.7,6.7,0,0,0,6.656-6.646V313.578H318.171Z" transform="translate(-318.171 -313.578)" fill="#fff"/>
      <g id="Grupo_4061" data-name="Grupo 4061" transform="translate(1.333 1.33)">
        <path id="Trazado_3082" data-name="Trazado 3082" d="M321.265,343.94l75.388-.007a5.355,5.355,0,0,0,5.353-5.355v-21.91H321.265Z" transform="translate(-321.265 -316.667)" fill="#00538b"/>
        <path id="Trazado_3083" data-name="Trazado 3083" d="M411.432,342.624l-1.655-5.223-1.62,5.223Zm-.089-6.948,3.737,11.044h-2.349l-.748-2.288h-4.4l-.765,2.288h-2.349l3.452-10.2a1.242,1.242,0,0,1,1.176-.843Z" transform="translate(-368.635 -327.489)" fill="#fff"/>
        <path id="Trazado_3084" data-name="Trazado 3084" d="M437.277,343.917c0,.812-.427,1.078-1.442,1.078h-2.3v-3.018h2.492c.89,0,1.246.365,1.246,1.11Zm-3.738-6.517h2.154c.819,0,1.175.282,1.175.9v.979c0,.646-.32,1.029-1.193,1.029h-2.136Zm4.254,3.565a1.757,1.757,0,0,0,1.318-1.791V338.03c0-1.492-.908-2.355-3.15-2.355H431.3v11.044h4.984c2.153,0,3.239-.979,3.239-2.536V343a1.977,1.977,0,0,0-1.727-2.04" transform="translate(-383.906 -327.488)" fill="#fff"/>
        <path id="Trazado_3085" data-name="Trazado 3085" d="M389.551,336.78h3.223v-.8a1.1,1.1,0,0,0-1.095-1.095h-2.128c-2.88.028-4.117,1.2-4.117,3.2v4.974c0,2,1.237,3.171,4.117,3.2v.008h3.1v-.8a1.092,1.092,0,0,0-1.092-1.093h-2.008v-.008c-1.405-.039-1.875-.537-1.875-1.667v-4.245c0-1.13.469-1.628,1.875-1.667" transform="translate(-357.796 -327.038)" fill="#fff"/>
        <path id="Trazado_3086" data-name="Trazado 3086" d="M480.253,344.664V335.3h-1a1.242,1.242,0,0,0-1.242,1.242V346.5h7.118v-1.84Z" transform="translate(-410.5 -327.273)" fill="#fff"/>
        <path id="Trazado_3087" data-name="Trazado 3087" d="M458.5,342.624l-1.655-5.223-1.62,5.223Zm-.089-6.948,3.737,11.044H459.8l-.748-2.288h-4.4l-.766,2.288h-2.349l3.346-9.889a1.7,1.7,0,0,1,1.61-1.155Z" transform="translate(-395.431 -327.489)" fill="#fff"/>
        <path id="Trazado_3088" data-name="Trazado 3088" d="M357.141,327.758l8.19,8.043a1.145,1.145,0,0,1,0,1.635l-8.187,8.041v-4.5l3.845-3.795a.8.8,0,0,0,0-1.138l-3.85-3.807Z" transform="translate(-341.689 -322.981)" fill="#fff"/>
        <path id="Trazado_3089" data-name="Trazado 3089" d="M342.354,327.758l-8.19,8.043a1.146,1.146,0,0,0,0,1.635l8.186,8.041v-4.5l-3.844-3.795a.8.8,0,0,1,0-1.138l3.85-3.807Z" transform="translate(-328.413 -322.981)" fill="#fff"/>
      </g>
    </g>
  </g>
</svg>
