<svg xmlns="http://www.w3.org/2000/svg" xmlns:xlink="http://www.w3.org/1999/xlink" width="70.321" height="35.523" viewBox="0 0 70.321 35.523">
  <defs>
    <clipPath id="clip-path">
      <rect id="Rectángulo_1758" data-name="Rectángulo 1758" width="0.983" height="7.53" fill="none"/>
    </clipPath>
    <linearGradient id="linear-gradient" x1="0.5" y1="1" x2="0.5" gradientUnits="objectBoundingBox">
      <stop offset="0" stop-color="#8b8b8a"/>
      <stop offset="0.49" stop-color="#fff"/>
      <stop offset="1" stop-color="#858484"/>
    </linearGradient>
    <clipPath id="clip-path-2">
      <path id="Trazado_3150" data-name="Trazado 3150" d="M392.083,475.653c0-.57-.01-1.016-.044-1.463h.87l.057.882h.021a2,2,0,0,1,1.788-1.005c.748,0,1.911.446,1.911,2.3V479.6H395.7V476.48c0-.872-.323-1.609-1.251-1.609a1.418,1.418,0,0,0-1.319,1.005,1.5,1.5,0,0,0-.066.458V479.6h-.984Z" transform="translate(-392.039 -474.067)" fill="none" clip-rule="evenodd"/>
    </clipPath>
    <linearGradient id="linear-gradient-2" y2="0.001" xlink:href="#linear-gradient"/>
    <clipPath id="clip-path-3">
      <path id="Trazado_3151" data-name="Trazado 3151" d="M397.49,480.1v-4.658h-.747v-.748h.747v-.257a2.552,2.552,0,0,1,.637-1.888,1.868,1.868,0,0,1,1.307-.5,2.221,2.221,0,0,1,.838.157l-.123.76a1.508,1.508,0,0,0-.636-.123c-.827,0-1.05.737-1.05,1.564v.292h1.307v.748h-1.3V480.1Z" transform="translate(-396.743 -472.042)" fill="none" clip-rule="evenodd"/>
    </clipPath>
    <clipPath id="clip-path-4">
      <path id="Trazado_3152" data-name="Trazado 3152" d="M400.609,473.618a.631.631,0,0,1,.022-1.262.6.6,0,0,1,.626.625.616.616,0,0,1-.636.637Zm-.469,6.4v-5.406h.983v5.406Z" transform="translate(-399.994 -472.356)" fill="none" clip-rule="evenodd"/>
    </clipPath>
    <clipPath id="clip-path-5">
      <path id="Trazado_3153" data-name="Trazado 3153" d="M387.02,450.517l-9.207,21.965h-6.007l-4.529-17.529a2.4,2.4,0,0,0-1.352-1.929,23.713,23.713,0,0,0-5.6-1.868l.135-.639h9.669a2.647,2.647,0,0,1,2.62,2.24l2.393,12.71,5.912-14.95Zm23.536,14.794c.022-5.8-8.019-6.117-7.961-8.707.015-.788.767-1.626,2.407-1.841a10.727,10.727,0,0,1,5.606.984l1-4.658a15.242,15.242,0,0,0-5.315-.974c-5.616,0-9.569,2.986-9.6,7.262-.035,3.161,2.822,4.925,4.976,5.977,2.214,1.076,2.956,1.766,2.948,2.729-.016,1.474-1.767,2.124-3.4,2.15a11.878,11.878,0,0,1-5.839-1.387l-1.029,4.813a17.221,17.221,0,0,0,6.32,1.167C406.631,472.826,410.535,469.876,410.556,465.311Zm14.829,7.171h5.255l-4.586-21.965H421.2a2.588,2.588,0,0,0-2.418,1.611l-8.524,20.354h5.964l1.187-3.279H424.7Zm-6.339-7.782,2.992-8.249,1.72,8.249Zm-23.908-14.183-4.7,21.965h-5.682l4.7-21.965Z" transform="translate(-360.32 -450.115)" fill="none" clip-rule="evenodd"/>
    </clipPath>
    <clipPath id="clip-path-6">
      <path id="Trazado_3154" data-name="Trazado 3154" d="M402.44,475.653c0-.57-.01-1.016-.044-1.463h.87l.056.882h.022a2,2,0,0,1,1.787-1.005c.75,0,1.911.446,1.911,2.3V479.6h-.983V476.48c0-.872-.324-1.609-1.252-1.609a1.418,1.418,0,0,0-1.318,1.005,1.494,1.494,0,0,0-.067.458V479.6h-.983Z" transform="translate(-402.396 -474.067)" fill="none" clip-rule="evenodd"/>
    </clipPath>
    <clipPath id="clip-path-7">
      <path id="Trazado_3155" data-name="Trazado 3155" d="M408.127,473.618a.631.631,0,0,1,.022-1.262.6.6,0,0,1,.626.625.617.617,0,0,1-.637.637Zm-.47,6.4v-5.406h.984v5.406Z" transform="translate(-407.512 -472.356)" fill="none" clip-rule="evenodd"/>
    </clipPath>
    <clipPath id="clip-path-8">
      <path id="Trazado_3156" data-name="Trazado 3156" d="M411.256,473.126v1.3h1.407v.748h-1.407v2.914c0,.671.19,1.05.736,1.05a1.848,1.848,0,0,0,.571-.066l.044.748a2.63,2.63,0,0,1-.87.135,1.405,1.405,0,0,1-1.063-.413,2.117,2.117,0,0,1-.379-1.42v-2.948h-.838v-.748h.838v-1Z" transform="translate(-409.456 -473.126)" fill="none" clip-rule="evenodd"/>
    </clipPath>
    <clipPath id="clip-path-9">
      <path id="Trazado_3157" data-name="Trazado 3157" d="M413.722,477.063a1.725,1.725,0,0,0,1.844,1.878,3.739,3.739,0,0,0,1.5-.268l.178.692a4.406,4.406,0,0,1-1.81.347,2.522,2.522,0,0,1-2.659-2.727,2.637,2.637,0,0,1,2.547-2.927,2.283,2.283,0,0,1,2.224,2.549,2.642,2.642,0,0,1-.032.468Zm2.872-.7a1.4,1.4,0,0,0-1.352-1.6,1.621,1.621,0,0,0-1.509,1.6Z" transform="translate(-412.773 -474.057)" fill="none" clip-rule="evenodd"/>
    </clipPath>
  </defs>
  <g id="Grupo_4306" data-name="Grupo 4306" transform="translate(-360.32 -450.115)">
    <g id="Grupo_4302" data-name="Grupo 4302" transform="translate(396.993 477.985)">
      <g id="Grupo_4301" data-name="Grupo 4301" clip-path="url(#clip-path)">
        <rect id="Rectángulo_1757" data-name="Rectángulo 1757" width="0.983" height="7.53" fill="url(#linear-gradient)"/>
      </g>
    </g>
    <g id="Grupo_4304" data-name="Grupo 4304" transform="translate(399.876 479.985)">
      <g id="Grupo_4303" data-name="Grupo 4303" clip-path="url(#clip-path-2)">
        <rect id="Rectángulo_1759" data-name="Rectángulo 1759" width="4.648" height="5.53" transform="translate(0 0)" fill="url(#linear-gradient-2)"/>
      </g>
    </g>
    <g id="Grupo_4306-2" data-name="Grupo 4306" transform="translate(405.743 477.46)">
      <g id="Grupo_4305" data-name="Grupo 4305" clip-path="url(#clip-path-3)">
        <rect id="Rectángulo_1760" data-name="Rectángulo 1760" width="3.53" height="8.055" transform="translate(0 0)" fill="url(#linear-gradient)"/>
      </g>
    </g>
    <g id="Grupo_4308" data-name="Grupo 4308" transform="translate(409.797 477.851)">
      <g id="Grupo_4307" data-name="Grupo 4307" clip-path="url(#clip-path-4)">
        <rect id="Rectángulo_1761" data-name="Rectángulo 1761" width="1.263" height="7.664" transform="translate(0 0)" fill="url(#linear-gradient)"/>
      </g>
    </g>
    <g id="Grupo_4310" data-name="Grupo 4310" transform="translate(360.32 450.115)">
      <g id="Grupo_4309" data-name="Grupo 4309" clip-path="url(#clip-path-5)">
        <rect id="Rectángulo_1762" data-name="Rectángulo 1762" width="70.321" height="22.711" transform="translate(0 0)" fill="url(#linear-gradient)"/>
      </g>
    </g>
    <g id="Grupo_4312" data-name="Grupo 4312" transform="translate(412.792 479.985)">
      <g id="Grupo_4311" data-name="Grupo 4311" clip-path="url(#clip-path-6)">
        <rect id="Rectángulo_1763" data-name="Rectángulo 1763" width="4.647" height="5.53" transform="translate(0 0)" fill="url(#linear-gradient-2)"/>
      </g>
    </g>
    <g id="Grupo_4314" data-name="Grupo 4314" transform="translate(419.173 477.851)">
      <g id="Grupo_4313" data-name="Grupo 4313" clip-path="url(#clip-path-7)">
        <rect id="Rectángulo_1764" data-name="Rectángulo 1764" width="1.263" height="7.664" transform="translate(0 0)" fill="url(#linear-gradient)"/>
      </g>
    </g>
    <g id="Grupo_4316" data-name="Grupo 4316" transform="translate(421.597 478.812)">
      <g id="Grupo_4315" data-name="Grupo 4315" clip-path="url(#clip-path-8)">
        <rect id="Rectángulo_1765" data-name="Rectángulo 1765" width="3.206" height="6.827" transform="translate(0 0)" fill="url(#linear-gradient)"/>
      </g>
    </g>
    <g id="Grupo_4318" data-name="Grupo 4318" transform="translate(425.734 479.973)">
      <g id="Grupo_4317" data-name="Grupo 4317" clip-path="url(#clip-path-9)">
        <rect id="Rectángulo_1766" data-name="Rectángulo 1766" width="4.771" height="5.654" transform="translate(0 0)" fill="url(#linear-gradient)"/>
      </g>
    </g>
  </g>
</svg>
